<?xml version="1.0" encoding="utf-8"?>
<!-- Generator: Adobe Illustrator 24.2.3, SVG Export Plug-In . SVG Version: 6.00 Build 0)  -->
<svg version="1.1" id="Camada_2" xmlns="http://www.w3.org/2000/svg" xmlns:xlink="http://www.w3.org/1999/xlink" x="0px" y="0px"
	 viewBox="0 0 1191 842" style="enable-background:new 0 0 1191 842;" xml:space="preserve">
<style type="text/css">
	.st0{fill:none;stroke:#C00000;stroke-width:2;stroke-miterlimit:10;}
	.st1{fill:none;stroke:#F4B083;stroke-width:2;stroke-miterlimit:10;}
	.st2{fill:none;stroke:#66FFFF;stroke-width:2;stroke-miterlimit:10;}
	.st3{fill:none;stroke:#00B0F0;stroke-width:2;stroke-miterlimit:10;}
	.st4{fill:none;stroke:#F8FB81;stroke-width:2;stroke-miterlimit:10;}
	.st5{fill:none;stroke:#38C0F6;stroke-width:2;stroke-miterlimit:10;}
	.st6{fill:none;stroke:#FF0000;stroke-width:2;stroke-miterlimit:10;}
	.st7{fill:none;stroke:#00B050;stroke-width:2;stroke-miterlimit:10;}
	.st8{fill:none;stroke:#000000;stroke-width:2.0642;stroke-miterlimit:10;}
	.st9{fill:none;stroke:#000000;stroke-width:2;stroke-miterlimit:10;}
	.st10{fill:none;stroke:#FF99CC;stroke-width:2;stroke-miterlimit:10;}
	.st11{fill:none;stroke:#0070C0;stroke-width:2;stroke-miterlimit:10;}
	.st12{fill:none;stroke:#CC99FF;stroke-width:2;stroke-miterlimit:10;}
	.st13{fill:none;stroke:#FFFF00;stroke-width:2;stroke-miterlimit:10;}
</style>
<rect id="1" x="36.5" y="622.7" class="st0" width="16.7" height="14.7"/>
<rect id="2" x="36.5" y="597.8" class="st0" width="16.7" height="24.9"/>
<rect id="3" x="36.5" y="572.9" class="st0" width="16.7" height="24.9"/>
<rect id="4" x="36.5" y="548.1" class="st0" width="16.7" height="24.9"/>
<rect id="5" x="36.5" y="523.2" class="st0" width="16.7" height="24.9"/>
<rect id="6" x="36.5" y="498.3" class="st0" width="16.7" height="24.9"/>
<rect id="7" x="36.5" y="473.5" class="st0" width="16.7" height="24.9"/>
<rect id="8" x="36.5" y="449.5" class="st0" width="16.7" height="24"/>
<rect id="9" x="79.6" y="375.7" class="st0" width="16.7" height="24.3"/>
<rect id="10" x="79.6" y="351.1" class="st0" width="16.7" height="24.3"/>
<rect id="11" x="79.6" y="326.4" class="st0" width="16.7" height="24.3"/>
<rect id="12" x="79.6" y="301.7" class="st0" width="16.7" height="24.3"/>
<rect id="13" x="79.6" y="277" class="st0" width="16.7" height="24.3"/>
<rect id="14" x="79.6" y="252.3" class="st0" width="16.7" height="24.3"/>
<rect id="15" x="79.6" y="227.7" class="st0" width="16.7" height="24.3"/>
<rect id="16" x="79.6" y="203" class="st0" width="16.7" height="24.3"/>
<rect id="17" x="79.6" y="178.3" class="st0" width="16.7" height="24.3"/>
<rect id="18" x="79.6" y="153.6" class="st0" width="16.7" height="24.3"/>
<rect id="19" x="103.1" y="120.4" class="st1" width="52.9" height="12.7"/>
<rect id="20" x="156.1" y="120.4" class="st1" width="41.3" height="12.7"/>
<rect id="21" x="197.4" y="120.4" class="st1" width="50.7" height="12.7"/>
<rect id="22" x="248.1" y="120.4" class="st1" width="35.3" height="12.7"/>
<rect id="23" x="283.4" y="120.4" class="st1" width="56.7" height="12.7"/>
<rect id="24" x="340.1" y="120.4" class="st1" width="35.4" height="12.7"/>
<rect id="25" x="375.5" y="120.4" class="st1" width="35.4" height="12.7"/>
<rect id="26" x="410.9" y="120.4" class="st1" width="40.1" height="12.7"/>
<rect id="27" x="451.1" y="120.4" class="st1" width="41.4" height="12.7"/>
<rect id="28" x="492.5" y="120.4" class="st1" width="42.2" height="12.7"/>
<rect id="29" x="534.7" y="120.4" class="st1" width="49.5" height="12.7"/>
<rect id="30" x="584.2" y="120.4" class="st1" width="50.9" height="12.7"/>
<rect id="31" x="635.1" y="120.4" class="st1" width="41.2" height="12.7"/>
<rect id="32" x="676.4" y="120.4" class="st1" width="42.4" height="12.7"/>
<rect id="33" x="718.8" y="120.4" class="st1" width="41.4" height="12.7"/>
<rect id="34" x="760.2" y="120.4" class="st1" width="40" height="12.7"/>
<rect id="35" x="800.3" y="120.4" class="st1" width="35.5" height="12.7"/>
<rect id="36" x="835.7" y="120.4" class="st1" width="35.5" height="12.7"/>
<rect id="37" x="871.2" y="120.4" class="st1" width="39.6" height="12.7"/>
<rect id="38" x="910.8" y="120.4" class="st2" width="31.5" height="12.7"/>
<rect id="39" x="942.4" y="120.4" class="st2" width="31.5" height="12.7"/>
<rect id="40" x="984.7" y="120.4" class="st3" width="21.4" height="12.7"/>
<rect id="41" x="1006.1" y="120.4" class="st3" width="10" height="12.7"/>
<rect id="42" x="1016.1" y="120.4" class="st3" width="10.8" height="12.7"/>
<rect id="43" x="1027" y="120.4" class="st3" width="10.8" height="12.7"/>
<rect id="44" x="1037.8" y="120.4" class="st3" width="20.8" height="12.7"/>
<rect id="45" x="1069.3" y="120.4" class="st4" width="20.8" height="12.7"/>
<rect id="46" x="1090.3" y="120.4" class="st4" width="10.6" height="12.7"/>
<rect id="47" x="1100.9" y="120.4" class="st4" width="10.6" height="12.7"/>
<rect id="48" x="1111.5" y="120.4" class="st4" width="10.6" height="12.7"/>
<rect id="49" x="1122.1" y="120.4" class="st4" width="18.1" height="12.7"/>
<rect id="50" x="1140" y="177.7" class="st5" width="14.1" height="12.7"/>
<rect id="51" x="1140" y="190.1" class="st5" width="14.1" height="12.3"/>
<rect id="52" x="1140" y="202.7" class="st5" width="14.1" height="12.3"/>
<rect id="53" x="1140" y="214.9" class="st5" width="14.1" height="12.3"/>
<rect id="54" x="1140" y="227.3" class="st5" width="14.1" height="12.3"/>
<rect id="55" x="1140" y="239.7" class="st5" width="14.1" height="12.3"/>
<rect id="56" x="1140" y="252.2" class="st5" width="14.1" height="12.3"/>
<rect id="57" x="1140" y="264.6" class="st5" width="14.1" height="12.3"/>
<rect id="58" x="1140" y="277.1" class="st5" width="14.1" height="12.3"/>
<rect id="59" x="1140" y="289.5" class="st5" width="14.1" height="12.3"/>
<rect id="60" x="1140" y="302" class="st5" width="14.1" height="12.3"/>
<rect id="61" x="1140" y="314.4" class="st5" width="14.1" height="12.3"/>
<rect id="62" x="1140" y="326.9" class="st5" width="14.1" height="12.3"/>
<rect id="63" x="1140" y="339.3" class="st5" width="14.1" height="12.3"/>
<rect id="64" x="1140" y="351.8" class="st5" width="14.1" height="12.3"/>
<rect id="65" x="1140" y="364.2" class="st5" width="14.1" height="12.3"/>
<rect id="66" x="1140" y="376.7" class="st5" width="14.1" height="23.6"/>
<rect id="67" x="1140" y="449.5" class="st5" width="14.1" height="11.9"/>
<rect id="68" x="1140" y="461.4" class="st5" width="14.1" height="12.9"/>
<rect id="69" x="1140" y="474.3" class="st5" width="14.1" height="12.3"/>
<rect id="70" x="1140" y="486.7" class="st6" width="14.1" height="12.3"/>
<rect id="71" x="1140" y="499" class="st6" width="14.1" height="12.3"/>
<rect id="72" x="1140" y="511.4" class="st6" width="14.1" height="12.3"/>
<rect id="73" x="1140" y="523.8" class="st6" width="14.1" height="12.3"/>
<rect id="74" x="1140" y="536.2" class="st6" width="14.1" height="12.3"/>
<rect id="75" x="1140" y="548.5" class="st6" width="14.1" height="12.3"/>
<rect id="76" x="1140" y="573.1" class="st6" width="14.1" height="12.3"/>
<rect id="77" x="1140" y="585.4" class="st6" width="14.1" height="12.3"/>
<rect id="78" x="1140" y="597.7" class="st6" width="14.1" height="12.3"/>
<rect id="79" x="1140" y="610" class="st6" width="14.1" height="27.4"/>
<rect id="80" x="1005.8" y="643.1" class="st5" width="10.6" height="16.3"/>
<rect id="81" x="995.2" y="643.1" class="st5" width="10.6" height="16.3"/>
<rect id="82" x="984.6" y="643.1" class="st5" width="10.6" height="16.3"/>
<rect id="83" x="974" y="643.1" class="st5" width="10.6" height="16.3"/>
<rect id="84" x="963.4" y="643.1" class="st5" width="10.6" height="16.3"/>
<rect id="85" x="952.9" y="643.1" class="st5" width="10.6" height="16.3"/>
<rect id="86" x="942.3" y="643.1" class="st5" width="10.6" height="16.3"/>
<rect id="87" x="931.7" y="643.1" class="st5" width="10.6" height="16.3"/>
<rect id="88" x="921.1" y="643.1" class="st5" width="10.6" height="16.3"/>
<rect id="89" x="902.9" y="643.1" class="st7" width="18.2" height="16.3"/>
<rect id="90" x="881.9" y="643.1" class="st7" width="21" height="16.3"/>
<rect id="91" x="852.1" y="643.1" class="st7" width="29.8" height="16.3"/>
<rect id="92" x="215.8" y="662.1" class="st8" width="19.8" height="40.8"/>
<rect id="93" x="235.6" y="662.1" class="st8" width="19.8" height="40.8"/>
<rect id="94" x="215.8" y="649.6" class="st8" width="19.8" height="12.5"/>
<rect id="95" x="235.6" y="649.6" class="st8" width="19.8" height="12.5"/>
<rect id="96" x="215.8" y="637.2" class="st8" width="39.7" height="12.5"/>
<rect id="97" x="284.5" y="662.1" class="st8" width="19.8" height="40.8"/>
<rect id="98" x="304.3" y="662.1" class="st8" width="19.8" height="40.8"/>
<rect id="99" x="284.5" y="649.6" class="st8" width="19.8" height="12.5"/>
<rect id="100" x="304.3" y="649.6" class="st8" width="19.8" height="12.5"/>
<rect id="101" x="284.5" y="637.2" class="st8" width="39.7" height="12.5"/>
<rect id="102" x="353.2" y="662.1" class="st8" width="19.8" height="40.8"/>
<rect id="103" x="373" y="662.1" class="st8" width="19.8" height="40.8"/>
<rect id="104" x="353.2" y="649.6" class="st8" width="19.8" height="12.5"/>
<rect id="105" x="373" y="649.6" class="st8" width="19.8" height="12.5"/>
<rect id="106" x="353.2" y="637.2" class="st8" width="39.7" height="12.5"/>
<rect id="107" x="421.9" y="662.1" class="st8" width="19.8" height="40.8"/>
<rect id="108" x="441.7" y="662.1" class="st8" width="19.8" height="40.8"/>
<rect id="109" x="421.9" y="649.6" class="st8" width="19.8" height="12.5"/>
<rect id="110" x="441.7" y="649.6" class="st8" width="19.8" height="12.5"/>
<rect id="111" x="421.9" y="637.2" class="st8" width="39.7" height="12.5"/>
<rect id="112" x="490.6" y="662.1" class="st8" width="19.8" height="40.8"/>
<rect id="113" x="510.4" y="662.1" class="st8" width="19.8" height="40.8"/>
<rect id="114" x="490.6" y="649.6" class="st8" width="19.8" height="12.5"/>
<rect id="115" x="510.4" y="649.6" class="st8" width="19.8" height="12.5"/>
<rect id="116" x="490.6" y="637.2" class="st8" width="39.7" height="12.5"/>
<rect id="117" x="559.3" y="662.1" class="st8" width="19.8" height="40.8"/>
<rect id="118" x="579.1" y="662.1" class="st8" width="19.8" height="40.8"/>
<rect id="119" x="559.3" y="649.6" class="st8" width="19.8" height="12.5"/>
<rect id="120" x="579.1" y="649.6" class="st8" width="19.8" height="12.5"/>
<rect id="121" x="559.3" y="637.2" class="st8" width="39.7" height="12.5"/>
<rect id="122" x="628" y="662.1" class="st8" width="19.8" height="40.8"/>
<rect id="123" x="647.8" y="662.1" class="st8" width="19.8" height="40.8"/>
<rect id="124" x="628" y="649.6" class="st8" width="19.8" height="12.5"/>
<rect id="125" x="647.8" y="649.6" class="st8" width="19.8" height="12.5"/>
<rect id="126" x="628" y="637.2" class="st8" width="39.7" height="12.5"/>
<rect id="127" x="696.7" y="662.1" class="st8" width="19.8" height="40.8"/>
<rect id="128" x="716.5" y="662.1" class="st8" width="19.8" height="40.8"/>
<rect id="129" x="696.7" y="649.6" class="st8" width="19.8" height="12.5"/>
<rect id="130" x="716.5" y="649.6" class="st8" width="19.8" height="12.5"/>
<rect id="131" x="696.7" y="637.2" class="st8" width="39.7" height="12.5"/>
<rect id="132" x="765.3" y="662.1" class="st8" width="19.8" height="40.8"/>
<rect id="133" x="785.2" y="662.1" class="st8" width="19.8" height="40.8"/>
<rect id="134" x="765.3" y="649.6" class="st8" width="19.8" height="12.5"/>
<rect id="135" x="785.2" y="649.6" class="st8" width="19.8" height="12.5"/>
<rect id="136" x="765.3" y="637.2" class="st8" width="39.7" height="12.5"/>
<rect id="137" x="85.1" y="560.8" class="st9" width="11" height="13.1"/>
<rect id="138" x="96" y="560.8" class="st9" width="10.5" height="13.1"/>
<rect id="139" x="85.1" y="548.1" class="st9" width="11" height="13.1"/>
<rect id="140" x="96" y="548.1" class="st9" width="10.5" height="13.1"/>
<rect id="141" x="85.1" y="535.3" class="st9" width="11" height="13.1"/>
<rect id="142" x="96" y="535.3" class="st9" width="10.5" height="13.1"/>
<rect id="143" x="85.1" y="499.7" class="st9" width="11" height="13.1"/>
<rect id="144" x="96" y="499.7" class="st9" width="10.5" height="13.1"/>
<rect id="145" x="85.1" y="486.6" class="st9" width="11" height="13.1"/>
<rect id="146" x="96" y="486.6" class="st9" width="10.5" height="13.1"/>
<rect id="147" x="180.9" y="573.2" class="st0" width="16.5" height="12.2"/>
<rect id="148" x="164.4" y="573.2" class="st0" width="16.5" height="12.2"/>
<rect id="149" x="164.4" y="560.8" class="st0" width="16.5" height="12.2"/>
<rect id="150" x="164.4" y="548.4" class="st0" width="16.5" height="12.2"/>
<rect id="151" x="180.9" y="548.4" class="st0" width="16.5" height="24.5"/>
<rect id="152" x="164.4" y="536" class="st0" width="16.5" height="12.3"/>
<rect id="153" x="164.4" y="523.7" class="st0" width="16.5" height="12.3"/>
<rect id="154" x="181" y="523.7" class="st0" width="16.5" height="24.8"/>
<rect id="155" x="164.4" y="511.6" class="st0" width="16.5" height="12.1"/>
<rect id="156" x="164.4" y="499.2" class="st0" width="16.5" height="12.1"/>
<rect id="157" x="181" y="499.2" class="st0" width="16.5" height="24.5"/>
<rect id="158" x="164.4" y="474.4" class="st0" width="16.5" height="24.5"/>
<rect id="159" x="181" y="474.4" class="st0" width="16.5" height="24.5"/>
<rect id="160" x="164.4" y="449.6" class="st0" width="16.5" height="24.5"/>
<rect id="161" x="181" y="449.6" class="st0" width="16.5" height="24.5"/>
<rect id="162" x="164.5" y="437.3" class="st0" width="16.5" height="12.3"/>
<rect id="163" x="181" y="437.3" class="st0" width="16.5" height="12.3"/>
<rect id="164" x="164.4" y="387.9" class="st10" width="16.5" height="12.3"/>
<rect id="165" x="180.9" y="387.9" class="st0" width="16.5" height="12.3"/>
<rect id="166" x="164.4" y="363.1" class="st10" width="16.5" height="24.8"/>
<rect id="167" x="180.9" y="363.1" class="st0" width="16.5" height="24.8"/>
<rect id="168" x="164.4" y="338.5" class="st10" width="16.5" height="24.8"/>
<rect id="169" x="180.9" y="338.5" class="st0" width="16.5" height="24.8"/>
<rect id="170" x="164.4" y="325.9" class="st10" width="16.5" height="12.6"/>
<rect id="171" x="164.4" y="313.6" class="st10" width="16.5" height="12.6"/>
<rect id="172" x="180.9" y="313.6" class="st0" width="16.5" height="25"/>
<rect id="173" x="164.4" y="289.2" class="st10" width="16.5" height="24.4"/>
<rect id="174" x="180.9" y="289.2" class="st0" width="16.5" height="24.4"/>
<rect id="175" x="164.4" y="264.4" class="st10" width="16.5" height="24.4"/>
<rect id="176" x="180.9" y="264.4" class="st0" width="16.5" height="24.4"/>
<rect id="177" x="164.4" y="239.6" class="st10" width="16.5" height="24.4"/>
<rect id="178" x="180.9" y="239.6" class="st0" width="16.5" height="24.4"/>
<rect id="179" x="164.4" y="214.7" class="st10" width="16.5" height="24.4"/>
<rect id="180" x="180.9" y="214.7" class="st0" width="16.5" height="24.4"/>
<rect id="181" x="164.4" y="202.6" class="st10" width="16.5" height="12.1"/>
<rect id="182" x="164.4" y="190.4" class="st10" width="16.5" height="12.1"/>
<rect id="183" x="180.9" y="190.4" class="st0" width="16.5" height="24.4"/>
<rect id="184" x="164.5" y="178" class="st10" width="16.5" height="12.2"/>
<rect id="185" x="180.9" y="178" class="st0" width="16.5" height="12.2"/>
<rect id="186" x="267" y="178" class="st0" width="16.5" height="12.2"/>
<rect id="187" x="283.3" y="178" class="st0" width="16.5" height="12.2"/>
<rect id="188" x="267" y="190.1" class="st0" width="16.5" height="25"/>
<rect id="189" x="283.6" y="190.1" class="st0" width="16.5" height="25"/>
<rect id="190" x="267" y="215.2" class="st0" width="16.5" height="24.3"/>
<rect id="191" x="283.6" y="215.2" class="st0" width="16.5" height="24.3"/>
<rect id="192" x="267" y="239.6" class="st0" width="16.5" height="24.3"/>
<rect id="193" x="283.6" y="239.6" class="st0" width="16.5" height="24.3"/>
<rect id="194" x="267" y="264.1" class="st0" width="16.5" height="24.3"/>
<rect id="195" x="283.6" y="264.1" class="st0" width="16.5" height="24.3"/>
<rect id="196" x="267" y="288.5" class="st0" width="16.5" height="24.3"/>
<rect id="197" x="283.6" y="288.5" class="st0" width="16.5" height="24.3"/>
<rect id="198" x="267" y="313" class="st0" width="16.5" height="25.6"/>
<rect id="199" x="283.6" y="313" class="st0" width="16.5" height="25.6"/>
<rect id="200" x="267" y="338.6" class="st0" width="16.5" height="24.6"/>
<rect id="201" x="283.6" y="338.6" class="st0" width="16.5" height="24.6"/>
<rect id="202" x="267" y="363.2" class="st0" width="16.5" height="24.6"/>
<rect id="203" x="283.6" y="363.2" class="st0" width="16.5" height="24.6"/>
<rect id="204" x="267" y="387.8" class="st0" width="16.5" height="12.2"/>
<rect id="205" x="283.6" y="387.8" class="st0" width="16.5" height="12.2"/>
<rect id="206" x="267" y="437.3" class="st0" width="16.5" height="12.2"/>
<rect id="207" x="283.6" y="437.3" class="st2" width="16.5" height="12.2"/>
<rect id="208" x="267" y="449.7" class="st0" width="16.5" height="24.5"/>
<rect id="209" x="283.6" y="449.7" class="st2" width="16.5" height="24.5"/>
<rect id="210" x="267" y="474.3" class="st0" width="16.5" height="24.5"/>
<rect id="211" x="283.6" y="474.3" class="st2" width="16.5" height="12.3"/>
<rect id="212" x="283.6" y="486.7" class="st2" width="16.5" height="12.3"/>
<rect id="213" x="267" y="498.9" class="st0" width="16.5" height="24.5"/>
<rect id="214" x="283.6" y="498.9" class="st2" width="16.5" height="12.3"/>
<rect id="215" x="283.6" y="511.3" class="st2" width="16.5" height="12.3"/>
<rect id="216" x="267" y="523.5" class="st0" width="16.5" height="24.8"/>
<rect id="217" x="283.5" y="523.5" class="st2" width="16.1" height="24.8"/>
<rect id="218" x="267" y="548.2" class="st0" width="16.5" height="24.8"/>
<rect id="219" x="283.5" y="548.2" class="st2" width="16.1" height="24.8"/>
<rect id="220" x="267" y="573" class="st0" width="16.5" height="12.4"/>
<rect id="221" x="283.5" y="573" class="st2" width="16.1" height="12.4"/>
<rect id="222" x="359.2" y="573" class="st2" width="16.5" height="12.4"/>
<rect id="223" x="375.7" y="573" class="st2" width="16.1" height="12.4"/>
<rect id="224" x="359.2" y="560.7" class="st2" width="16.5" height="12.4"/>
<rect id="225" x="375.7" y="560.7" class="st2" width="16.1" height="12.4"/>
<rect id="226" x="359.2" y="548.2" class="st2" width="16.5" height="12.4"/>
<rect id="227" x="375.7" y="548.2" class="st2" width="16.1" height="12.4"/>
<rect id="228" x="359.2" y="535.7" class="st2" width="16.5" height="12.4"/>
<rect id="229" x="375.7" y="535.7" class="st2" width="16.1" height="12.4"/>
<rect id="230" x="359.2" y="523.2" class="st2" width="16.5" height="12.4"/>
<rect id="231" x="375.7" y="523.2" class="st2" width="16.1" height="12.4"/>
<rect id="232" x="359.2" y="499" class="st2" width="16.3" height="24.6"/>
<rect id="233" x="375.6" y="511.1" class="st2" width="16.3" height="12.1"/>
<rect id="234" x="375.7" y="499.1" class="st2" width="16.3" height="12.1"/>
<rect id="235" x="359" y="474.2" class="st2" width="16.3" height="24.6"/>
<rect id="236" x="375.4" y="486.3" class="st2" width="16.3" height="12.1"/>
<rect id="237" x="375.5" y="474.4" class="st2" width="16.3" height="12.1"/>
<rect id="238" x="359" y="461.9" class="st2" width="16.3" height="12.1"/>
<rect id="239" x="375.6" y="461.9" class="st2" width="16.3" height="12.1"/>
<rect id="240" x="359" y="449.8" class="st2" width="16.3" height="12.1"/>
<rect id="241" x="375.6" y="449.8" class="st2" width="16.3" height="12.1"/>
<rect id="242" x="359" y="437.6" class="st2" width="16.3" height="12.1"/>
<rect id="243" x="375.6" y="437.6" class="st2" width="16.3" height="12.1"/>
<rect id="244" x="359" y="387.9" class="st2" width="16.3" height="12.1"/>
<rect id="245" x="375.6" y="387.9" class="st11" width="16.3" height="12.1"/>
<rect id="246" x="359" y="375.6" class="st2" width="16.3" height="12.1"/>
<rect id="247" x="359" y="363" class="st2" width="16.3" height="12.1"/>
<rect id="248" x="375.7" y="363" class="st11" width="16.3" height="24.9"/>
<rect id="249" x="359" y="338.3" class="st2" width="16.3" height="24.9"/>
<rect id="250" x="375.6" y="338.3" class="st11" width="16.3" height="24.9"/>
<rect id="251" x="359" y="313.4" class="st2" width="16.3" height="24.9"/>
<rect id="252" x="375.6" y="313.4" class="st11" width="16.3" height="24.9"/>
<rect id="253" x="359" y="288.5" class="st2" width="16.3" height="24.9"/>
<rect id="254" x="375.6" y="288.5" class="st11" width="16.3" height="24.9"/>
<rect id="255" x="359" y="276.5" class="st2" width="16.3" height="12.1"/>
<rect id="256" x="359" y="264.2" class="st2" width="16.3" height="12.1"/>
<rect id="257" x="375.6" y="264.2" class="st11" width="16.3" height="24.4"/>
<rect id="258" x="359" y="252" class="st2" width="16.3" height="12.1"/>
<rect id="259" x="359" y="239.7" class="st2" width="16.3" height="12.1"/>
<rect id="260" x="375.6" y="239.7" class="st11" width="16.3" height="24.4"/>
<rect id="261" x="359" y="215" class="st2" width="16.3" height="24.4"/>
<rect id="262" x="375.6" y="215" class="st11" width="16.3" height="24.4"/>
<rect id="263" x="359" y="190.3" class="st2" width="16.3" height="24.4"/>
<rect id="264" x="375.6" y="190.3" class="st11" width="16.3" height="24.4"/>
<rect id="265" x="359" y="177.6" class="st2" width="16.3" height="12.5"/>
<rect id="266" x="375.6" y="177.6" class="st11" width="16.3" height="12.5"/>
<rect id="267" x="451.1" y="177.6" class="st11" width="16.3" height="12.5"/>
<rect id="268" x="467.8" y="177.6" class="st12" width="16.3" height="12.5"/>
<rect id="269" x="451.1" y="190.1" class="st11" width="16.3" height="24.8"/>
<rect id="270" x="467.8" y="190.1" class="st12" width="16.3" height="24.8"/>
<rect id="271" x="451.2" y="214.8" class="st11" width="16.3" height="12.4"/>
<rect id="272" x="451.2" y="227.3" class="st11" width="16.3" height="12.4"/>
<rect id="273" x="467.8" y="214.8" class="st12" width="16.3" height="24.9"/>
<rect id="274" x="451.1" y="239.4" class="st11" width="16.3" height="12.4"/>
<rect id="275" x="467.8" y="239.4" class="st12" width="16.3" height="12.4"/>
<rect id="276" x="451.1" y="251.9" class="st11" width="16.3" height="12.4"/>
<rect id="277" x="467.8" y="251.9" class="st12" width="16.3" height="12.4"/>
<rect id="278" x="451.1" y="264.4" class="st11" width="16.3" height="24.5"/>
<rect id="279" x="467.7" y="264.4" class="st12" width="16.3" height="12.3"/>
<rect id="280" x="451.2" y="288.9" class="st11" width="16.3" height="12.3"/>
<rect id="281" x="467.8" y="276.8" class="st12" width="16.3" height="24.5"/>
<rect id="282" x="451.2" y="301.3" class="st11" width="16.3" height="12.2"/>
<rect id="283" x="467.8" y="301.3" class="st12" width="16.3" height="12.2"/>
<rect id="284" x="451.2" y="313.5" class="st11" width="16.3" height="24.8"/>
<rect id="285" x="467.8" y="313.5" class="st12" width="16.3" height="12.4"/>
<rect id="286" x="467.8" y="326" class="st12" width="16.3" height="12.4"/>
<rect id="287" x="451.1" y="338.3" class="st11" width="16.3" height="24.8"/>
<rect id="288" x="467.7" y="338.3" class="st12" width="16.3" height="24.8"/>
<rect id="289" x="451.1" y="363.2" class="st11" width="16.3" height="24.8"/>
<rect id="290" x="467.7" y="363.2" class="st12" width="16.3" height="12.2"/>
<rect id="291" x="467.7" y="375.6" class="st12" width="16.3" height="12.2"/>
<rect id="292" x="451.2" y="388" class="st11" width="16.3" height="12.2"/>
<rect id="293" x="467.8" y="388" class="st12" width="16.3" height="12.2"/>
<rect id="294" x="451.2" y="437.5" class="st11" width="16.3" height="12.2"/>
<rect id="295" x="467.8" y="437.5" class="st12" width="16.3" height="12.2"/>
<rect id="296" x="451.2" y="449.8" class="st11" width="16.3" height="12.2"/>
<rect id="297" x="451.2" y="462" class="st11" width="16.3" height="12.2"/>
<rect id="298" x="467.8" y="449.7" class="st12" width="16.3" height="24.5"/>
<rect id="299" x="451.2" y="474.2" class="st11" width="16.3" height="12.2"/>
<rect id="300" x="451.2" y="486.4" class="st11" width="16.3" height="12.2"/>
<rect id="301" x="467.8" y="474.1" class="st12" width="16.3" height="24.5"/>
<rect id="302" x="451.2" y="499" class="st11" width="16.3" height="24.5"/>
<rect id="303" x="467.8" y="499" class="st12" width="16.3" height="24.5"/>
<rect id="304" x="451.2" y="523.9" class="st11" width="16.3" height="24.5"/>
<rect id="305" x="467.8" y="523.9" class="st12" width="16.3" height="24.5"/>
<rect id="306" x="451.2" y="548.6" class="st11" width="16.3" height="24.5"/>
<rect id="307" x="467.8" y="548.6" class="st12" width="16.3" height="24.5"/>
<rect id="308" x="451.1" y="573.1" class="st11" width="16.3" height="12.3"/>
<rect id="309" x="467.6" y="573.1" class="st12" width="16.3" height="12.3"/>
<rect id="310" x="543.1" y="573.1" class="st11" width="16.3" height="12.3"/>
<rect id="311" x="559.7" y="573.1" class="st13" width="16.3" height="12.3"/>
<rect id="312" x="543.1" y="560.6" class="st11" width="16.3" height="12.3"/>
<rect id="313" x="559.7" y="560.6" class="st13" width="16.3" height="12.3"/>
<rect id="314" x="543.1" y="548.2" class="st11" width="16.3" height="12.3"/>
<rect id="315" x="559.7" y="548.2" class="st13" width="16.3" height="12.3"/>
<rect id="316" x="543.1" y="536.1" class="st11" width="16.3" height="12.3"/>
<rect id="317" x="543.1" y="523.7" class="st11" width="16.3" height="12.3"/>
<rect id="318" x="559.7" y="523.7" class="st13" width="16.3" height="24.4"/>
<rect id="319" x="543.1" y="499.1" class="st11" width="16.3" height="24.4"/>
<rect id="320" x="559.7" y="499.1" class="st13" width="16.3" height="24.4"/>
<rect id="321" x="543.1" y="474.2" class="st11" width="16.3" height="24.4"/>
<rect id="322" x="559.7" y="474.2" class="st13" width="16.3" height="24.4"/>
<rect id="323" x="543.1" y="449.3" class="st11" width="16.3" height="24.4"/>
<rect id="324" x="559.7" y="449.3" class="st13" width="16.3" height="24.4"/>
<rect id="325" x="543.1" y="437.3" class="st11" width="16.3" height="12"/>
<rect id="326" x="559.7" y="437.3" class="st13" width="16.3" height="12"/>
<rect id="327" x="543.1" y="388" class="st12" width="16.3" height="12"/>
<rect id="328" x="559.7" y="388" class="st13" width="16.3" height="12"/>
<rect id="329" x="543.1" y="363" class="st12" width="16.3" height="25"/>
<rect id="330" x="559.7" y="375.5" class="st13" width="16.3" height="12.5"/>
<rect id="331" x="559.7" y="363.1" class="st13" width="16.3" height="12.5"/>
<rect id="332" x="543.1" y="350.7" class="st12" width="16.3" height="12.5"/>
<rect id="333" x="559.7" y="350.7" class="st13" width="16.3" height="12.5"/>
<rect id="334" x="543.1" y="338.2" class="st12" width="16.3" height="12.5"/>
<rect id="335" x="559.7" y="338.2" class="st13" width="16.3" height="12.5"/>
<rect id="336" x="543.1" y="325.8" class="st12" width="16.3" height="12.5"/>
<rect id="337" x="559.7" y="325.8" class="st13" width="16.3" height="12.5"/>
<rect id="338" x="543.1" y="313.3" class="st12" width="16.3" height="12.5"/>
<rect id="339" x="559.7" y="313.3" class="st13" width="16.3" height="12.5"/>
<rect id="340" x="543.1" y="288.9" class="st12" width="16.3" height="24.3"/>
<rect id="341" x="559.7" y="301.3" class="st13" width="16.3" height="12"/>
<rect id="342" x="559.7" y="288.9" class="st13" width="16.3" height="12"/>
<rect id="343" x="543.1" y="264.2" class="st12" width="16.3" height="24.8"/>
<rect id="344" x="559.7" y="264.2" class="st13" width="16.3" height="24.8"/>
<rect id="345" x="543.1" y="252.1" class="st12" width="16.3" height="12.2"/>
<rect id="346" x="543.1" y="239.6" class="st12" width="16.3" height="12.2"/>
<rect id="347" x="559.7" y="239.6" class="st13" width="16.3" height="24.7"/>
<rect id="348" x="543.1" y="214.8" class="st12" width="16.3" height="24.7"/>
<rect id="349" x="559.7" y="214.8" class="st13" width="16.3" height="24.7"/>
<rect id="350" x="543.1" y="189.9" class="st12" width="16.3" height="24.7"/>
<rect id="351" x="559.7" y="189.9" class="st13" width="16.3" height="24.7"/>
<rect id="352" x="543.1" y="177.6" class="st12" width="16.3" height="12.1"/>
<rect id="353" x="559.7" y="177.6" class="st13" width="16.3" height="12.1"/>
<rect id="354" x="635.1" y="177.6" class="st13" width="16.3" height="12.1"/>
<rect id="355" x="651.7" y="177.6" class="st10" width="16.3" height="12.1"/>
<rect id="356" x="635.1" y="189.8" class="st13" width="16.3" height="25.2"/>
<rect id="357" x="651.7" y="189.8" class="st10" width="16.3" height="25.2"/>
<rect id="358" x="651.7" y="214.9" class="st10" width="16.3" height="24.5"/>
<rect id="359" x="635.1" y="214.9" class="st13" width="16.3" height="12.3"/>
<rect id="360" x="635.1" y="227.3" class="st13" width="16.3" height="12.3"/>
<rect id="361" x="651.8" y="239.5" class="st10" width="16.3" height="24.9"/>
<rect id="362" x="635.1" y="239.5" class="st13" width="16.3" height="24.9"/>
<rect id="363" x="651.8" y="264.4" class="st10" width="16.3" height="12.2"/>
<rect id="364" x="651.8" y="276.7" class="st10" width="16.3" height="12.2"/>
<rect id="365" x="635.2" y="264.4" class="st13" width="16.3" height="24.6"/>
<rect id="366" x="651.8" y="289.2" class="st10" width="16.3" height="12.2"/>
<rect id="367" x="651.8" y="301.5" class="st10" width="16.3" height="12.2"/>
<rect id="368" x="635.2" y="289.2" class="st13" width="16.3" height="24.6"/>
<rect id="369" x="651.8" y="313.7" class="st10" width="16.3" height="12.2"/>
<rect id="370" x="651.8" y="326" class="st10" width="16.3" height="12.2"/>
<rect id="371" x="635.2" y="313.7" class="st13" width="16.3" height="24.6"/>
<rect id="372" x="651.8" y="338.4" class="st10" width="16.3" height="24.6"/>
<rect id="373" x="635.2" y="338.4" class="st13" width="16.3" height="24.6"/>
<rect id="374" x="651.8" y="363.1" class="st10" width="16.3" height="24.6"/>
<rect id="375" x="651.8" y="387.7" class="st10" width="16.3" height="12.4"/>
<rect id="376" x="635.2" y="363.1" class="st13" width="16.3" height="12"/>
<rect id="377" x="635.2" y="375.1" class="st13" width="16.3" height="12.5"/>
<rect id="378" x="635.2" y="387.7" class="st13" width="16.3" height="12.5"/>
<rect id="379" x="651.8" y="437.3" class="st13" width="16.3" height="12.4"/>
<rect id="380" x="635.2" y="437.3" class="st13" width="16.3" height="12.5"/>
<rect id="381" x="651.8" y="449.7" class="st13" width="16.3" height="24.2"/>
<rect id="382" x="635.2" y="449.7" class="st13" width="16.3" height="24.5"/>
<rect id="383" x="651.8" y="474.6" class="st13" width="16.3" height="24.1"/>
<rect id="384" x="635.2" y="474.2" class="st13" width="16.3" height="24.5"/>
<rect id="385" x="651.8" y="499.5" class="st13" width="16.3" height="24.1"/>
<rect id="386" x="635.2" y="499.1" class="st13" width="16.3" height="24.5"/>
<rect id="387" x="651.8" y="524.4" class="st13" width="16.3" height="24.1"/>
<rect id="388" x="635.2" y="524" class="st13" width="16.3" height="24.5"/>
<rect id="389" x="651.8" y="549.3" class="st13" width="16.3" height="24.1"/>
<rect id="390" x="635.2" y="548.9" class="st13" width="16.3" height="24.5"/>
<rect id="391" x="651.8" y="574" class="st13" width="16.3" height="11.3"/>
<rect id="392" x="635.2" y="573.9" class="st13" width="16.3" height="11.5"/>
<rect id="393" x="727.2" y="573.2" class="st13" width="16.3" height="12.2"/>
<rect id="394" x="743.7" y="573.4" class="st10" width="16.3" height="12"/>
<rect id="395" x="727.2" y="548.4" class="st13" width="16.3" height="24.5"/>
<rect id="396" x="743.5" y="560.6" class="st10" width="16.3" height="12.3"/>
<rect id="397" x="743.5" y="548.4" class="st10" width="16.3" height="12.3"/>
<rect id="398" x="727.2" y="523.8" class="st13" width="16.3" height="24.5"/>
<rect id="399" x="743.5" y="535.9" class="st10" width="16.3" height="12.3"/>
<rect id="400" x="743.5" y="523.8" class="st10" width="16.3" height="12.3"/>
<rect id="401" x="726.9" y="499.1" class="st13" width="16.3" height="24.5"/>
<rect id="402" x="743.5" y="499.1" class="st10" width="16.3" height="24.5"/>
<rect id="403" x="726.9" y="474.2" class="st13" width="16.3" height="24.5"/>
<rect id="404" x="743.5" y="474.2" class="st10" width="16.3" height="24.5"/>
<rect id="405" x="726.9" y="449.2" class="st13" width="16.3" height="24.5"/>
<rect id="406" x="743.5" y="449.2" class="st10" width="16.3" height="24.5"/>
<rect id="407" x="726.9" y="437.3" class="st13" width="16.3" height="11.5"/>
<rect id="408" x="743.5" y="437.3" class="st10" width="16.3" height="11.5"/>
<rect id="409" x="743.5" y="388.3" class="st10" width="16.3" height="11.5"/>
<rect id="410" x="726.9" y="388.3" class="st10" width="16.3" height="11.5"/>
<rect id="411" x="743.5" y="363.2" class="st10" width="16.3" height="25"/>
<rect id="412" x="726.9" y="375.5" class="st10" width="16.3" height="12.8"/>
<rect id="413" x="726.9" y="363.2" class="st10" width="16.3" height="12.2"/>
<rect id="414" x="743.5" y="338.5" class="st10" width="16.3" height="24.7"/>
<rect id="415" x="726.9" y="338.5" class="st10" width="16.3" height="24.7"/>
<rect id="416" x="743.5" y="313.7" class="st10" width="16.3" height="24.9"/>
<rect id="417" x="726.9" y="326.2" class="st10" width="16.3" height="12.4"/>
<rect id="418" x="726.9" y="313.7" class="st10" width="16.3" height="12.4"/>
<rect id="419" x="743.5" y="289.1" class="st10" width="16.3" height="24.9"/>
<rect id="420" x="726.9" y="301.6" class="st10" width="16.3" height="12.4"/>
<rect id="421" x="726.9" y="289.1" class="st10" width="16.3" height="12.4"/>
<rect id="422" x="743.4" y="264.3" class="st10" width="16.3" height="24.9"/>
<rect id="423" x="726.8" y="264.3" class="st10" width="16.3" height="24.9"/>
<rect id="424" x="743.5" y="239.6" class="st10" width="16.3" height="24.9"/>
<rect id="425" x="726.9" y="252.1" class="st10" width="16.3" height="12.4"/>
<rect id="426" x="726.9" y="239.6" class="st10" width="16.3" height="12.4"/>
<rect id="427" x="743.5" y="214.8" class="st10" width="16.3" height="25"/>
<rect id="428" x="727.3" y="214.8" class="st10" width="16.3" height="25"/>
<rect id="429" x="743.5" y="190.2" class="st10" width="16.3" height="25"/>
<rect id="430" x="727.3" y="190.2" class="st10" width="16.3" height="25"/>
<rect id="431" x="743.5" y="177.7" class="st10" width="16.3" height="12.5"/>
<rect id="432" x="727.3" y="177.7" class="st10" width="16.3" height="12.5"/>
<rect id="433" x="835.7" y="177.7" class="st13" width="16.3" height="12.5"/>
<rect id="434" x="819.5" y="177.7" class="st10" width="16.3" height="12.5"/>
<rect id="435" x="835.7" y="190.2" class="st13" width="16.3" height="24.7"/>
<rect id="436" x="819.5" y="190.2" class="st10" width="16.3" height="24.7"/>
<rect id="437" x="835.7" y="215" class="st13" width="16.3" height="24.7"/>
<rect id="438" x="819.5" y="215" class="st10" width="16.3" height="24.7"/>
<rect id="439" x="835.7" y="239.8" class="st13" width="16.3" height="24.7"/>
<rect id="440" x="819.5" y="239.8" class="st10" width="16.3" height="24.7"/>
<rect id="441" x="835.7" y="264.6" class="st13" width="16.3" height="24.7"/>
<rect id="442" x="819.5" y="264.6" class="st10" width="16.3" height="24.7"/>
<rect id="443" x="835.7" y="289.5" class="st13" width="16.3" height="24.7"/>
<rect id="444" x="819.5" y="289.5" class="st10" width="16.3" height="24.7"/>
<rect id="445" x="835.7" y="314.3" class="st13" width="16.3" height="24.7"/>
<rect id="446" x="819.5" y="314.3" class="st10" width="16.3" height="24.7"/>
<rect id="447" x="835.7" y="339.1" class="st13" width="16.3" height="24.7"/>
<rect id="448" x="819.5" y="339.1" class="st10" width="16.3" height="24.7"/>
<rect id="449" x="835.7" y="364" class="st13" width="16.3" height="24.7"/>
<rect id="450" x="819.5" y="364" class="st10" width="16.3" height="24.7"/>
<rect id="451" x="835.7" y="388.8" class="st13" width="16.3" height="11.3"/>
<rect id="452" x="819.5" y="388.8" class="st10" width="16.3" height="11.3"/>
<rect id="453" x="835.7" y="437.4" class="st5" width="16.3" height="11.8"/>
<rect id="454" x="819.5" y="437.4" class="st10" width="16.3" height="11.8"/>
<rect id="455" x="835.7" y="449.2" class="st5" width="16.3" height="25.2"/>
<rect id="456" x="819.5" y="449.2" class="st10" width="16.3" height="25.2"/>
<rect id="457" x="835.7" y="474.4" class="st5" width="16.3" height="24.6"/>
<rect id="458" x="819.5" y="474.4" class="st10" width="16.3" height="24.6"/>
<rect id="459" x="835.7" y="499" class="st5" width="16.3" height="24.6"/>
<rect id="460" x="819.5" y="499" class="st10" width="16.3" height="24.6"/>
<rect id="461" x="835.7" y="523.6" class="st5" width="16.3" height="24.6"/>
<rect id="462" x="819.5" y="523.6" class="st10" width="16.3" height="12.3"/>
<rect id="463" x="819.5" y="535.9" class="st10" width="16.3" height="12.3"/>
<rect id="464" x="835.7" y="548.2" class="st5" width="16.3" height="24.6"/>
<rect id="465" x="819.5" y="548.2" class="st10" width="16.3" height="12.3"/>
<rect id="466" x="819.5" y="560.5" class="st10" width="16.3" height="12.3"/>
<rect id="467" x="819.5" y="572.8" class="st10" width="16.3" height="12.3"/>
<rect id="468" x="835.8" y="572.8" class="st5" width="16.3" height="12.3"/>
<rect id="469" x="910.9" y="572.8" class="st5" width="10.4" height="12.3"/>
<rect id="470" x="921.4" y="572.8" class="st5" width="10.4" height="12.3"/>
<rect id="471" x="910.9" y="560.5" class="st5" width="10.4" height="12.3"/>
<rect id="472" x="921.4" y="560.5" class="st5" width="10.4" height="12.3"/>
<rect id="473" x="910.9" y="548.2" class="st5" width="10.4" height="12.3"/>
<rect id="474" x="921.4" y="548.2" class="st5" width="10.4" height="12.3"/>
<rect id="475" x="910.9" y="535.9" class="st5" width="10.4" height="12.3"/>
<rect id="476" x="921.4" y="535.9" class="st5" width="10.4" height="12.3"/>
<rect id="477" x="910.9" y="523.6" class="st5" width="10.4" height="12.3"/>
<rect id="478" x="921.4" y="523.6" class="st5" width="10.4" height="12.3"/>
<rect id="479" x="910.9" y="511.3" class="st5" width="10.4" height="12.3"/>
<rect id="480" x="921.4" y="511.3" class="st5" width="10.4" height="12.3"/>
<rect id="481" x="910.9" y="499" class="st5" width="10.4" height="12.3"/>
<rect id="482" x="921.4" y="499" class="st5" width="10.4" height="12.3"/>
<rect id="483" x="910.9" y="486.8" class="st5" width="10.4" height="12.3"/>
<rect id="484" x="921.4" y="486.8" class="st5" width="10.4" height="12.3"/>
<rect id="485" x="910.9" y="474.5" class="st5" width="10.4" height="12.3"/>
<rect id="486" x="921.4" y="474.5" class="st5" width="10.4" height="12.3"/>
<rect id="487" x="910.9" y="462.2" class="st5" width="10.4" height="12.3"/>
<rect id="488" x="921.4" y="462.2" class="st5" width="10.4" height="12.3"/>
<rect id="489" x="910.9" y="449.9" class="st5" width="10.4" height="12.3"/>
<rect id="490" x="921.4" y="449.9" class="st5" width="10.4" height="12.3"/>
<rect id="491" x="910.9" y="437.6" class="st5" width="10.4" height="12.3"/>
<rect id="492" x="921.4" y="437.6" class="st5" width="10.4" height="12.3"/>
<rect id="493" x="910.9" y="375.6" class="st10" width="10.4" height="24.6"/>
<rect id="494" x="921.4" y="387.9" class="st5" width="10.4" height="12.3"/>
<rect id="495" x="921.4" y="375.6" class="st5" width="10.4" height="12.3"/>
<rect id="496" x="910.9" y="350.9" class="st10" width="10.4" height="24.6"/>
<rect id="497" x="921.4" y="363.2" class="st5" width="10.4" height="12.3"/>
<rect id="498" x="921.4" y="350.9" class="st5" width="10.4" height="12.3"/>
<rect id="499" x="910.9" y="326.2" class="st10" width="10.4" height="24.6"/>
<rect id="500" x="921.4" y="338.5" class="st5" width="10.4" height="12.3"/>
<rect id="501" x="921.4" y="326.2" class="st5" width="10.4" height="12.3"/>
<rect id="502" x="910.9" y="301.3" class="st10" width="10.4" height="24.6"/>
<rect id="503" x="921.4" y="313.6" class="st5" width="10.4" height="12.3"/>
<rect id="504" x="921.4" y="301.3" class="st5" width="10.4" height="12.3"/>
<rect id="505" x="974.4" y="178.1" class="st3" width="10.4" height="12.3"/>
<rect id="506" x="984.8" y="178.1" class="st3" width="10.4" height="12.3"/>
<rect id="507" x="974.4" y="190.6" class="st3" width="10.4" height="24.4"/>
<rect id="508" x="984.8" y="190.6" class="st3" width="10.4" height="24.4"/>
<rect id="509" x="974.4" y="215.2" class="st3" width="10.4" height="24.4"/>
<rect id="510" x="984.8" y="215.2" class="st3" width="10.4" height="24.4"/>
<rect id="511" x="974.4" y="239.9" class="st3" width="10.4" height="24.4"/>
<rect id="512" x="984.8" y="239.9" class="st3" width="10.4" height="24.4"/>
<rect id="513" x="974.4" y="264.6" class="st3" width="10.4" height="24.4"/>
<rect id="514" x="984.8" y="264.6" class="st3" width="10.4" height="24.4"/>
<rect id="515" x="974.4" y="289.3" class="st3" width="10.4" height="24.4"/>
<rect id="516" x="984.8" y="289.3" class="st3" width="10.4" height="24.4"/>
<rect id="517" x="974.4" y="314" class="st3" width="10.4" height="24.4"/>
<rect id="518" x="984.8" y="314" class="st3" width="10.4" height="24.4"/>
<rect id="519" x="974.4" y="338.7" class="st3" width="10.4" height="24.4"/>
<rect id="520" x="984.8" y="338.7" class="st3" width="10.4" height="24.4"/>
<rect id="521" x="974.4" y="363.4" class="st3" width="10.4" height="24.4"/>
<rect id="522" x="984.8" y="363.4" class="st3" width="10.4" height="24.4"/>
<rect id="523" x="974.4" y="388.1" class="st3" width="10.4" height="11.7"/>
<rect id="524" x="984.8" y="388.1" class="st3" width="10.4" height="11.7"/>
<rect id="525" x="1027.2" y="388.1" class="st3" width="10.4" height="11.7"/>
<rect id="526" x="1037.6" y="388.1" class="st3" width="10.4" height="11.7"/>
<rect id="527" x="1027.2" y="363.3" class="st3" width="10.4" height="24.6"/>
<rect id="528" x="1037.6" y="363.3" class="st3" width="10.4" height="24.6"/>
<rect id="529" x="1027.2" y="338.4" class="st3" width="10.4" height="24.6"/>
<rect id="530" x="1037.6" y="338.4" class="st3" width="10.4" height="24.6"/>
<rect id="531" x="1027.2" y="313.5" class="st3" width="10.4" height="24.6"/>
<rect id="532" x="1037.6" y="313.5" class="st3" width="10.4" height="24.6"/>
<rect id="533" x="1027.2" y="288.6" class="st3" width="10.4" height="24.6"/>
<rect id="534" x="1037.6" y="288.6" class="st3" width="10.4" height="24.6"/>
<rect id="535" x="1027.2" y="263.7" class="st3" width="10.4" height="24.6"/>
<rect id="536" x="1037.6" y="263.7" class="st3" width="10.4" height="24.6"/>
<rect id="537" x="1027.2" y="238.8" class="st3" width="10.4" height="24.6"/>
<rect id="538" x="1037.6" y="238.8" class="st3" width="10.4" height="24.6"/>
<rect id="539" x="1027.2" y="213.9" class="st3" width="10.4" height="24.6"/>
<rect id="540" x="1037.6" y="213.9" class="st3" width="10.4" height="24.6"/>
<rect id="541" x="1027.2" y="190" class="st3" width="10.4" height="23.6"/>
<rect id="542" x="1037.6" y="190" class="st3" width="10.4" height="23.6"/>
<rect id="543" x="1027.2" y="177.7" class="st3" width="10.4" height="12"/>
<rect id="544" x="1037.6" y="177.7" class="st3" width="10.4" height="12"/>
<rect id="545" x="1079.9" y="177.7" class="st3" width="10.4" height="12"/>
<rect id="546" x="1090.4" y="177.7" class="st3" width="10.4" height="12"/>
<rect id="547" x="1079.9" y="189.7" class="st3" width="10.4" height="25.3"/>
<rect id="548" x="1090.4" y="189.7" class="st3" width="10.4" height="25.3"/>
<rect id="549" x="1079.9" y="214.8" class="st3" width="10.4" height="25.3"/>
<rect id="550" x="1090.4" y="214.8" class="st3" width="10.4" height="25.3"/>
<rect id="551" x="1079.9" y="239.8" class="st3" width="10.4" height="25.3"/>
<rect id="552" x="1090.4" y="239.8" class="st3" width="10.4" height="25.3"/>
<rect id="553" x="1079.9" y="264.9" class="st3" width="10.4" height="25.3"/>
<rect id="554" x="1090.4" y="264.9" class="st3" width="10.4" height="25.3"/>
<rect id="555" x="1079.9" y="289.9" class="st3" width="10.4" height="24.6"/>
<rect id="556" x="1090.4" y="289.9" class="st3" width="10.4" height="24.6"/>
<rect id="557" x="1079.9" y="314.3" class="st3" width="10.4" height="24.6"/>
<rect id="558" x="1090.4" y="314.3" class="st3" width="10.4" height="24.6"/>
<rect id="559" x="1079.9" y="338.7" class="st3" width="10.4" height="24.6"/>
<rect id="560" x="1090.4" y="338.7" class="st3" width="10.4" height="24.6"/>
<rect id="561" x="1079.9" y="363.1" class="st3" width="10.4" height="24.6"/>
<rect id="562" x="1090.4" y="363.1" class="st3" width="10.4" height="24.6"/>
<rect id="563" x="1079.9" y="387.7" class="st3" width="10.4" height="12.3"/>
<rect id="564" x="1090.4" y="387.7" class="st3" width="10.4" height="12.3"/>
<rect id="565" x="963.8" y="437.3" class="st7" width="10.4" height="12.3"/>
<rect id="566" x="974.3" y="437.3" class="st7" width="10.4" height="12.3"/>
<rect id="567" x="963.8" y="449.3" class="st7" width="10.4" height="12.3"/>
<rect id="568" x="974.3" y="449.3" class="st7" width="10.4" height="12.3"/>
<rect id="569" x="963.8" y="461.3" class="st7" width="10.4" height="12.3"/>
<rect id="570" x="974.3" y="461.3" class="st7" width="10.4" height="12.3"/>
<rect id="571" x="1005.8" y="461.9" class="st7" width="10.5" height="12.3"/>
<rect id="572" x="1005.8" y="449.6" class="st7" width="10.5" height="12.3"/>
<rect id="573" x="1005.8" y="437.3" class="st7" width="10.5" height="12.3"/>
<rect id="574" x="1037.6" y="437.3" class="st7" width="10.5" height="12.3"/>
<rect id="575" x="1048.1" y="437.3" class="st7" width="10.5" height="12.3"/>
<rect id="576" x="1037.6" y="449.6" class="st7" width="10.5" height="12.3"/>
<rect id="577" x="1048.1" y="449.6" class="st7" width="10.5" height="12.3"/>
<rect id="578" x="1037.6" y="461.9" class="st7" width="10.5" height="12.3"/>
<rect id="579" x="1048.1" y="461.9" class="st7" width="10.5" height="12.3"/>
<rect id="580" x="1090.2" y="461.9" class="st6" width="10.5" height="12.3"/>
<rect id="581" x="1090.2" y="449.6" class="st6" width="10.5" height="12.3"/>
<rect id="582" x="1090.2" y="437.3" class="st6" width="10.5" height="12.3"/>
<rect id="583" x="963.8" y="486.7" class="st7" width="21" height="61.9"/>
<rect id="584" x="995.3" y="515.8" class="st7" width="7.1" height="26.4"/>
<rect id="585" x="995.3" y="542.2" class="st7" width="21" height="6"/>
<rect id="586" x="1009.5" y="496.6" class="st7" width="6.8" height="45.5"/>
<rect id="587" x="995.3" y="486.8" class="st7" width="21" height="9.9"/>
<rect id="588" x="1037.6" y="486.5" class="st7" width="21.1" height="12.3"/>
<rect id="589" x="1037.6" y="498.9" class="st7" width="10.6" height="37.4"/>
<rect id="590" x="1048.1" y="498.9" class="st7" width="10.6" height="37.4"/>
<rect id="591" x="1037.6" y="536.2" class="st7" width="21.1" height="12"/>
<rect id="592" x="1090.2" y="486.6" class="st7" width="21.1" height="61.9"/>
<rect id="593" x="963.8" y="560.6" class="st7" width="21" height="61.9"/>
<rect id="594" x="995.3" y="560.6" class="st7" width="21" height="61.9"/>
<rect id="595" x="1037.6" y="560.7" class="st7" width="21.1" height="61.9"/>
<rect id="596" x="1090.2" y="560.7" class="st7" width="21.1" height="61.9"/>
</svg>
