<?xml version="1.0" encoding="utf-8"?>
<!-- Generator: Adobe Illustrator 24.2.3, SVG Export Plug-In . SVG Version: 6.00 Build 0)  -->
<svg version="1.1" id="Camada_2" xmlns="http://www.w3.org/2000/svg" xmlns:xlink="http://www.w3.org/1999/xlink" x="0px" y="0px"
	 viewBox="0 0 1191 842" style="enable-background:new 0 0 1191 842;" xml:space="preserve">
<style type="text/css">
	.st0{fill:none;stroke:#000000;stroke-width:2;stroke-miterlimit:10;}
	.st1{fill:none;stroke:#FFA192;stroke-width:2;stroke-miterlimit:10;}
	.st2{fill:none;stroke:#C9571F;stroke-width:2;stroke-miterlimit:10;}
	.st3{fill:none;stroke:#2DBAFF;stroke-width:2;stroke-miterlimit:10;}
	.st4{fill:none;stroke:#FF0000;stroke-width:2;stroke-miterlimit:10;}
	.st5{fill:none;stroke:#92D050;stroke-width:2;stroke-miterlimit:10;}
	.st6{fill:none;stroke:#69FCFF;stroke-width:2;stroke-miterlimit:10;}
	.st7{fill:none;stroke:#0070C0;stroke-width:2;stroke-miterlimit:10;}
	.st8{fill:none;stroke:#9999FF;stroke-width:2;stroke-miterlimit:10;}
	.st9{fill:none;stroke:#FFB000;stroke-width:2;stroke-miterlimit:10;}
	.st10{fill:none;stroke:#CC4891;stroke-width:2;stroke-miterlimit:10;}
</style>
<rect id="1" x="117.3" y="605.9" class="st0" width="10.2" height="89.2"/>
<rect id="2" x="87.1" y="680.3" class="st1" width="30.2" height="14.8"/>
<rect id="3" x="56.9" y="680.3" class="st1" width="30.2" height="14.8"/>
<rect id="4" x="26.7" y="680.3" class="st1" width="30.2" height="14.8"/>
<rect id="5" y="650.5" class="st1" width="17.8" height="22.1"/>
<rect id="6" y="617.1" class="st1" width="17.8" height="33.4"/>
<rect id="7" y="591.8" class="st1" width="17.8" height="25.3"/>
<rect id="8" y="566.5" class="st1" width="17.8" height="25.3"/>
<rect id="9" y="530.8" class="st1" width="17.8" height="35.7"/>
<rect id="10" y="495" class="st1" width="17.8" height="35.7"/>
<rect id="11" y="465.9" class="st1" width="17.8" height="29.1"/>
<rect id="12" y="436.8" class="st1" width="17.8" height="29.1"/>
<rect id="13" y="407.6" class="st1" width="17.8" height="29.1"/>
<rect id="14" y="378.5" class="st1" width="17.8" height="29.1"/>
<rect id="15" y="349.4" class="st1" width="17.8" height="29.1"/>
<rect id="16" x="43.3" y="309.2" transform="matrix(0.655 0.7556 -0.7556 0.655 264.1806 74.8033)" class="st0" width="13.7" height="35"/>
<rect id="17" x="337.9" y="74" transform="matrix(0.655 0.7556 -0.7556 0.655 185.7516 -230.0314)" class="st0" width="13.7" height="28.8"/>
<rect id="18" x="378.8" y="54.6" transform="matrix(-1.836970e-16 1 -1 -1.836970e-16 460.2638 -310.984)" class="st2" width="13.7" height="40.1"/>
<rect id="19" x="417.9" y="55.5" transform="matrix(-1.836970e-16 1 -1 -1.836970e-16 499.4603 -350.1805)" class="st2" width="13.7" height="38.3"/>
<rect id="20" x="457.1" y="54.7" transform="matrix(-1.836970e-16 1 -1 -1.836970e-16 538.5759 -389.2961)" class="st2" width="13.7" height="39.9"/>
<rect id="21" x="492.3" y="59.4" transform="matrix(-1.836970e-16 1 -1 -1.836970e-16 573.7697 -424.4899)" class="st2" width="13.7" height="30.5"/>
<rect id="22" x="527.5" y="54.7" transform="matrix(-1.836970e-16 1 -1 -1.836970e-16 608.981 -459.7013)" class="st2" width="13.7" height="40"/>
<rect id="23" x="561.5" y="60.6" transform="matrix(-1.836970e-16 1 -1 -1.836970e-16 643.0056 -493.7259)" class="st2" width="13.7" height="28.1"/>
<rect id="24" x="592.9" y="57.3" transform="matrix(-1.836970e-16 1 -1 -1.836970e-16 674.3865 -525.1068)" class="st2" width="13.7" height="34.7"/>
<rect id="25" x="622.4" y="62.4" transform="matrix(-1.836970e-16 1 -1 -1.836970e-16 703.9517 -554.6719)" class="st2" width="13.7" height="24.5"/>
<rect id="26" x="649.9" y="59.4" transform="matrix(-1.836970e-16 1 -1 -1.836970e-16 731.4283 -582.1486)" class="st2" width="13.7" height="30.5"/>
<rect id="27" x="685.1" y="54.7" transform="matrix(-1.836970e-16 1 -1 -1.836970e-16 766.6397 -617.3599)" class="st2" width="13.7" height="39.9"/>
<rect id="28" x="720.7" y="59" transform="matrix(-1.836970e-16 1 -1 -1.836970e-16 802.2194 -652.9398)" class="st3" width="13.7" height="31.2"/>
<rect id="29" x="751.9" y="59" transform="matrix(-1.836970e-16 1 -1 -1.836970e-16 833.453 -684.1733)" class="st3" width="13.7" height="31.2"/>
<rect id="30" x="783.2" y="59" transform="matrix(-1.836970e-16 1 -1 -1.836970e-16 864.6865 -715.4069)" class="st3" width="13.7" height="31.2"/>
<rect id="31" x="814.4" y="59" transform="matrix(-1.836970e-16 1 -1 -1.836970e-16 895.9201 -746.6404)" class="st3" width="13.7" height="31.2"/>
<rect id="32" x="840.2" y="64.5" transform="matrix(-1.836970e-16 1 -1 -1.836970e-16 921.7025 -772.4227)" class="st3" width="13.7" height="20.3"/>
<rect id="33" x="860.5" y="64.5" transform="matrix(-1.836970e-16 1 -1 -1.836970e-16 942.0338 -792.754)" class="st3" width="13.7" height="20.3"/>
<rect id="34" x="880.9" y="64.5" transform="matrix(-1.836970e-16 1 -1 -1.836970e-16 962.365 -813.0853)" class="st3" width="13.7" height="20.3"/>
<rect id="35" x="908.6" y="57.1" transform="matrix(-1.836970e-16 1 -1 -1.836970e-16 990.0963 -840.8165)" class="st3" width="13.7" height="35.1"/>
<rect id="36" x="939.1" y="61.7" transform="matrix(-1.836970e-16 1 -1 -1.836970e-16 1020.585 -871.3052)" class="st3" width="13.7" height="25.8"/>
<rect id="37" x="962.2" y="64.5" transform="matrix(-1.836970e-16 1 -1 -1.836970e-16 1043.6777 -894.398)" class="st3" width="13.7" height="20.3"/>
<rect id="38" x="982.5" y="64.5" transform="matrix(-1.836970e-16 1 -1 -1.836970e-16 1064.0172 -914.7375)" class="st3" width="13.7" height="20.3"/>
<rect id="39" x="1002.8" y="64.5" transform="matrix(-1.836970e-16 1 -1 -1.836970e-16 1084.3567 -935.077)" class="st3" width="13.7" height="20.3"/>
<rect id="40" x="1032.4" y="55.3" transform="matrix(-1.836970e-16 1 -1 -1.836970e-16 1113.8634 -964.5837)" class="st3" width="13.7" height="38.7"/>
<rect id="41" x="1071" y="55.3" transform="matrix(-1.836970e-16 1 -1 -1.836970e-16 1152.5372 -1003.2575)" class="st3" width="13.7" height="38.7"/>
<rect id="42" x="1103.3" y="61.7" transform="matrix(-1.836970e-16 1 -1 -1.836970e-16 1184.8417 -1035.5619)" class="st3" width="13.7" height="25.9"/>
<rect id="43" x="1126.3" y="64.7" transform="matrix(-1.836970e-16 1 -1 -1.836970e-16 1207.7687 -1058.489)" class="st3" width="13.7" height="19.9"/>
<rect id="44" x="1146.2" y="64.7" transform="matrix(-1.836970e-16 1 -1 -1.836970e-16 1227.6879 -1078.4081)" class="st3" width="13.7" height="19.9"/>
<rect id="45" x="1165.3" y="107.5" transform="matrix(-1.836970e-16 1 -1 -1.836970e-16 1288.3547 -1055.4626)" class="st3" width="13.2" height="17.8"/>
<rect id="46" x="1165.3" y="120.8" transform="matrix(-1.836970e-16 1 -1 -1.836970e-16 1301.5605 -1042.2568)" class="st3" width="13.2" height="17.8"/>
<rect id="47" x="1158.8" y="140.4" transform="matrix(-1.836970e-16 1 -1 -1.836970e-16 1321.2557 -1022.5616)" class="st3" width="26.2" height="17.8"/>
<rect id="48" x="1165.4" y="160.1" transform="matrix(-1.836970e-16 1 -1 -1.836970e-16 1340.894 -1002.9233)" class="st3" width="13.1" height="17.8"/>
<rect id="49" x="1165.4" y="173.2" transform="matrix(-1.836970e-16 1 -1 -1.836970e-16 1353.9863 -989.8311)" class="st3" width="13.1" height="17.8"/>
<rect id="50" x="1165.4" y="186.3" transform="matrix(-1.836970e-16 1 -1 -1.836970e-16 1367.0785 -976.7388)" class="st3" width="13.1" height="17.8"/>
<rect id="51" x="1165.4" y="199.4" transform="matrix(-1.836970e-16 1 -1 -1.836970e-16 1380.1708 -963.6465)" class="st3" width="13.1" height="17.8"/>
<rect id="52" x="1165.4" y="212.5" transform="matrix(-1.836970e-16 1 -1 -1.836970e-16 1393.2629 -950.5543)" class="st3" width="13.1" height="17.8"/>
<rect id="53" x="1163.7" y="227.2" transform="matrix(-1.836970e-16 1 -1 -1.836970e-16 1408.0358 -935.7815)" class="st3" width="16.5" height="17.8"/>
<rect id="54" x="1165.3" y="242.1" transform="matrix(-1.836970e-16 1 -1 -1.836970e-16 1422.8921 -920.9252)" class="st3" width="13.3" height="17.8"/>
<rect id="55" x="1152.3" y="268.3" transform="matrix(-1.836970e-16 1 -1 -1.836970e-16 1449.1165 -894.7007)" class="st3" width="39.2" height="17.8"/>
<rect id="56" x="1165.6" y="320.8" transform="matrix(-1.836970e-16 1 -1 -1.836970e-16 1501.5653 -842.252)" class="st3" width="12.7" height="17.8"/>
<rect id="57" x="1165.3" y="333.7" transform="matrix(-1.836970e-16 1 -1 -1.836970e-16 1514.4932 -829.3241)" class="st3" width="13.2" height="17.8"/>
<rect id="58" x="1165.3" y="346.9" transform="matrix(-1.836970e-16 1 -1 -1.836970e-16 1527.6791 -816.1382)" class="st3" width="13.2" height="17.8"/>
<rect id="59" x="1165.3" y="360.1" transform="matrix(-1.836970e-16 1 -1 -1.836970e-16 1540.8649 -802.9523)" class="st3" width="13.2" height="17.8"/>
<rect id="60" x="1165.3" y="373.2" transform="matrix(-1.836970e-16 1 -1 -1.836970e-16 1554.0508 -789.7664)" class="st3" width="13.2" height="17.8"/>
<rect id="61" x="1164.7" y="413.3" transform="matrix(-1.836970e-16 1 -1 -1.836970e-16 1594.0963 -749.7209)" class="st4" width="14.4" height="17.8"/>
<rect id="62" x="1164.7" y="427.7" transform="matrix(-1.836970e-16 1 -1 -1.836970e-16 1608.5162 -735.301)" class="st4" width="14.4" height="17.8"/>
<rect id="63" x="1165.3" y="441.6" transform="matrix(-1.836970e-16 1 -1 -1.836970e-16 1622.3739 -721.4434)" class="st4" width="13.3" height="17.8"/>
<rect id="64" x="1165.3" y="454.9" transform="matrix(-1.836970e-16 1 -1 -1.836970e-16 1635.6696 -708.1478)" class="st4" width="13.3" height="17.8"/>
<rect id="65" x="1164.9" y="468.5" transform="matrix(-1.836970e-16 1 -1 -1.836970e-16 1649.2949 -694.5224)" class="st4" width="14" height="17.8"/>
<rect id="66" x="1163.8" y="483.6" transform="matrix(-1.836970e-16 1 -1 -1.836970e-16 1664.369 -679.4482)" class="st4" width="16.2" height="17.8"/>
<rect id="67" x="1112.7" y="550.9" transform="matrix(-1.836970e-16 1 -1 -1.836970e-16 1731.6917 -612.1256)" class="st4" width="118.5" height="17.8"/>
<rect id="68" x="1164.1" y="646.6" transform="matrix(-1.836970e-16 1 -1 -1.836970e-16 1827.399 -516.4183)" class="st3" width="15.7" height="17.8"/>
<rect id="69" x="1163.5" y="662.8" transform="matrix(-1.836970e-16 1 -1 -1.836970e-16 1843.6294 -500.1879)" class="st3" width="16.8" height="17.8"/>
<rect id="70" x="1136.9" y="676.3" transform="matrix(-1.836970e-16 1 -1 -1.836970e-16 1832.0408 -456.5855)" class="st3" width="14.9" height="22.9"/>
<rect id="71" x="1114.5" y="676.8" transform="matrix(-1.836970e-16 1 -1 -1.836970e-16 1809.6891 -434.2339)" class="st3" width="14.9" height="21.8"/>
<rect id="72" x="1088.5" y="672.6" transform="matrix(-1.836970e-16 1 -1 -1.836970e-16 1783.6857 -408.2305)" class="st3" width="14.9" height="30.2"/>
<rect id="73" x="1063.2" y="677.5" transform="matrix(-1.836970e-16 1 -1 -1.836970e-16 1758.3973 -382.9421)" class="st3" width="14.9" height="20.4"/>
<rect id="74" x="1042.8" y="677.5" transform="matrix(-1.836970e-16 1 -1 -1.836970e-16 1737.9924 -362.5372)" class="st3" width="14.9" height="20.4"/>
<rect id="75" x="1022.4" y="677.5" transform="matrix(-1.836970e-16 1 -1 -1.836970e-16 1717.5875 -342.1323)" class="st3" width="14.9" height="20.4"/>
<rect id="76" x="1002" y="677.5" transform="matrix(-1.836970e-16 1 -1 -1.836970e-16 1697.1826 -321.7274)" class="st3" width="14.9" height="20.4"/>
<rect id="77" x="981.6" y="677.5" transform="matrix(-1.836970e-16 1 -1 -1.836970e-16 1676.7777 -301.3225)" class="st3" width="14.9" height="20.4"/>
<rect id="78" x="956.4" y="672.7" transform="matrix(-1.836970e-16 1 -1 -1.836970e-16 1651.511 -276.0557)" class="st3" width="14.9" height="30.1"/>
<rect id="79" x="926" y="672.5" transform="matrix(-1.836970e-16 1 -1 -1.836970e-16 1621.1981 -245.7429)" class="st3" width="14.9" height="30.5"/>
<rect id="80" x="895.5" y="672.5" transform="matrix(-1.836970e-16 1 -1 -1.836970e-16 1590.7012 -215.246)" class="st3" width="14.9" height="30.5"/>
<rect id="81" x="865" y="672.5" transform="matrix(-1.836970e-16 1 -1 -1.836970e-16 1560.2042 -184.749)" class="st3" width="14.9" height="30.5"/>
<rect id="82" x="839.6" y="677.6" transform="matrix(-1.836970e-16 1 -1 -1.836970e-16 1534.7902 -159.3349)" class="st5" width="14.9" height="20.3"/>
<rect id="83" x="819.3" y="677.6" transform="matrix(-1.836970e-16 1 -1 -1.836970e-16 1514.459 -139.0038)" class="st5" width="14.9" height="20.3"/>
<rect id="84" x="799" y="677.6" transform="matrix(-1.836970e-16 1 -1 -1.836970e-16 1494.1278 -118.6726)" class="st5" width="14.9" height="20.3"/>
<rect id="85" x="778.7" y="677.6" transform="matrix(-1.836970e-16 1 -1 -1.836970e-16 1473.8472 -98.3919)" class="st5" width="14.9" height="20.3"/>
<rect id="86" x="756.1" y="662.7" transform="matrix(-1.836970e-16 1 -1 -1.836970e-16 1428.4891 -92.9449)" class="st3" width="9.3" height="10.2"/>
<rect id="87" x="753" y="650.3" transform="matrix(-1.836970e-16 1 -1 -1.836970e-16 1416.1158 -105.3181)" class="st3" width="15.5" height="10.2"/>
<rect id="88" x="753" y="634.8" transform="matrix(-1.836970e-16 1 -1 -1.836970e-16 1400.6465 -120.7875)" class="st3" width="15.5" height="10.2"/>
<rect id="89" x="754.1" y="620.5" transform="matrix(-1.836970e-16 1 -1 -1.836970e-16 1386.3433 -135.0907)" class="st3" width="13.1" height="10.2"/>
<rect id="90" x="754.1" y="607.4" transform="matrix(-1.836970e-16 1 -1 -1.836970e-16 1373.2065 -148.2274)" class="st3" width="13.1" height="10.2"/>
<rect id="91" x="754.1" y="594.3" transform="matrix(-1.836970e-16 1 -1 -1.836970e-16 1360.0698 -161.3642)" class="st3" width="13.1" height="10.2"/>
<rect id="92" x="200.7" y="630.8" transform="matrix(-1.836970e-16 1 -1 -1.836970e-16 880.1385 406.4318)" class="st0" width="72.3" height="25"/>
<rect id="93" x="231.5" y="630.8" transform="matrix(-1.836970e-16 1 -1 -1.836970e-16 910.9913 375.5791)" class="st0" width="72.3" height="25"/>
<rect id="94" x="262.4" y="630.8" transform="matrix(-1.836970e-16 1 -1 -1.836970e-16 941.8441 344.7263)" class="st0" width="72.3" height="25"/>
<rect id="95" x="293.2" y="630.8" transform="matrix(-1.836970e-16 1 -1 -1.836970e-16 972.6968 313.8735)" class="st0" width="72.3" height="25"/>
<rect id="96" x="324.1" y="630.8" transform="matrix(-1.836970e-16 1 -1 -1.836970e-16 1003.5496 283.0208)" class="st0" width="72.3" height="25"/>
<rect id="97" x="354.9" y="630.8" transform="matrix(-1.836970e-16 1 -1 -1.836970e-16 1034.4023 252.168)" class="st0" width="72.3" height="25"/>
<rect id="98" x="385.8" y="630.8" transform="matrix(-1.836970e-16 1 -1 -1.836970e-16 1065.2551 221.3153)" class="st0" width="72.3" height="25"/>
<rect id="99" x="416.7" y="630.8" transform="matrix(-1.836970e-16 1 -1 -1.836970e-16 1096.1079 190.4625)" class="st0" width="72.3" height="25"/>
<rect id="100" x="447.5" y="630.8" transform="matrix(-1.836970e-16 1 -1 -1.836970e-16 1126.9606 159.6097)" class="st0" width="72.3" height="25"/>
<rect id="101" x="472.5" y="630.8" transform="matrix(-1.836970e-16 1 -1 -1.836970e-16 1151.942 134.6284)" class="st0" width="72.3" height="25"/>
<rect id="102" x="476.5" y="587.5" transform="matrix(-1.836970e-16 1 -1 -1.836970e-16 1083.6256 116.2744)" class="st0" width="14.3" height="25"/>
<rect id="103" x="501.5" y="587.5" transform="matrix(-1.836970e-16 1 -1 -1.836970e-16 1108.6071 91.2931)" class="st0" width="14.3" height="25"/>
<rect id="104" x="489" y="560.6" transform="matrix(-1.836970e-16 1 -1 -1.836970e-16 1081.7847 89.4523)" class="st0" width="14.3" height="50"/>
<rect id="105" x="642" y="587.5" transform="matrix(-1.836970e-16 1 -1 -1.836970e-16 1249.0822 -49.1821)" class="st0" width="14.3" height="25"/>
<rect id="106" x="666.9" y="587.5" transform="matrix(-1.836970e-16 1 -1 -1.836970e-16 1274.0635 -74.1634)" class="st0" width="14.3" height="25"/>
<rect id="107" x="654.5" y="560.6" transform="matrix(-1.836970e-16 1 -1 -1.836970e-16 1247.2411 -76.0042)" class="st0" width="14.3" height="50"/>
<rect id="108" x="697.3" y="587.5" transform="matrix(-1.836970e-16 1 -1 -1.836970e-16 1304.4348 -104.5347)" class="st0" width="14.3" height="25"/>
<rect id="109" x="722.3" y="587.5" transform="matrix(-1.836970e-16 1 -1 -1.836970e-16 1329.4161 -129.5161)" class="st0" width="14.3" height="25"/>
<rect id="110" x="709.8" y="560.6" transform="matrix(-1.836970e-16 1 -1 -1.836970e-16 1302.5938 -131.3568)" class="st0" width="14.3" height="50"/>
<rect id="111" x="439.4" y="593.7" transform="matrix(-1.836970e-16 1 -1 -1.836970e-16 1046.5275 153.3729)" class="st0" width="14.3" height="12.5"/>
<rect id="112" x="451.9" y="593.7" transform="matrix(-1.836970e-16 1 -1 -1.836970e-16 1059.0181 140.8822)" class="st0" width="14.3" height="12.5"/>
<rect id="113" x="445.7" y="573.1" transform="matrix(-1.836970e-16 1 -1 -1.836970e-16 1038.441 132.796)" class="st0" width="14.3" height="25"/>
<rect id="114" x="377.7" y="593.7" transform="matrix(-1.836970e-16 1 -1 -1.836970e-16 984.8221 215.0782)" class="st0" width="14.3" height="12.5"/>
<rect id="115" x="390.2" y="593.7" transform="matrix(-1.836970e-16 1 -1 -1.836970e-16 997.3127 202.5876)" class="st0" width="14.3" height="12.5"/>
<rect id="116" x="384" y="573.1" transform="matrix(-1.836970e-16 1 -1 -1.836970e-16 976.7357 194.5014)" class="st0" width="14.3" height="25"/>
<rect id="117" x="502.7" y="630.8" transform="matrix(-1.836970e-16 1 -1 -1.836970e-16 1182.163 104.4074)" class="st0" width="72.3" height="25"/>
<rect id="118" x="527.7" y="630.8" transform="matrix(-1.836970e-16 1 -1 -1.836970e-16 1207.1443 79.4261)" class="st0" width="72.3" height="25"/>
<rect id="119" x="557.9" y="630.8" transform="matrix(-1.836970e-16 1 -1 -1.836970e-16 1237.3652 49.2051)" class="st0" width="72.3" height="25"/>
<rect id="120" x="582.9" y="630.8" transform="matrix(-1.836970e-16 1 -1 -1.836970e-16 1262.3466 24.2238)" class="st0" width="72.3" height="25"/>
<rect id="121" x="613.1" y="630.8" transform="matrix(-1.836970e-16 1 -1 -1.836970e-16 1292.5675 -5.9972)" class="st0" width="72.3" height="25"/>
<rect id="122" x="638.1" y="630.8" transform="matrix(-1.836970e-16 1 -1 -1.836970e-16 1317.5488 -30.9785)" class="st0" width="72.3" height="25"/>
<rect id="123" x="668.3" y="630.8" transform="matrix(-1.836970e-16 1 -1 -1.836970e-16 1347.7698 -61.1995)" class="st0" width="72.3" height="25"/>
<rect id="124" x="693.3" y="630.8" transform="matrix(-1.836970e-16 1 -1 -1.836970e-16 1372.7512 -86.1808)" class="st0" width="72.3" height="25"/>
<rect id="125" x="160.1" y="642.2" transform="matrix(-1.836970e-16 1 -1 -1.836970e-16 855.2585 445.8156)" class="st0" width="89.3" height="16.6"/>
<rect id="126" x="128.7" y="515.5" transform="matrix(-1.836970e-16 1 -1 -1.836970e-16 658.4559 387.9617)" class="st1" width="13" height="15.3"/>
<rect id="127" x="144" y="515.5" transform="matrix(-1.836970e-16 1 -1 -1.836970e-16 673.7781 372.6396)" class="st1" width="13" height="15.3"/>
<rect id="128" x="127.2" y="501" transform="matrix(-1.836970e-16 1 -1 -1.836970e-16 643.8705 373.3762)" class="st1" width="16.1" height="15.3"/>
<rect id="129" x="127.2" y="484.8" transform="matrix(-1.836970e-16 1 -1 -1.836970e-16 627.738 357.2438)" class="st1" width="16.1" height="15.3"/>
<rect id="130" x="134.4" y="492.9" transform="matrix(-1.836970e-16 1 -1 -1.836970e-16 651.1264 349.9879)" class="st1" width="32.3" height="15.3"/>
<rect id="131" x="128.4" y="469.9" transform="matrix(-1.836970e-16 1 -1 -1.836970e-16 612.8395 342.3452)" class="st1" width="13.7" height="15.3"/>
<rect id="132" x="128.4" y="456.3" transform="matrix(-1.836970e-16 1 -1 -1.836970e-16 599.1749 328.6805)" class="st1" width="13.7" height="15.3"/>
<rect id="133" x="136.9" y="463.1" transform="matrix(-1.836970e-16 1 -1 -1.836970e-16 621.3293 320.1907)" class="st1" width="27.3" height="15.3"/>
<rect id="134" x="121.6" y="435.8" transform="matrix(-1.836970e-16 1 -1 -1.836970e-16 578.6778 308.1834)" class="st1" width="27.3" height="15.3"/>
<rect id="135" x="136.9" y="435.8" transform="matrix(-1.836970e-16 1 -1 -1.836970e-16 593.9999 292.8613)" class="st1" width="27.3" height="15.3"/>
<rect id="136" x="121.6" y="408.4" transform="matrix(-1.836970e-16 1 -1 -1.836970e-16 551.3484 280.8541)" class="st1" width="27.3" height="15.3"/>
<rect id="137" x="136.9" y="408.4" transform="matrix(-1.836970e-16 1 -1 -1.836970e-16 566.6705 265.532)" class="st1" width="27.3" height="15.3"/>
<rect id="138" x="121.6" y="381.1" transform="matrix(-1.836970e-16 1 -1 -1.836970e-16 524.0191 253.5247)" class="st1" width="27.3" height="15.3"/>
<rect id="139" x="136.9" y="381.1" transform="matrix(-1.836970e-16 1 -1 -1.836970e-16 539.3412 238.2026)" class="st1" width="27.3" height="15.3"/>
<rect id="140" x="122.4" y="354.6" transform="matrix(-1.836970e-16 1 -1 -1.836970e-16 497.5419 227.0475)" class="st1" width="25.6" height="15.3"/>
<rect id="141" x="137.8" y="354.6" transform="matrix(-1.836970e-16 1 -1 -1.836970e-16 512.864 211.7254)" class="st1" width="25.6" height="15.3"/>
<rect id="142" x="128.6" y="335.1" transform="matrix(-1.836970e-16 1 -1 -1.836970e-16 478.0579 207.5632)" class="st1" width="13.3" height="15.3"/>
<rect id="143" x="143.9" y="335.1" transform="matrix(-1.836970e-16 1 -1 -1.836970e-16 493.38 192.2411)" class="st1" width="13.3" height="15.3"/>
<rect id="144" x="208.8" y="282.8" transform="matrix(-1.836970e-16 1 -1 -1.836970e-16 505.864 75.0176)" class="st1" width="13.3" height="15.3"/>
<rect id="145" x="224.1" y="282.8" transform="matrix(-1.836970e-16 1 -1 -1.836970e-16 521.1861 59.6955)" class="st6" width="13.3" height="15.3"/>
<rect id="146" x="202.4" y="302.5" transform="matrix(-1.836970e-16 1 -1 -1.836970e-16 525.5662 94.7206)" class="st1" width="26.1" height="15.3"/>
<rect id="147" x="217.7" y="302.5" transform="matrix(-1.836970e-16 1 -1 -1.836970e-16 540.8884 79.3984)" class="st6" width="26.1" height="15.3"/>
<rect id="148" x="202.4" y="328.5" transform="matrix(-1.836970e-16 1 -1 -1.836970e-16 551.6281 120.7824)" class="st1" width="26.1" height="15.3"/>
<rect id="149" x="217.7" y="328.5" transform="matrix(-1.836970e-16 1 -1 -1.836970e-16 566.9502 105.4603)" class="st6" width="26.1" height="15.3"/>
<rect id="150" x="202.4" y="354.6" transform="matrix(-1.836970e-16 1 -1 -1.836970e-16 577.6899 146.8442)" class="st1" width="26.1" height="15.3"/>
<rect id="151" x="217.7" y="354.6" transform="matrix(-1.836970e-16 1 -1 -1.836970e-16 593.012 131.5221)" class="st6" width="26.1" height="15.3"/>
<rect id="152" x="202.4" y="380.7" transform="matrix(-1.836970e-16 1 -1 -1.836970e-16 603.7517 172.9061)" class="st1" width="26.1" height="15.3"/>
<rect id="153" x="217.7" y="380.7" transform="matrix(-1.836970e-16 1 -1 -1.836970e-16 619.0739 157.584)" class="st6" width="26.1" height="15.3"/>
<rect id="154" x="201.3" y="407.8" transform="matrix(-1.836970e-16 1 -1 -1.836970e-16 630.8752 200.0295)" class="st1" width="28.2" height="15.3"/>
<rect id="155" x="224" y="400.4" transform="matrix(-1.836970e-16 1 -1 -1.836970e-16 638.8309 177.341)" class="st6" width="13.5" height="15.3"/>
<rect id="156" x="223.4" y="414.5" transform="matrix(-1.836970e-16 1 -1 -1.836970e-16 652.9236 191.4337)" class="st6" width="14.7" height="15.3"/>
<rect id="157" x="201.6" y="435.7" transform="matrix(-1.836970e-16 1 -1 -1.836970e-16 658.743 227.8973)" class="st1" width="27.6" height="15.3"/>
<rect id="158" x="217" y="435.7" transform="matrix(-1.836970e-16 1 -1 -1.836970e-16 674.0651 212.5752)" class="st6" width="27.6" height="15.3"/>
<rect id="159" x="201.6" y="463.1" transform="matrix(-1.836970e-16 1 -1 -1.836970e-16 686.1829 255.3372)" class="st1" width="27.6" height="15.3"/>
<rect id="160" x="217" y="463.1" transform="matrix(-1.836970e-16 1 -1 -1.836970e-16 701.5049 240.0151)" class="st6" width="27.6" height="15.3"/>
<rect id="161" x="199.4" y="492.8" transform="matrix(-1.836970e-16 1 -1 -1.836970e-16 715.9185 285.0729)" class="st1" width="32.1" height="15.3"/>
<rect id="162" x="214.7" y="492.8" transform="matrix(-1.836970e-16 1 -1 -1.836970e-16 731.2406 269.7508)" class="st6" width="32.1" height="15.3"/>
<rect id="163" x="208.6" y="515.6" transform="matrix(-1.836970e-16 1 -1 -1.836970e-16 738.7242 307.8784)" class="st1" width="13.7" height="15.3"/>
<rect id="164" x="223.9" y="515.6" transform="matrix(-1.836970e-16 1 -1 -1.836970e-16 754.0463 292.5562)" class="st6" width="13.7" height="15.3"/>
<rect id="165" x="288.3" y="515.6" transform="matrix(-1.836970e-16 1 -1 -1.836970e-16 818.4644 228.1382)" class="st6" width="13.7" height="15.3"/>
<rect id="166" x="303.6" y="515.6" transform="matrix(-1.836970e-16 1 -1 -1.836970e-16 833.7865 212.816)" class="st7" width="13.7" height="15.3"/>
<rect id="167" x="287.1" y="500.9" transform="matrix(-1.836970e-16 1 -1 -1.836970e-16 803.7557 213.4295)" class="st6" width="16.2" height="15.3"/>
<rect id="168" x="287.1" y="484.8" transform="matrix(-1.836970e-16 1 -1 -1.836970e-16 787.6541 197.3278)" class="st6" width="16.2" height="15.3"/>
<rect id="169" x="294.4" y="492.8" transform="matrix(-1.836970e-16 1 -1 -1.836970e-16 810.9656 189.9951)" class="st7" width="32.2" height="15.3"/>
<rect id="170" x="288.3" y="469.9" transform="matrix(-1.836970e-16 1 -1 -1.836970e-16 772.6853 182.359)" class="st6" width="13.7" height="15.3"/>
<rect id="171" x="288.3" y="456.2" transform="matrix(-1.836970e-16 1 -1 -1.836970e-16 759.0198 168.6935)" class="st6" width="13.7" height="15.3"/>
<rect id="172" x="296.8" y="463" transform="matrix(-1.836970e-16 1 -1 -1.836970e-16 781.1225 160.152)" class="st7" width="27.3" height="15.3"/>
<rect id="173" x="288.7" y="442.9" transform="matrix(-1.836970e-16 1 -1 -1.836970e-16 745.716 155.3897)" class="st6" width="12.9" height="15.3"/>
<rect id="174" x="304.1" y="442.9" transform="matrix(-1.836970e-16 1 -1 -1.836970e-16 761.0381 140.0676)" class="st7" width="12.9" height="15.3"/>
<rect id="175" x="287.8" y="429.1" transform="matrix(-1.836970e-16 1 -1 -1.836970e-16 731.9224 141.5962)" class="st6" width="14.7" height="15.3"/>
<rect id="176" x="303.1" y="429.1" transform="matrix(-1.836970e-16 1 -1 -1.836970e-16 747.2445 126.2741)" class="st7" width="14.7" height="15.3"/>
<rect id="177" x="287.8" y="414.5" transform="matrix(-1.836970e-16 1 -1 -1.836970e-16 717.3417 127.0155)" class="st6" width="14.7" height="15.3"/>
<rect id="178" x="303.1" y="414.5" transform="matrix(-1.836970e-16 1 -1 -1.836970e-16 732.6638 111.6934)" class="st7" width="14.7" height="15.3"/>
<rect id="179" x="288.6" y="400.7" transform="matrix(-1.836970e-16 1 -1 -1.836970e-16 703.5239 113.1977)" class="st6" width="13.2" height="15.3"/>
<rect id="180" x="303.9" y="400.7" transform="matrix(-1.836970e-16 1 -1 -1.836970e-16 718.846 97.8756)" class="st7" width="13.2" height="15.3"/>
<rect id="181" x="288.6" y="387.6" transform="matrix(-1.836970e-16 1 -1 -1.836970e-16 690.4543 100.1281)" class="st6" width="13.2" height="15.3"/>
<rect id="182" x="303.9" y="387.6" transform="matrix(-1.836970e-16 1 -1 -1.836970e-16 705.7764 84.806)" class="st7" width="13.2" height="15.3"/>
<rect id="183" x="288.6" y="374.6" transform="matrix(-1.836970e-16 1 -1 -1.836970e-16 677.3847 87.0585)" class="st6" width="13.2" height="15.3"/>
<rect id="184" x="303.9" y="374.6" transform="matrix(-1.836970e-16 1 -1 -1.836970e-16 692.7068 71.7364)" class="st7" width="13.2" height="15.3"/>
<rect id="185" x="288.6" y="361.5" transform="matrix(-1.836970e-16 1 -1 -1.836970e-16 664.3298 74.0036)" class="st6" width="13.2" height="15.3"/>
<rect id="186" x="288.6" y="348.2" transform="matrix(-1.836970e-16 1 -1 -1.836970e-16 650.9979 60.6716)" class="st6" width="13.2" height="15.3"/>
<rect id="187" x="297.3" y="354.8" transform="matrix(-1.836970e-16 1 -1 -1.836970e-16 672.9147 51.9443)" class="st7" width="26.4" height="15.3"/>
<rect id="188" x="288.6" y="335" transform="matrix(-1.836970e-16 1 -1 -1.836970e-16 637.8026 47.4763)" class="st6" width="13.2" height="15.3"/>
<rect id="189" x="303.9" y="335" transform="matrix(-1.836970e-16 1 -1 -1.836970e-16 653.1246 32.1542)" class="st7" width="13.2" height="15.3"/>
<rect id="190" x="288.6" y="322.1" transform="matrix(-1.836970e-16 1 -1 -1.836970e-16 624.934 34.6078)" class="st6" width="13.2" height="15.3"/>
<rect id="191" x="303.9" y="322.1" transform="matrix(-1.836970e-16 1 -1 -1.836970e-16 640.256 19.2857)" class="st7" width="13.2" height="15.3"/>
<rect id="192" x="288.6" y="309.2" transform="matrix(-1.836970e-16 1 -1 -1.836970e-16 612.0654 21.7392)" class="st6" width="13.2" height="15.3"/>
<rect id="193" x="303.9" y="309.2" transform="matrix(-1.836970e-16 1 -1 -1.836970e-16 627.3875 6.4171)" class="st6" width="13.2" height="15.3"/>
<rect id="194" x="288.6" y="296.4" transform="matrix(-1.836970e-16 1 -1 -1.836970e-16 599.1968 8.8706)" class="st6" width="13.2" height="15.3"/>
<rect id="195" x="303.9" y="296.4" transform="matrix(-1.836970e-16 1 -1 -1.836970e-16 614.5189 -6.4515)" class="st6" width="13.2" height="15.3"/>
<rect id="196" x="288.1" y="283.1" transform="matrix(-1.836970e-16 1 -1 -1.836970e-16 585.9017 -4.4245)" class="st6" width="14" height="15.3"/>
<rect id="197" x="303.5" y="283.1" transform="matrix(-1.836970e-16 1 -1 -1.836970e-16 601.2238 -19.7466)" class="st6" width="14" height="15.3"/>
<rect id="198" x="288.4" y="269.7" transform="matrix(-1.836970e-16 1 -1 -1.836970e-16 572.5031 -17.8231)" class="st6" width="13.4" height="15.3"/>
<rect id="199" x="303.8" y="269.7" transform="matrix(-1.836970e-16 1 -1 -1.836970e-16 587.8252 -33.1452)" class="st6" width="13.4" height="15.3"/>
<rect id="200" x="288.4" y="256.6" transform="matrix(-1.836970e-16 1 -1 -1.836970e-16 559.392 -30.9342)" class="st6" width="13.4" height="15.3"/>
<rect id="201" x="303.8" y="256.6" transform="matrix(-1.836970e-16 1 -1 -1.836970e-16 574.7141 -46.2563)" class="st6" width="13.4" height="15.3"/>
<rect id="202" x="288.4" y="243.5" transform="matrix(-1.836970e-16 1 -1 -1.836970e-16 546.2809 -44.0453)" class="st6" width="13.4" height="15.3"/>
<rect id="203" x="303.8" y="243.5" transform="matrix(-1.836970e-16 1 -1 -1.836970e-16 561.603 -59.3674)" class="st6" width="13.4" height="15.3"/>
<rect id="204" x="286.7" y="228.6" transform="matrix(-1.836970e-16 1 -1 -1.836970e-16 531.4533 -58.8727)" class="st6" width="16.9" height="15.3"/>
<rect id="205" x="302" y="228.6" transform="matrix(-1.836970e-16 1 -1 -1.836970e-16 546.7754 -74.1947)" class="st6" width="16.9" height="15.3"/>
<rect id="206" x="288.6" y="213.6" transform="matrix(-1.836970e-16 1 -1 -1.836970e-16 516.4604 -73.8658)" class="st6" width="13.1" height="15.3"/>
<rect id="207" x="303.9" y="213.6" transform="matrix(-1.836970e-16 1 -1 -1.836970e-16 531.7825 -89.1878)" class="st6" width="13.1" height="15.3"/>
<rect id="208" x="366.9" y="161.4" transform="matrix(-1.836970e-16 1 -1 -1.836970e-16 542.5704 -204.4153)" class="st7" width="13.1" height="15.3"/>
<rect id="209" x="382.3" y="161.4" transform="matrix(-1.836970e-16 1 -1 -1.836970e-16 557.8925 -219.7374)" class="st8" width="13.1" height="15.3"/>
<rect id="210" x="366.9" y="174.5" transform="matrix(-1.836970e-16 1 -1 -1.836970e-16 555.6815 -191.3041)" class="st7" width="13.1" height="15.3"/>
<rect id="211" x="382.3" y="174.5" transform="matrix(-1.836970e-16 1 -1 -1.836970e-16 571.0036 -206.6262)" class="st8" width="13.1" height="15.3"/>
<rect id="212" x="360.5" y="194.1" transform="matrix(-1.836970e-16 1 -1 -1.836970e-16 575.2357 -171.7491)" class="st7" width="26" height="15.3"/>
<rect id="213" x="375.8" y="194.1" transform="matrix(-1.836970e-16 1 -1 -1.836970e-16 590.5577 -187.0712)" class="st8" width="26" height="15.3"/>
<rect id="214" x="358.7" y="221.9" transform="matrix(-1.836970e-16 1 -1 -1.836970e-16 603.0963 -143.8884)" class="st7" width="29.5" height="15.3"/>
<rect id="215" x="374.1" y="221.9" transform="matrix(-1.836970e-16 1 -1 -1.836970e-16 618.4183 -159.2105)" class="st8" width="29.5" height="15.3"/>
<rect id="216" x="360.4" y="249.9" transform="matrix(-1.836970e-16 1 -1 -1.836970e-16 631.0143 -115.9705)" class="st7" width="26.1" height="15.3"/>
<rect id="217" x="382.3" y="243.3" transform="matrix(-1.836970e-16 1 -1 -1.836970e-16 639.8083 -137.8206)" class="st8" width="13.1" height="15.3"/>
<rect id="218" x="382.3" y="256.5" transform="matrix(-1.836970e-16 1 -1 -1.836970e-16 652.9766 -124.6523)" class="st8" width="13.1" height="15.3"/>
<rect id="219" x="360.4" y="276" transform="matrix(-1.836970e-16 1 -1 -1.836970e-16 657.1516 -89.8332)" class="st7" width="26.1" height="15.3"/>
<rect id="220" x="382.3" y="269.5" transform="matrix(-1.836970e-16 1 -1 -1.836970e-16 665.9456 -111.6833)" class="st8" width="13.1" height="15.3"/>
<rect id="221" x="382.3" y="282.6" transform="matrix(-1.836970e-16 1 -1 -1.836970e-16 679.1139 -98.515)" class="st8" width="13.1" height="15.3"/>
<rect id="222" x="360.3" y="302.2" transform="matrix(-1.836970e-16 1 -1 -1.836970e-16 683.376 -63.6087)" class="st7" width="26.3" height="15.3"/>
<rect id="223" x="375.7" y="302.2" transform="matrix(-1.836970e-16 1 -1 -1.836970e-16 698.6981 -78.9308)" class="st8" width="26.3" height="15.3"/>
<rect id="224" x="360.3" y="328.4" transform="matrix(-1.836970e-16 1 -1 -1.836970e-16 709.5352 -37.4496)" class="st7" width="26.3" height="15.3"/>
<rect id="225" x="375.7" y="328.4" transform="matrix(-1.836970e-16 1 -1 -1.836970e-16 724.8572 -52.7716)" class="st8" width="26.3" height="15.3"/>
<rect id="226" x="360.3" y="354.8" transform="matrix(-1.836970e-16 1 -1 -1.836970e-16 735.9219 -11.0629)" class="st7" width="26.3" height="15.3"/>
<rect id="227" x="382.3" y="348.2" transform="matrix(-1.836970e-16 1 -1 -1.836970e-16 744.6393 -32.9896)" class="st8" width="13.1" height="15.3"/>
<rect id="228" x="382.3" y="361.2" transform="matrix(-1.836970e-16 1 -1 -1.836970e-16 757.7164 -19.9124)" class="st8" width="13.1" height="15.3"/>
<rect id="229" x="360.3" y="380.9" transform="matrix(-1.836970e-16 1 -1 -1.836970e-16 762.0761 15.0914)" class="st7" width="26.3" height="15.3"/>
<rect id="230" x="382.3" y="374.3" transform="matrix(-1.836970e-16 1 -1 -1.836970e-16 770.7935 -6.8353)" class="st8" width="13.1" height="15.3"/>
<rect id="231" x="382.3" y="387.4" transform="matrix(-1.836970e-16 1 -1 -1.836970e-16 783.8707 6.2418)" class="st8" width="13.1" height="15.3"/>
<rect id="232" x="359.6" y="407.9" transform="matrix(-1.836970e-16 1 -1 -1.836970e-16 789.0255 42.0407)" class="st7" width="27.9" height="15.3"/>
<rect id="233" x="374.9" y="407.9" transform="matrix(-1.836970e-16 1 -1 -1.836970e-16 804.3475 26.7187)" class="st8" width="27.9" height="15.3"/>
<rect id="234" x="366.2" y="429.1" transform="matrix(-1.836970e-16 1 -1 -1.836970e-16 810.2885 63.3035)" class="st7" width="14.6" height="15.3"/>
<rect id="235" x="381.5" y="429.1" transform="matrix(-1.836970e-16 1 -1 -1.836970e-16 825.6105 47.9815)" class="st8" width="14.6" height="15.3"/>
<rect id="236" x="367" y="443" transform="matrix(-1.836970e-16 1 -1 -1.836970e-16 824.1519 77.1669)" class="st7" width="13.1" height="15.3"/>
<rect id="237" x="382.3" y="443" transform="matrix(-1.836970e-16 1 -1 -1.836970e-16 839.4739 61.8448)" class="st8" width="13.1" height="15.3"/>
<rect id="238" x="367" y="456.2" transform="matrix(-1.836970e-16 1 -1 -1.836970e-16 837.3492 90.3641)" class="st7" width="13.1" height="15.3"/>
<rect id="239" x="382.3" y="456.2" transform="matrix(-1.836970e-16 1 -1 -1.836970e-16 852.6712 75.0421)" class="st8" width="13.1" height="15.3"/>
<rect id="240" x="366.5" y="469.9" transform="matrix(-1.836970e-16 1 -1 -1.836970e-16 851.0362 104.0512)" class="st7" width="14.1" height="15.3"/>
<rect id="241" x="381.8" y="469.9" transform="matrix(-1.836970e-16 1 -1 -1.836970e-16 866.3582 88.7291)" class="st8" width="14.1" height="15.3"/>
<rect id="242" x="365.5" y="485" transform="matrix(-1.836970e-16 1 -1 -1.836970e-16 866.1538 119.1689)" class="st7" width="15.9" height="15.3"/>
<rect id="243" x="365.5" y="501.1" transform="matrix(-1.836970e-16 1 -1 -1.836970e-16 882.2126 135.2276)" class="st7" width="15.9" height="15.3"/>
<rect id="244" x="372.8" y="493" transform="matrix(-1.836970e-16 1 -1 -1.836970e-16 889.5053 111.8762)" class="st8" width="32" height="15.3"/>
<rect id="245" x="366.8" y="515.6" transform="matrix(-1.836970e-16 1 -1 -1.836970e-16 896.7323 149.7472)" class="st7" width="13.3" height="15.3"/>
<rect id="246" x="382.2" y="515.6" transform="matrix(-1.836970e-16 1 -1 -1.836970e-16 912.103 134.4737)" class="st8" width="13.2" height="15.3"/>
<rect id="247" x="445.2" y="515.6" transform="matrix(-1.836970e-16 1 -1 -1.836970e-16 975.1107 71.3688)" class="st8" width="13.3" height="15.3"/>
<rect id="248" x="460.6" y="515.6" transform="matrix(-1.836970e-16 1 -1 -1.836970e-16 990.4813 56.0954)" class="st9" width="13.2" height="15.3"/>
<rect id="249" x="443.8" y="500.9" transform="matrix(-1.836970e-16 1 -1 -1.836970e-16 960.429 56.7538)" class="st8" width="16.1" height="15.3"/>
<rect id="250" x="443.8" y="484.9" transform="matrix(-1.836970e-16 1 -1 -1.836970e-16 944.3937 40.7185)" class="st8" width="16.1" height="15.3"/>
<rect id="251" x="451.2" y="492.9" transform="matrix(-1.836970e-16 1 -1 -1.836970e-16 967.7501 33.3642)" class="st9" width="32.1" height="15.3"/>
<rect id="252" x="438.1" y="463.2" transform="matrix(-1.836970e-16 1 -1 -1.836970e-16 922.6628 18.9877)" class="st8" width="27.5" height="15.3"/>
<rect id="253" x="453.5" y="463.2" transform="matrix(-1.836970e-16 1 -1 -1.836970e-16 938.0182 3.6323)" class="st9" width="27.5" height="15.3"/>
<rect id="254" x="438.1" y="435.7" transform="matrix(-1.836970e-16 1 -1 -1.836970e-16 895.203 -8.4722)" class="st8" width="27.5" height="15.3"/>
<rect id="255" x="453.5" y="435.7" transform="matrix(-1.836970e-16 1 -1 -1.836970e-16 910.5583 -23.8275)" class="st9" width="27.5" height="15.3"/>
<rect id="256" x="438.1" y="408.2" transform="matrix(-1.836970e-16 1 -1 -1.836970e-16 867.7432 -35.932)" class="st8" width="27.5" height="15.3"/>
<rect id="257" x="453.5" y="408.2" transform="matrix(-1.836970e-16 1 -1 -1.836970e-16 883.0985 -51.2873)" class="st9" width="27.5" height="15.3"/>
<rect id="258" x="445" y="387.6" transform="matrix(-1.836970e-16 1 -1 -1.836970e-16 847.1483 -56.5269)" class="st8" width="13.7" height="15.3"/>
<rect id="259" x="445.3" y="374.5" transform="matrix(-1.836970e-16 1 -1 -1.836970e-16 833.9915 -69.6837)" class="st8" width="13.2" height="15.3"/>
<rect id="260" x="453.9" y="381.2" transform="matrix(-1.836970e-16 1 -1 -1.836970e-16 856.0671 -78.3187)" class="st9" width="26.6" height="15.3"/>
<rect id="261" x="438.5" y="354.6" transform="matrix(-1.836970e-16 1 -1 -1.836970e-16 814.1088 -89.5664)" class="st8" width="26.6" height="15.3"/>
<rect id="262" x="453.9" y="354.6" transform="matrix(-1.836970e-16 1 -1 -1.836970e-16 829.4642 -104.9217)" class="st9" width="26.6" height="15.3"/>
<rect id="263" x="438.5" y="328.4" transform="matrix(-1.836970e-16 1 -1 -1.836970e-16 787.9075 -115.7677)" class="st8" width="26.7" height="15.3"/>
<rect id="264" x="453.9" y="328.4" transform="matrix(-1.836970e-16 1 -1 -1.836970e-16 803.2629 -131.123)" class="st9" width="26.7" height="15.3"/>
<rect id="265" x="438.7" y="302.1" transform="matrix(-1.836970e-16 1 -1 -1.836970e-16 761.5649 -142.1103)" class="st8" width="26.3" height="15.3"/>
<rect id="266" x="460.8" y="308.8" transform="matrix(-1.836970e-16 1 -1 -1.836970e-16 783.6737 -150.7121)" class="st9" width="12.8" height="15.3"/>
<rect id="267" x="460.8" y="295.3" transform="matrix(-1.836970e-16 1 -1 -1.836970e-16 770.1667 -164.2191)" class="st9" width="12.8" height="15.3"/>
<rect id="268" x="438.9" y="275.9" transform="matrix(-1.836970e-16 1 -1 -1.836970e-16 735.3749 -168.3002)" class="st8" width="25.9" height="15.3"/>
<rect id="269" x="454.2" y="275.9" transform="matrix(-1.836970e-16 1 -1 -1.836970e-16 750.7303 -183.6556)" class="st9" width="25.9" height="15.3"/>
<rect id="270" x="438.9" y="249.9" transform="matrix(-1.836970e-16 1 -1 -1.836970e-16 709.3595 -194.3157)" class="st8" width="25.9" height="15.3"/>
<rect id="271" x="454.2" y="249.9" transform="matrix(-1.836970e-16 1 -1 -1.836970e-16 724.7148 -209.671)" class="st9" width="25.9" height="15.3"/>
<rect id="272" x="437" y="221.9" transform="matrix(-1.836970e-16 1 -1 -1.836970e-16 681.4409 -222.2342)" class="st8" width="29.7" height="15.3"/>
<rect id="273" x="452.3" y="221.9" transform="matrix(-1.836970e-16 1 -1 -1.836970e-16 696.7962 -237.5895)" class="st9" width="29.7" height="15.3"/>
<rect id="274" x="438.8" y="194.1" transform="matrix(-1.836970e-16 1 -1 -1.836970e-16 653.5801 -250.0951)" class="st8" width="26" height="15.3"/>
<rect id="275" x="454.2" y="194.1" transform="matrix(-1.836970e-16 1 -1 -1.836970e-16 668.9354 -265.4505)" class="st9" width="26" height="15.3"/>
<rect id="276" x="438.8" y="168" transform="matrix(-1.836970e-16 1 -1 -1.836970e-16 627.4707 -276.2044)" class="st8" width="26" height="15.3"/>
<rect id="277" x="460.6" y="174.4" transform="matrix(-1.836970e-16 1 -1 -1.836970e-16 649.2475 -285.1384)" class="st9" width="13.2" height="15.3"/>
<rect id="278" x="460.8" y="161.3" transform="matrix(-1.836970e-16 1 -1 -1.836970e-16 636.1928 -298.193)" class="st9" width="12.7" height="15.3"/>
<rect id="279" x="445.1" y="148.2" transform="matrix(-1.836970e-16 1 -1 -1.836970e-16 607.7449 -295.9303)" class="st8" width="13.5" height="15.3"/>
<rect id="280" x="460.5" y="148.2" transform="matrix(-1.836970e-16 1 -1 -1.836970e-16 623.1002 -311.2855)" class="st9" width="13.5" height="15.3"/>
<rect id="281" x="524.6" y="148.2" transform="matrix(-1.836970e-16 1 -1 -1.836970e-16 687.2128 -375.3981)" class="st9" width="13.5" height="15.3"/>
<rect id="282" x="539.9" y="148.2" transform="matrix(-1.836970e-16 1 -1 -1.836970e-16 702.5681 -390.7534)" class="st2" width="13.5" height="15.3"/>
<rect id="283" x="518.3" y="168" transform="matrix(-1.836970e-16 1 -1 -1.836970e-16 706.9178 -355.6922)" class="st9" width="26" height="15.3"/>
<rect id="284" x="533.7" y="168" transform="matrix(-1.836970e-16 1 -1 -1.836970e-16 722.2731 -371.0475)" class="st2" width="26" height="15.3"/>
<rect id="285" x="518.3" y="193.9" transform="matrix(-1.836970e-16 1 -1 -1.836970e-16 732.8727 -329.7372)" class="st9" width="26" height="15.3"/>
<rect id="286" x="533.7" y="193.9" transform="matrix(-1.836970e-16 1 -1 -1.836970e-16 748.228 -345.0925)" class="st2" width="26" height="15.3"/>
<rect id="287" x="516.3" y="221.9" transform="matrix(-1.836970e-16 1 -1 -1.836970e-16 760.8281 -301.7818)" class="st9" width="30" height="15.3"/>
<rect id="288" x="531.7" y="221.9" transform="matrix(-1.836970e-16 1 -1 -1.836970e-16 776.1834 -317.1371)" class="st2" width="30" height="15.3"/>
<rect id="289" x="524.7" y="243.4" transform="matrix(-1.836970e-16 1 -1 -1.836970e-16 782.3621 -280.2479)" class="st9" width="13.1" height="15.3"/>
<rect id="290" x="524.7" y="256.4" transform="matrix(-1.836970e-16 1 -1 -1.836970e-16 795.383 -267.2271)" class="st9" width="13.1" height="15.3"/>
<rect id="291" x="533.6" y="249.9" transform="matrix(-1.836970e-16 1 -1 -1.836970e-16 804.2585 -289.062)" class="st2" width="26.1" height="15.3"/>
<rect id="292" x="518.3" y="275.9" transform="matrix(-1.836970e-16 1 -1 -1.836970e-16 814.8423 -247.7676)" class="st9" width="26.1" height="15.3"/>
<rect id="293" x="533.6" y="275.9" transform="matrix(-1.836970e-16 1 -1 -1.836970e-16 830.1976 -263.1229)" class="st9" width="26.1" height="15.3"/>
<rect id="294" x="518.3" y="302.1" transform="matrix(-1.836970e-16 1 -1 -1.836970e-16 841.0323 -221.5776)" class="st9" width="26.1" height="15.3"/>
<rect id="295" x="533.6" y="302.1" transform="matrix(-1.836970e-16 1 -1 -1.836970e-16 856.3875 -236.9329)" class="st9" width="26.1" height="15.3"/>
<rect id="296" x="524.7" y="322" transform="matrix(-1.836970e-16 1 -1 -1.836970e-16 860.9653 -201.6447)" class="st9" width="13.3" height="15.3"/>
<rect id="297" x="524.7" y="335" transform="matrix(-1.836970e-16 1 -1 -1.836970e-16 874.001 -188.609)" class="st9" width="13.3" height="15.3"/>
<rect id="298" x="533.5" y="328.5" transform="matrix(-1.836970e-16 1 -1 -1.836970e-16 882.8384 -210.4821)" class="st9" width="26.3" height="15.3"/>
<rect id="299" x="518.2" y="354.9" transform="matrix(-1.836970e-16 1 -1 -1.836970e-16 893.8474 -168.7625)" class="st9" width="26.3" height="15.3"/>
<rect id="300" x="533.5" y="354.9" transform="matrix(-1.836970e-16 1 -1 -1.836970e-16 909.2027 -184.1178)" class="st9" width="26.3" height="15.3"/>
<rect id="301" x="524.9" y="374.4" transform="matrix(-1.836970e-16 1 -1 -1.836970e-16 913.3234 -149.2865)" class="st9" width="12.9" height="15.3"/>
<rect id="302" x="524.9" y="387.2" transform="matrix(-1.836970e-16 1 -1 -1.836970e-16 926.178 -136.4319)" class="st9" width="12.9" height="15.3"/>
<rect id="303" x="533.9" y="380.8" transform="matrix(-1.836970e-16 1 -1 -1.836970e-16 935.1536 -158.1669)" class="st9" width="25.6" height="15.3"/>
<rect id="304" x="517.1" y="407.9" transform="matrix(-1.836970e-16 1 -1 -1.836970e-16 946.8461 -115.7639)" class="st9" width="28.5" height="15.3"/>
<rect id="305" x="532.4" y="407.9" transform="matrix(-1.836970e-16 1 -1 -1.836970e-16 962.2012 -131.1191)" class="st9" width="28.5" height="15.3"/>
<rect id="306" x="517.6" y="435.8" transform="matrix(-1.836970e-16 1 -1 -1.836970e-16 974.7803 -87.8296)" class="st9" width="27.4" height="15.3"/>
<rect id="307" x="533" y="435.8" transform="matrix(-1.836970e-16 1 -1 -1.836970e-16 990.1356 -103.1849)" class="st9" width="27.4" height="15.3"/>
<rect id="308" x="524.8" y="456" transform="matrix(-1.836970e-16 1 -1 -1.836970e-16 994.9932 -67.6167)" class="st9" width="13" height="15.3"/>
<rect id="309" x="524.2" y="469.7" transform="matrix(-1.836970e-16 1 -1 -1.836970e-16 1008.658 -53.952)" class="st9" width="14.3" height="15.3"/>
<rect id="310" x="533" y="463.2" transform="matrix(-1.836970e-16 1 -1 -1.836970e-16 1017.4938 -75.8266)" class="st9" width="27.3" height="15.3"/>
<rect id="311" x="515.3" y="492.9" transform="matrix(-1.836970e-16 1 -1 -1.836970e-16 1031.8503 -30.7596)" class="st9" width="32.1" height="15.3"/>
<rect id="312" x="530.6" y="492.9" transform="matrix(-1.836970e-16 1 -1 -1.836970e-16 1047.2056 -46.1148)" class="st9" width="32.1" height="15.3"/>
<rect id="313" x="524.8" y="515.5" transform="matrix(-1.836970e-16 1 -1 -1.836970e-16 1054.4166 -8.1936)" class="st9" width="13" height="15.3"/>
<rect id="314" x="540.1" y="515.5" transform="matrix(-1.836970e-16 1 -1 -1.836970e-16 1069.7719 -23.5488)" class="st9" width="13" height="15.3"/>
<rect id="315" x="602.6" y="515.5" transform="matrix(-1.836970e-16 1 -1 -1.836970e-16 1132.2361 -86.0131)" class="st10" width="13" height="15.3"/>
<rect id="316" x="618" y="515.5" transform="matrix(-1.836970e-16 1 -1 -1.836970e-16 1147.5913 -101.3683)" class="st10" width="13" height="15.3"/>
<rect id="317" x="593.2" y="493" transform="matrix(-1.836970e-16 1 -1 -1.836970e-16 1109.7435 -108.5057)" class="st10" width="31.9" height="15.3"/>
<rect id="318" x="616.5" y="501" transform="matrix(-1.836970e-16 1 -1 -1.836970e-16 1133.1282 -115.8315)" class="st10" width="15.9" height="15.3"/>
<rect id="319" x="616.5" y="484.9" transform="matrix(-1.836970e-16 1 -1 -1.836970e-16 1117.0693 -131.8902)" class="st10" width="15.9" height="15.3"/>
<rect id="320" x="595.4" y="463.1" transform="matrix(-1.836970e-16 1 -1 -1.836970e-16 1079.9095 -138.3396)" class="st10" width="27.4" height="15.3"/>
<rect id="321" x="610.8" y="463.1" transform="matrix(-1.836970e-16 1 -1 -1.836970e-16 1095.2648 -153.6948)" class="st10" width="27.4" height="15.3"/>
<rect id="322" x="602.5" y="442.9" transform="matrix(-1.836970e-16 1 -1 -1.836970e-16 1059.6429 -158.6062)" class="st10" width="13.2" height="15.3"/>
<rect id="323" x="601.9" y="429" transform="matrix(-1.836970e-16 1 -1 -1.836970e-16 1045.7942 -172.455)" class="st10" width="14.5" height="15.3"/>
<rect id="324" x="610.6" y="435.6" transform="matrix(-1.836970e-16 1 -1 -1.836970e-16 1067.7263 -181.2333)" class="st10" width="27.7" height="15.3"/>
<rect id="325" x="601.8" y="414.4" transform="matrix(-1.836970e-16 1 -1 -1.836970e-16 1031.2256 -187.0235)" class="st10" width="14.6" height="15.3"/>
<rect id="326" x="617.2" y="414.4" transform="matrix(-1.836970e-16 1 -1 -1.836970e-16 1046.5808 -202.3788)" class="st10" width="14.6" height="15.3"/>
<rect id="327" x="602.6" y="400.6" transform="matrix(-1.836970e-16 1 -1 -1.836970e-16 1017.4136 -200.8356)" class="st10" width="13" height="15.3"/>
<rect id="328" x="618" y="400.6" transform="matrix(-1.836970e-16 1 -1 -1.836970e-16 1032.7688 -216.1908)" class="st10" width="13" height="15.3"/>
<rect id="329" x="602.6" y="387.6" transform="matrix(-1.836970e-16 1 -1 -1.836970e-16 1004.3751 -213.8741)" class="st10" width="13" height="15.3"/>
<rect id="330" x="602.6" y="374.5" transform="matrix(-1.836970e-16 1 -1 -1.836970e-16 991.3264 -226.9228)" class="st10" width="13" height="15.3"/>
<rect id="331" x="611.5" y="381" transform="matrix(-1.836970e-16 1 -1 -1.836970e-16 1013.1198 -235.8399)" class="st10" width="25.9" height="15.3"/>
<rect id="332" x="602.6" y="361.5" transform="matrix(-1.836970e-16 1 -1 -1.836970e-16 978.2391 -240.0101)" class="st10" width="13.1" height="15.3"/>
<rect id="333" x="617.9" y="361.5" transform="matrix(-1.836970e-16 1 -1 -1.836970e-16 993.5942 -255.3654)" class="st10" width="13.1" height="15.3"/>
<rect id="334" x="602.6" y="348.2" transform="matrix(-1.836970e-16 1 -1 -1.836970e-16 965.0187 -253.2305)" class="st10" width="13.1" height="15.3"/>
<rect id="335" x="617.9" y="348.2" transform="matrix(-1.836970e-16 1 -1 -1.836970e-16 980.3738 -268.5858)" class="st10" width="13.1" height="15.3"/>
<rect id="336" x="596" y="328.5" transform="matrix(-1.836970e-16 1 -1 -1.836970e-16 945.2646 -272.9839)" class="st10" width="26.2" height="15.3"/>
<rect id="337" x="611.4" y="328.5" transform="matrix(-1.836970e-16 1 -1 -1.836970e-16 960.6198 -288.3391)" class="st10" width="26.2" height="15.3"/>
<rect id="338" x="595.9" y="302.3" transform="matrix(-1.836970e-16 1 -1 -1.836970e-16 919.1125 -299.136)" class="st10" width="26.4" height="15.3"/>
<rect id="339" x="611.3" y="302.3" transform="matrix(-1.836970e-16 1 -1 -1.836970e-16 934.4677 -314.4912)" class="st10" width="26.4" height="15.3"/>
<rect id="340" x="595.9" y="275.9" transform="matrix(-1.836970e-16 1 -1 -1.836970e-16 892.6616 -325.5869)" class="st10" width="26.4" height="15.3"/>
<rect id="341" x="611.3" y="275.9" transform="matrix(-1.836970e-16 1 -1 -1.836970e-16 908.0168 -340.9421)" class="st10" width="26.4" height="15.3"/>
<rect id="342" x="595.9" y="249.4" transform="matrix(-1.836970e-16 1 -1 -1.836970e-16 866.2108 -352.0378)" class="st10" width="26.4" height="15.3"/>
<rect id="343" x="611.3" y="249.4" transform="matrix(-1.836970e-16 1 -1 -1.836970e-16 881.5659 -367.393)" class="st10" width="26.4" height="15.3"/>
<rect id="344" x="595.9" y="223" transform="matrix(-1.836970e-16 1 -1 -1.836970e-16 839.7598 -378.4887)" class="st10" width="26.4" height="15.3"/>
<rect id="345" x="611.3" y="223" transform="matrix(-1.836970e-16 1 -1 -1.836970e-16 855.1151 -393.8439)" class="st10" width="26.4" height="15.3"/>
<rect id="346" x="595.4" y="196" transform="matrix(-1.836970e-16 1 -1 -1.836970e-16 812.7458 -405.5027)" class="st10" width="27.5" height="15.3"/>
<rect id="347" x="610.7" y="196" transform="matrix(-1.836970e-16 1 -1 -1.836970e-16 828.101 -420.8579)" class="st10" width="27.5" height="15.3"/>
<rect id="348" x="595.4" y="168.4" transform="matrix(-1.836970e-16 1 -1 -1.836970e-16 785.1652 -433.0833)" class="st10" width="27.5" height="15.3"/>
<rect id="349" x="610.7" y="168.4" transform="matrix(-1.836970e-16 1 -1 -1.836970e-16 800.5204 -448.4385)" class="st10" width="27.5" height="15.3"/>
<rect id="350" x="602.4" y="147.9" transform="matrix(-1.836970e-16 1 -1 -1.836970e-16 764.7134 -453.5356)" class="st10" width="13.4" height="15.3"/>
<rect id="351" x="617.8" y="147.9" transform="matrix(-1.836970e-16 1 -1 -1.836970e-16 780.0686 -468.8908)" class="st10" width="13.4" height="15.3"/>
<rect id="352" x="681.9" y="147.9" transform="matrix(-1.836970e-16 1 -1 -1.836970e-16 844.2299 -533.0521)" class="st10" width="13.4" height="15.3"/>
<rect id="353" x="697.3" y="147.9" transform="matrix(-1.836970e-16 1 -1 -1.836970e-16 859.5851 -548.4073)" class="st3" width="13.4" height="15.3"/>
<rect id="354" x="675.7" y="167.9" transform="matrix(-1.836970e-16 1 -1 -1.836970e-16 864.2167 -513.0643)" class="st10" width="25.9" height="15.3"/>
<rect id="355" x="691.1" y="167.9" transform="matrix(-1.836970e-16 1 -1 -1.836970e-16 879.572 -528.4196)" class="st3" width="25.9" height="15.3"/>
<rect id="356" x="675.7" y="193.8" transform="matrix(-1.836970e-16 1 -1 -1.836970e-16 890.0977 -487.1833)" class="st10" width="25.9" height="15.3"/>
<rect id="357" x="691.1" y="193.8" transform="matrix(-1.836970e-16 1 -1 -1.836970e-16 905.4529 -502.5386)" class="st3" width="25.9" height="15.3"/>
<rect id="358" x="681.9" y="213.5" transform="matrix(-1.836970e-16 1 -1 -1.836970e-16 909.7635 -467.5176)" class="st10" width="13.5" height="15.3"/>
<rect id="359" x="680.7" y="228.4" transform="matrix(-1.836970e-16 1 -1 -1.836970e-16 924.744 -452.537)" class="st10" width="16" height="15.3"/>
<rect id="360" x="689.2" y="221.6" transform="matrix(-1.836970e-16 1 -1 -1.836970e-16 933.2381 -474.7543)" class="st3" width="29.7" height="15.3"/>
<rect id="361" x="681.9" y="243.2" transform="matrix(-1.836970e-16 1 -1 -1.836970e-16 939.4902 -437.7909)" class="st10" width="13.5" height="15.3"/>
<rect id="362" x="682.3" y="256.3" transform="matrix(-1.836970e-16 1 -1 -1.836970e-16 952.5833 -424.6978)" class="st10" width="12.7" height="15.3"/>
<rect id="363" x="690.9" y="249.5" transform="matrix(-1.836970e-16 1 -1 -1.836970e-16 961.1754 -446.8171)" class="st3" width="26.2" height="15.3"/>
<rect id="364" x="675.5" y="275.9" transform="matrix(-1.836970e-16 1 -1 -1.836970e-16 972.1779 -405.1032)" class="st10" width="26.2" height="15.3"/>
<rect id="365" x="690.9" y="275.9" transform="matrix(-1.836970e-16 1 -1 -1.836970e-16 987.5336 -420.4589)" class="st3" width="26.2" height="15.3"/>
<rect id="366" x="675.5" y="302.1" transform="matrix(-1.836970e-16 1 -1 -1.836970e-16 998.3641 -378.917)" class="st10" width="26.2" height="15.3"/>
<rect id="367" x="690.9" y="302.1" transform="matrix(-1.836970e-16 1 -1 -1.836970e-16 1013.7197 -394.2727)" class="st3" width="26.2" height="15.3"/>
<rect id="368" x="675.5" y="328.2" transform="matrix(-1.836970e-16 1 -1 -1.836970e-16 1024.5502 -352.7308)" class="st10" width="26.2" height="15.3"/>
<rect id="369" x="690.9" y="328.2" transform="matrix(-1.836970e-16 1 -1 -1.836970e-16 1039.9059 -368.0865)" class="st3" width="26.2" height="15.3"/>
<rect id="370" x="682" y="348" transform="matrix(-1.836970e-16 1 -1 -1.836970e-16 1044.3236 -332.9575)" class="st10" width="13.4" height="15.3"/>
<rect id="371" x="682" y="361.4" transform="matrix(-1.836970e-16 1 -1 -1.836970e-16 1057.6842 -319.5968)" class="st10" width="13.4" height="15.3"/>
<rect id="372" x="690.6" y="354.7" transform="matrix(-1.836970e-16 1 -1 -1.836970e-16 1066.3596 -341.6328)" class="st3" width="26.7" height="15.3"/>
<rect id="373" x="682.2" y="374.5" transform="matrix(-1.836970e-16 1 -1 -1.836970e-16 1070.8319 -306.4492)" class="st10" width="12.9" height="15.3"/>
<rect id="374" x="682.2" y="387.5" transform="matrix(-1.836970e-16 1 -1 -1.836970e-16 1083.7666 -293.5145)" class="st10" width="12.9" height="15.3"/>
<rect id="375" x="691.1" y="381" transform="matrix(-1.836970e-16 1 -1 -1.836970e-16 1092.6549 -315.3376)" class="st3" width="25.9" height="15.3"/>
<rect id="376" x="674.7" y="407.9" transform="matrix(-1.836970e-16 1 -1 -1.836970e-16 1104.1729 -273.1082)" class="st10" width="27.9" height="15.3"/>
<rect id="377" x="690.1" y="407.9" transform="matrix(-1.836970e-16 1 -1 -1.836970e-16 1119.5286 -288.4639)" class="st3" width="27.9" height="15.3"/>
<rect id="378" x="681.3" y="429" transform="matrix(-1.836970e-16 1 -1 -1.836970e-16 1125.265 -252.016)" class="st10" width="14.6" height="15.3"/>
<rect id="379" x="682.1" y="442.8" transform="matrix(-1.836970e-16 1 -1 -1.836970e-16 1139.1313 -238.1498)" class="st10" width="13.1" height="15.3"/>
<rect id="380" x="690.2" y="435.6" transform="matrix(-1.836970e-16 1 -1 -1.836970e-16 1147.252 -260.7406)" class="st3" width="27.6" height="15.3"/>
<rect id="381" x="674.9" y="463.2" transform="matrix(-1.836970e-16 1 -1 -1.836970e-16 1159.5203 -217.7609)" class="st10" width="27.6" height="15.3"/>
<rect id="382" x="690.2" y="463.2" transform="matrix(-1.836970e-16 1 -1 -1.836970e-16 1174.8759 -233.1166)" class="st10" width="27.6" height="15.3"/>
<rect id="383" x="672.7" y="493" transform="matrix(-1.836970e-16 1 -1 -1.836970e-16 1189.2687 -188.0124)" class="st10" width="31.9" height="15.3"/>
<rect id="384" x="688" y="493" transform="matrix(-1.836970e-16 1 -1 -1.836970e-16 1204.6244 -203.368)" class="st10" width="31.9" height="15.3"/>
<rect id="385" x="682.1" y="515.5" transform="matrix(-1.836970e-16 1 -1 -1.836970e-16 1211.8094 -165.4718)" class="st10" width="13.2" height="15.3"/>
<rect id="386" x="697.4" y="515.5" transform="matrix(-1.836970e-16 1 -1 -1.836970e-16 1227.1652 -180.8275)" class="st10" width="13.2" height="15.3"/>
<rect id="387" x="839.5" y="630.3" transform="matrix(-1.836970e-16 1 -1 -1.836970e-16 1485.9766 -212.1844)" class="st0" width="19.2" height="13.2"/>
<rect id="388" x="854.9" y="630.3" transform="matrix(-1.836970e-16 1 -1 -1.836970e-16 1501.4052 -227.613)" class="st0" width="19.2" height="13.2"/>
<rect id="389" x="839.5" y="608.5" transform="matrix(-1.836970e-16 1 -1 -1.836970e-16 1464.1194 -234.0416)" class="st0" width="19.2" height="13.2"/>
<rect id="390" x="854.9" y="608.5" transform="matrix(-1.836970e-16 1 -1 -1.836970e-16 1479.548 -249.4702)" class="st0" width="19.2" height="13.2"/>
<rect id="391" x="839.5" y="586.2" transform="matrix(-1.836970e-16 1 -1 -1.836970e-16 1441.8649 -256.2961)" class="st0" width="19.2" height="13.2"/>
<rect id="392" x="854.9" y="586.2" transform="matrix(-1.836970e-16 1 -1 -1.836970e-16 1457.2935 -271.7246)" class="st0" width="19.2" height="13.2"/>
<rect id="393" x="900.6" y="570.9" transform="matrix(-1.836970e-16 1 -1 -1.836970e-16 1488.0066 -333.0089)" class="st0" width="19.8" height="13.2"/>
<rect id="394" x="916.1" y="570.9" transform="matrix(-1.836970e-16 1 -1 -1.836970e-16 1503.4352 -348.4374)" class="st0" width="19.8" height="13.2"/>
<rect id="395" x="900.6" y="590.7" transform="matrix(-1.836970e-16 1 -1 -1.836970e-16 1507.7771 -313.2385)" class="st0" width="19.8" height="13.2"/>
<rect id="396" x="916.1" y="590.7" transform="matrix(-1.836970e-16 1 -1 -1.836970e-16 1523.2056 -328.667)" class="st0" width="19.8" height="13.2"/>
<rect id="397" x="900.6" y="610.8" transform="matrix(-1.836970e-16 1 -1 -1.836970e-16 1527.9082 -293.1073)" class="st0" width="19.8" height="13.2"/>
<rect id="398" x="916.1" y="610.8" transform="matrix(-1.836970e-16 1 -1 -1.836970e-16 1543.3368 -308.5359)" class="st0" width="19.8" height="13.2"/>
<rect id="399" x="900.9" y="630.3" transform="matrix(-1.836970e-16 1 -1 -1.836970e-16 1547.4038 -273.6117)" class="st0" width="19.2" height="13.2"/>
<rect id="400" x="916.3" y="630.3" transform="matrix(-1.836970e-16 1 -1 -1.836970e-16 1562.8324 -289.0403)" class="st0" width="19.2" height="13.2"/>
<rect id="401" x="970.2" y="630.3" transform="matrix(-1.836970e-16 1 -1 -1.836970e-16 1616.7477 -342.9557)" class="st3" width="19.2" height="13.2"/>
<rect id="402" x="985.7" y="630.3" transform="matrix(-1.836970e-16 1 -1 -1.836970e-16 1632.1763 -358.3842)" class="st3" width="19.2" height="13.2"/>
<rect id="403" x="970.2" y="610.8" transform="matrix(-1.836970e-16 1 -1 -1.836970e-16 1597.2522 -362.4512)" class="st3" width="19.2" height="13.2"/>
<rect id="404" x="985.7" y="610.8" transform="matrix(-1.836970e-16 1 -1 -1.836970e-16 1612.6808 -377.8798)" class="st3" width="19.2" height="13.2"/>
<rect id="405" x="969.8" y="591.1" transform="matrix(-1.836970e-16 1 -1 -1.836970e-16 1577.5763 -382.1271)" class="st3" width="20.1" height="13.2"/>
<rect id="406" x="985.2" y="591.1" transform="matrix(-1.836970e-16 1 -1 -1.836970e-16 1593.0049 -397.5557)" class="st3" width="20.1" height="13.2"/>
<rect id="407" x="969.9" y="571" transform="matrix(-1.836970e-16 1 -1 -1.836970e-16 1557.4408 -402.2626)" class="st3" width="20" height="13.2"/>
<rect id="408" x="985.3" y="571" transform="matrix(-1.836970e-16 1 -1 -1.836970e-16 1572.8693 -417.6912)" class="st3" width="20" height="13.2"/>
<rect id="409" x="1022.4" y="571" transform="matrix(-1.836970e-16 1 -1 -1.836970e-16 1609.9573 -454.7791)" class="st3" width="20" height="13.2"/>
<rect id="410" x="1037.8" y="571" transform="matrix(-1.836970e-16 1 -1 -1.836970e-16 1625.3857 -470.2077)" class="st3" width="20" height="13.2"/>
<rect id="411" x="1022.4" y="591" transform="matrix(-1.836970e-16 1 -1 -1.836970e-16 1629.908 -434.8283)" class="st3" width="20" height="13.2"/>
<rect id="412" x="1037.8" y="591" transform="matrix(-1.836970e-16 1 -1 -1.836970e-16 1645.3365 -450.2569)" class="st3" width="20" height="13.2"/>
<rect id="413" x="1022.4" y="610.9" transform="matrix(-1.836970e-16 1 -1 -1.836970e-16 1649.8588 -414.8775)" class="st3" width="20" height="13.2"/>
<rect id="414" x="1037.8" y="610.9" transform="matrix(-1.836970e-16 1 -1 -1.836970e-16 1665.2874 -430.3061)" class="st3" width="20" height="13.2"/>
<rect id="415" x="1022.4" y="630.9" transform="matrix(-1.836970e-16 1 -1 -1.836970e-16 1669.8096 -394.9268)" class="st3" width="20" height="13.2"/>
<rect id="416" x="1037.8" y="630.9" transform="matrix(-1.836970e-16 1 -1 -1.836970e-16 1685.2382 -410.3553)" class="st3" width="20" height="13.2"/>
<rect id="417" x="1074.4" y="630.9" transform="matrix(-1.836970e-16 1 -1 -1.836970e-16 1721.8315 -446.9487)" class="st3" width="20" height="13.2"/>
<rect id="418" x="1089.8" y="630.9" transform="matrix(-1.836970e-16 1 -1 -1.836970e-16 1737.2601 -462.3773)" class="st3" width="20" height="13.2"/>
<rect id="419" x="1074.4" y="610.8" transform="matrix(-1.836970e-16 1 -1 -1.836970e-16 1701.7906 -466.9897)" class="st3" width="20" height="13.2"/>
<rect id="420" x="1089.8" y="610.8" transform="matrix(-1.836970e-16 1 -1 -1.836970e-16 1717.2192 -482.4182)" class="st3" width="20" height="13.2"/>
<rect id="421" x="1074.4" y="591" transform="matrix(-1.836970e-16 1 -1 -1.836970e-16 1681.9299 -486.8503)" class="st3" width="20" height="13.2"/>
<rect id="422" x="1089.8" y="591" transform="matrix(-1.836970e-16 1 -1 -1.836970e-16 1697.3585 -502.2789)" class="st3" width="20" height="13.2"/>
<rect id="423" x="1074.4" y="571" transform="matrix(-1.836970e-16 1 -1 -1.836970e-16 1661.9792 -506.8011)" class="st3" width="20" height="13.2"/>
<rect id="424" x="1089.8" y="571" transform="matrix(-1.836970e-16 1 -1 -1.836970e-16 1677.4078 -522.2297)" class="st3" width="20" height="13.2"/>
<rect id="425" x="1084.2" y="512.8" transform="matrix(-1.836970e-16 1 -1 -1.836970e-16 1613.9904 -567.5559)" class="st0" width="13.1" height="20.9"/>
<rect id="426" x="1063.6" y="513.1" transform="matrix(-1.836970e-16 1 -1 -1.836970e-16 1593.394 -546.9596)" class="st0" width="13.1" height="20.3"/>
<rect id="427" x="1082.8" y="498.3" transform="matrix(-1.836970e-16 1 -1 -1.836970e-16 1599.4701 -582.076)" class="st0" width="16" height="20.9"/>
<rect id="428" x="1062.2" y="498.5" transform="matrix(-1.836970e-16 1 -1 -1.836970e-16 1578.8738 -561.4797)" class="st0" width="16" height="20.3"/>
<rect id="429" x="1082.8" y="482.3" transform="matrix(-1.836970e-16 1 -1 -1.836970e-16 1583.4855 -598.0607)" class="st0" width="16" height="20.9"/>
<rect id="430" x="1062.2" y="482.5" transform="matrix(-1.836970e-16 1 -1 -1.836970e-16 1562.8892 -577.4644)" class="st0" width="16" height="20.3"/>
<rect id="431" x="1083.5" y="467.1" transform="matrix(-1.836970e-16 1 -1 -1.836970e-16 1568.2609 -613.2853)" class="st0" width="14.5" height="20.9"/>
<rect id="432" x="1062.9" y="467.3" transform="matrix(-1.836970e-16 1 -1 -1.836970e-16 1547.6646 -592.689)" class="st0" width="14.5" height="20.3"/>
<rect id="433" x="1084.2" y="453.2" transform="matrix(-1.836970e-16 1 -1 -1.836970e-16 1554.4486 -627.0977)" class="st0" width="13.2" height="20.9"/>
<rect id="434" x="1063.6" y="453.5" transform="matrix(-1.836970e-16 1 -1 -1.836970e-16 1533.8523 -606.5014)" class="st0" width="13.2" height="20.3"/>
<rect id="435" x="992.2" y="502.2" transform="matrix(-1.836970e-16 1 -1 -1.836970e-16 1522.0557 -507.4603)" class="st0" width="45.2" height="10.2"/>
<rect id="436" x="993" y="513.2" transform="matrix(-1.836970e-16 1 -1 -1.836970e-16 1522.8287 -476.264)" class="st0" width="13.2" height="20.2"/>
<rect id="437" x="969.8" y="510.2" transform="matrix(-1.836970e-16 1 -1 -1.836970e-16 1499.6259 -469.1934)" class="st0" width="29.3" height="10.1"/>
<rect id="438" x="969.3" y="480.4" transform="matrix(-1.836970e-16 1 -1 -1.836970e-16 1469.8656 -498.9536)" class="st0" width="30.2" height="10.1"/>
<rect id="439" x="993" y="443.5" transform="matrix(-1.836970e-16 1 -1 -1.836970e-16 1463.3463 -535.8962)" class="st0" width="13.3" height="40.5"/>
<rect id="440" x="911.9" y="443.5" transform="matrix(-1.836970e-16 1 -1 -1.836970e-16 1382.2474 -454.7973)" class="st5" width="13.3" height="40.5"/>
<rect id="441" x="922" y="467.4" transform="matrix(-1.836970e-16 1 -1 -1.836970e-16 1406.1387 -451.1631)" class="st5" width="13.3" height="20.3"/>
<rect id="442" x="901.8" y="467.4" transform="matrix(-1.836970e-16 1 -1 -1.836970e-16 1385.8815 -430.906)" class="st5" width="13.3" height="20.3"/>
<rect id="443" x="920.4" y="482.2" transform="matrix(-1.836970e-16 1 -1 -1.836970e-16 1420.9884 -436.3134)" class="st5" width="16.4" height="20.3"/>
<rect id="444" x="900.2" y="482.2" transform="matrix(-1.836970e-16 1 -1 -1.836970e-16 1400.7312 -416.0562)" class="st5" width="16.4" height="20.3"/>
<rect id="445" x="920.4" y="498.6" transform="matrix(-1.836970e-16 1 -1 -1.836970e-16 1437.3479 -419.9538)" class="st5" width="16.4" height="20.3"/>
<rect id="446" x="900.2" y="498.6" transform="matrix(-1.836970e-16 1 -1 -1.836970e-16 1417.0907 -399.6967)" class="st5" width="16.4" height="20.3"/>
<rect id="447" x="912.1" y="503.1" transform="matrix(-1.836970e-16 1 -1 -1.836970e-16 1441.8533 -395.1913)" class="st5" width="12.8" height="40.5"/>
<rect id="448" x="820.1" y="503.1" transform="matrix(-1.836970e-16 1 -1 -1.836970e-16 1349.819 -303.157)" class="st5" width="12.8" height="40.5"/>
<rect id="449" x="828.6" y="498.6" transform="matrix(-1.836970e-16 1 -1 -1.836970e-16 1345.3135 -327.9197)" class="st5" width="16" height="20.3"/>
<rect id="450" x="808.4" y="498.6" transform="matrix(-1.836970e-16 1 -1 -1.836970e-16 1325.0563 -307.6625)" class="st5" width="16" height="20.3"/>
<rect id="451" x="828.6" y="482.4" transform="matrix(-1.836970e-16 1 -1 -1.836970e-16 1329.1011 -344.1321)" class="st5" width="16" height="20.3"/>
<rect id="452" x="808.4" y="482.4" transform="matrix(-1.836970e-16 1 -1 -1.836970e-16 1308.8439 -323.8749)" class="st5" width="16" height="20.3"/>
<rect id="453" x="829.7" y="467.2" transform="matrix(-1.836970e-16 1 -1 -1.836970e-16 1313.9263 -359.307)" class="st5" width="13.9" height="20.3"/>
<rect id="454" x="809.4" y="467.2" transform="matrix(-1.836970e-16 1 -1 -1.836970e-16 1293.6691 -339.0498)" class="st5" width="13.9" height="20.3"/>
<rect id="455" x="820.2" y="443.2" transform="matrix(-1.836970e-16 1 -1 -1.836970e-16 1290.3317 -363.0354)" class="st5" width="13" height="40.9"/>
<rect id="456" x="820.7" y="388.7" transform="matrix(-1.836970e-16 1 -1 -1.836970e-16 1235.484 -417.492)" class="st5" width="11.6" height="40.5"/>
<rect id="457" x="829.4" y="385.6" transform="matrix(-1.836970e-16 1 -1 -1.836970e-16 1232.3429 -440.8903)" class="st5" width="14.5" height="20.3"/>
<rect id="458" x="809.1" y="385.6" transform="matrix(-1.836970e-16 1 -1 -1.836970e-16 1212.0857 -420.6331)" class="st5" width="14.5" height="20.3"/>
<rect id="459" x="829.4" y="370.9" transform="matrix(-1.836970e-16 1 -1 -1.836970e-16 1217.6421 -455.5911)" class="st5" width="14.5" height="20.3"/>
<rect id="460" x="809.1" y="370.9" transform="matrix(-1.836970e-16 1 -1 -1.836970e-16 1197.3849 -435.3339)" class="st5" width="14.5" height="20.3"/>
<rect id="461" x="830.3" y="357.1" transform="matrix(-1.836970e-16 1 -1 -1.836970e-16 1203.8822 -469.3511)" class="st5" width="12.6" height="20.3"/>
<rect id="462" x="810.1" y="357.1" transform="matrix(-1.836970e-16 1 -1 -1.836970e-16 1183.625 -449.0939)" class="st5" width="12.6" height="20.3"/>
<rect id="463" x="820.8" y="334.4" transform="matrix(-1.836970e-16 1 -1 -1.836970e-16 1181.5613 -471.8058)" class="st5" width="11.8" height="40.9"/>
<rect id="464" x="912.6" y="334.6" transform="matrix(6.123234e-17 -1 1 6.123234e-17 563.5509 1273.1886)" class="st5" width="11.6" height="40.5"/>
<rect id="465" x="901" y="358" transform="matrix(6.123234e-17 -1 1 6.123234e-17 540.1526 1276.3297)" class="st5" width="14.5" height="20.3"/>
<rect id="466" x="921.3" y="358" transform="matrix(6.123234e-17 -1 1 6.123234e-17 560.4099 1296.5869)" class="st5" width="14.5" height="20.3"/>
<rect id="467" x="901" y="372.7" transform="matrix(6.123234e-17 -1 1 6.123234e-17 525.4518 1291.0305)" class="st5" width="14.5" height="20.3"/>
<rect id="468" x="921.3" y="372.7" transform="matrix(6.123234e-17 -1 1 6.123234e-17 545.709 1311.2877)" class="st5" width="14.5" height="20.3"/>
<rect id="469" x="901.9" y="386.4" transform="matrix(6.123234e-17 -1 1 6.123234e-17 511.6918 1304.7905)" class="st5" width="12.6" height="20.3"/>
<rect id="470" x="922.2" y="386.4" transform="matrix(6.123234e-17 -1 1 6.123234e-17 531.949 1325.0477)" class="st5" width="12.6" height="20.3"/>
<rect id="471" x="912.3" y="388.5" transform="matrix(6.123234e-17 -1 1 6.123234e-17 509.2371 1327.1113)" class="st5" width="11.8" height="40.9"/>
<rect id="472" x="993.7" y="388.5" transform="matrix(6.123234e-17 -1 1 6.123234e-17 590.6841 1408.5583)" class="st5" width="11.8" height="40.9"/>
<rect id="473" x="979.2" y="362.3" transform="matrix(6.123234e-17 -1 1 6.123234e-17 616.8941 1382.3484)" class="st5" width="40.9" height="40.9"/>
<rect id="474" x="993" y="335.2" transform="matrix(6.123234e-17 -1 1 6.123234e-17 643.9827 1355.2598)" class="st5" width="13.3" height="40.9"/>
<rect id="475" x="1084.5" y="411.7" transform="matrix(-1.836970e-16 1 -1 -1.836970e-16 1513.1711 -669.1781)" class="st0" width="13.3" height="20.6"/>
<rect id="476" x="1063.9" y="411.7" transform="matrix(-1.836970e-16 1 -1 -1.836970e-16 1492.5663 -648.5733)" class="st0" width="13.3" height="20.6"/>
<rect id="477" x="1084.5" y="398.4" transform="matrix(-1.836970e-16 1 -1 -1.836970e-16 1499.8995 -682.4497)" class="st0" width="13.3" height="20.6"/>
<rect id="478" x="1063.9" y="398.4" transform="matrix(-1.836970e-16 1 -1 -1.836970e-16 1479.2947 -661.8449)" class="st0" width="13.3" height="20.6"/>
<rect id="479" x="1084.5" y="385.2" transform="matrix(-1.836970e-16 1 -1 -1.836970e-16 1486.6279 -695.7213)" class="st0" width="13.3" height="20.6"/>
<rect id="480" x="1063.9" y="385.2" transform="matrix(-1.836970e-16 1 -1 -1.836970e-16 1466.0231 -675.1165)" class="st0" width="13.3" height="20.6"/>
<rect id="481" x="1084.5" y="371.9" transform="matrix(-1.836970e-16 1 -1 -1.836970e-16 1473.3563 -708.9929)" class="st0" width="13.3" height="20.6"/>
<rect id="482" x="1063.9" y="371.9" transform="matrix(-1.836970e-16 1 -1 -1.836970e-16 1452.7516 -688.3881)" class="st0" width="13.3" height="20.6"/>
<rect id="483" x="1084.5" y="358.6" transform="matrix(-1.836970e-16 1 -1 -1.836970e-16 1460.0847 -722.2645)" class="st0" width="13.3" height="20.6"/>
<rect id="484" x="1063.9" y="358.6" transform="matrix(-1.836970e-16 1 -1 -1.836970e-16 1439.48 -701.6596)" class="st0" width="13.3" height="20.6"/>
<rect id="485" x="1084.5" y="345.3" transform="matrix(-1.836970e-16 1 -1 -1.836970e-16 1446.8131 -735.536)" class="st0" width="13.3" height="20.6"/>
<rect id="486" x="1063.9" y="345.3" transform="matrix(-1.836970e-16 1 -1 -1.836970e-16 1426.2084 -714.9312)" class="st0" width="13.3" height="20.6"/>
<rect id="487" x="1084.5" y="306.4" transform="matrix(-1.836970e-16 1 -1 -1.836970e-16 1407.8606 -774.4886)" class="st0" width="13.3" height="20.6"/>
<rect id="488" x="1063.9" y="306.4" transform="matrix(-1.836970e-16 1 -1 -1.836970e-16 1387.2557 -753.8838)" class="st0" width="13.3" height="20.6"/>
<rect id="489" x="1084.5" y="293.1" transform="matrix(-1.836970e-16 1 -1 -1.836970e-16 1394.6128 -787.7364)" class="st0" width="13.3" height="20.6"/>
<rect id="490" x="1063.9" y="293.1" transform="matrix(-1.836970e-16 1 -1 -1.836970e-16 1374.0081 -767.1316)" class="st0" width="13.3" height="20.6"/>
<rect id="491" x="1003.3" y="306.4" transform="matrix(-1.836970e-16 1 -1 -1.836970e-16 1326.6096 -693.2377)" class="st0" width="13.3" height="20.6"/>
<rect id="492" x="982.7" y="306.4" transform="matrix(-1.836970e-16 1 -1 -1.836970e-16 1306.0048 -672.6329)" class="st0" width="13.3" height="20.6"/>
<rect id="493" x="1003.3" y="293.1" transform="matrix(-1.836970e-16 1 -1 -1.836970e-16 1313.3618 -706.4854)" class="st0" width="13.3" height="20.6"/>
<rect id="494" x="982.7" y="293.1" transform="matrix(-1.836970e-16 1 -1 -1.836970e-16 1292.7571 -685.8806)" class="st0" width="13.3" height="20.6"/>
<rect id="495" x="922" y="306.4" transform="matrix(-1.836970e-16 1 -1 -1.836970e-16 1245.3582 -611.9861)" class="st0" width="13.3" height="20.6"/>
<rect id="496" x="901.4" y="306.4" transform="matrix(-1.836970e-16 1 -1 -1.836970e-16 1224.7533 -591.3813)" class="st0" width="13.3" height="20.6"/>
<rect id="497" x="922" y="293.1" transform="matrix(-1.836970e-16 1 -1 -1.836970e-16 1232.1104 -625.2339)" class="st0" width="13.3" height="20.6"/>
<rect id="498" x="901.4" y="293.1" transform="matrix(-1.836970e-16 1 -1 -1.836970e-16 1211.5056 -604.6292)" class="st0" width="13.3" height="20.6"/>
<rect id="499" x="830.2" y="306.4" transform="matrix(-1.836970e-16 1 -1 -1.836970e-16 1153.4764 -520.1044)" class="st0" width="13.3" height="20.6"/>
<rect id="500" x="809.5" y="306.4" transform="matrix(-1.836970e-16 1 -1 -1.836970e-16 1132.8716 -499.4996)" class="st0" width="13.3" height="20.6"/>
<rect id="501" x="830.2" y="293.1" transform="matrix(-1.836970e-16 1 -1 -1.836970e-16 1140.2286 -533.3522)" class="st0" width="13.3" height="20.6"/>
<rect id="502" x="809.5" y="293.1" transform="matrix(-1.836970e-16 1 -1 -1.836970e-16 1119.6238 -512.7474)" class="st0" width="13.3" height="20.6"/>
<rect id="503" x="793.1" y="247.2" transform="matrix(-1.836970e-16 1 -1 -1.836970e-16 1063.6969 -548.7648)" class="st3" width="26.2" height="20.6"/>
<rect id="504" x="835.3" y="225.5" transform="matrix(-1.836970e-16 1 -1 -1.836970e-16 1092.871 -590.9041)" class="st3" width="13.3" height="51"/>
<rect id="505" x="835.3" y="238.4" transform="matrix(-1.836970e-16 1 -1 -1.836970e-16 1105.8302 -577.9448)" class="st3" width="13.3" height="51"/>
<rect id="506" x="886.3" y="225.5" transform="matrix(-1.836970e-16 1 -1 -1.836970e-16 1143.8837 -641.9167)" class="st3" width="13.3" height="51"/>
<rect id="507" x="886.3" y="238.4" transform="matrix(-1.836970e-16 1 -1 -1.836970e-16 1156.8429 -628.9575)" class="st3" width="13.3" height="51"/>
<rect id="508" x="921.7" y="241.1" transform="matrix(-1.836970e-16 1 -1 -1.836970e-16 1179.2692 -677.3022)" class="st3" width="13.3" height="19.8"/>
<rect id="509" x="941.9" y="240.6" transform="matrix(-1.836970e-16 1 -1 -1.836970e-16 1199.5082 -697.5413)" class="st3" width="13.3" height="20.7"/>
<rect id="510" x="932" y="243.7" transform="matrix(-1.836970e-16 1 -1 -1.836970e-16 1202.5883 -674.7028)" class="st3" width="13.3" height="40.5"/>
<rect id="511" x="972.4" y="230.7" transform="matrix(-1.836970e-16 1 -1 -1.836970e-16 1229.9999 -728.033)" class="st3" width="13.3" height="40.5"/>
<rect id="512" x="972.4" y="243.7" transform="matrix(-1.836970e-16 1 -1 -1.836970e-16 1242.9591 -715.0737)" class="st3" width="13.3" height="40.5"/>
<rect id="513" x="1012.9" y="230.7" transform="matrix(-1.836970e-16 1 -1 -1.836970e-16 1270.4779 -768.511)" class="st3" width="13.3" height="40.5"/>
<rect id="514" x="1012.9" y="243.7" transform="matrix(-1.836970e-16 1 -1 -1.836970e-16 1283.4373 -755.5518)" class="st3" width="13.3" height="40.5"/>
<rect id="515" x="1053.3" y="230.7" transform="matrix(-1.836970e-16 1 -1 -1.836970e-16 1310.9559 -808.9891)" class="st3" width="13.3" height="40.5"/>
<rect id="516" x="1053.3" y="243.7" transform="matrix(-1.836970e-16 1 -1 -1.836970e-16 1323.9153 -796.0298)" class="st3" width="13.3" height="40.5"/>
<rect id="517" x="1077.8" y="247" transform="matrix(-1.836970e-16 1 -1 -1.836970e-16 1348.3278 -833.2543)" class="st3" width="26.1" height="21.2"/>
<rect id="518" x="1078.1" y="204.6" transform="matrix(-1.836970e-16 1 -1 -1.836970e-16 1305.9664 -876.35)" class="st3" width="26.1" height="20.4"/>
<rect id="519" x="1054.1" y="187.9" transform="matrix(-1.836970e-16 1 -1 -1.836970e-16 1268.8682 -852.2875)" class="st3" width="13" height="40.7"/>
<rect id="520" x="1064.2" y="211.2" transform="matrix(-1.836970e-16 1 -1 -1.836970e-16 1292.1162 -849.4075)" class="st3" width="13" height="20.4"/>
<rect id="521" x="1043.9" y="211.2" transform="matrix(-1.836970e-16 1 -1 -1.836970e-16 1271.748 -829.0394)" class="st3" width="13" height="20.4"/>
<rect id="522" x="1013.5" y="188" transform="matrix(-1.836970e-16 1 -1 -1.836970e-16 1228.2367 -811.7126)" class="st3" width="13" height="40.5"/>
<rect id="523" x="1013.5" y="201.1" transform="matrix(-1.836970e-16 1 -1 -1.836970e-16 1241.329 -798.6203)" class="st3" width="13" height="40.5"/>
<rect id="524" x="972.5" y="188" transform="matrix(-1.836970e-16 1 -1 -1.836970e-16 1187.2786 -770.7543)" class="st3" width="13" height="40.5"/>
<rect id="525" x="972.5" y="201.1" transform="matrix(-1.836970e-16 1 -1 -1.836970e-16 1200.3707 -757.6621)" class="st3" width="13" height="40.5"/>
<rect id="526" x="931.5" y="188" transform="matrix(-1.836970e-16 1 -1 -1.836970e-16 1146.3203 -729.7961)" class="st3" width="13" height="40.5"/>
<rect id="527" x="931.5" y="201.1" transform="matrix(-1.836970e-16 1 -1 -1.836970e-16 1159.4126 -716.7039)" class="st3" width="13" height="40.5"/>
<rect id="528" x="885.8" y="183.3" transform="matrix(-1.836970e-16 1 -1 -1.836970e-16 1100.6265 -684.1028)" class="st3" width="13" height="49.9"/>
<rect id="529" x="885.8" y="196.4" transform="matrix(-1.836970e-16 1 -1 -1.836970e-16 1113.7188 -671.0106)" class="st3" width="13" height="49.9"/>
<rect id="530" x="835.4" y="182.8" transform="matrix(-1.836970e-16 1 -1 -1.836970e-16 1050.2255 -633.7018)" class="st3" width="13" height="50.9"/>
<rect id="531" x="845.6" y="206.1" transform="matrix(-1.836970e-16 1 -1 -1.836970e-16 1073.4995 -630.7915)" class="st3" width="13" height="30.5"/>
<rect id="532" x="820.2" y="211.2" transform="matrix(-1.836970e-16 1 -1 -1.836970e-16 1048.0691 -605.3611)" class="st3" width="13" height="20.4"/>
<rect id="533" x="793.2" y="204.6" transform="matrix(-1.836970e-16 1 -1 -1.836970e-16 1021.0547 -591.407)" class="st3" width="26.1" height="20.4"/>
<rect id="534" x="793.2" y="165.1" transform="matrix(-1.836970e-16 1 -1 -1.836970e-16 981.4657 -630.996)" class="st3" width="26.1" height="20.4"/>
<rect id="535" x="835.6" y="156.5" transform="matrix(-1.836970e-16 1 -1 -1.836970e-16 1023.8809 -660.0464)" class="st3" width="12.7" height="50.9"/>
<rect id="536" x="835.4" y="143.3" transform="matrix(-1.836970e-16 1 -1 -1.836970e-16 1010.6745 -673.2528)" class="st3" width="13" height="50.9"/>
<rect id="537" x="886.5" y="156.5" transform="matrix(-1.836970e-16 1 -1 -1.836970e-16 1074.8174 -710.983)" class="st3" width="12.7" height="50.9"/>
<rect id="538" x="886.4" y="143.3" transform="matrix(-1.836970e-16 1 -1 -1.836970e-16 1061.6111 -724.1894)" class="st3" width="13" height="50.9"/>
<rect id="539" x="932.2" y="161.6" transform="matrix(-1.836970e-16 1 -1 -1.836970e-16 1120.5249 -756.6899)" class="st3" width="12.7" height="40.6"/>
<rect id="540" x="932.1" y="148.4" transform="matrix(-1.836970e-16 1 -1 -1.836970e-16 1107.3185 -769.8963)" class="st3" width="13" height="40.6"/>
<rect id="541" x="972.7" y="161.6" transform="matrix(-1.836970e-16 1 -1 -1.836970e-16 1160.9338 -797.099)" class="st3" width="12.7" height="40.6"/>
<rect id="542" x="972.5" y="148.4" transform="matrix(-1.836970e-16 1 -1 -1.836970e-16 1147.7275 -810.3054)" class="st3" width="13" height="40.6"/>
<rect id="543" x="1013.1" y="161.6" transform="matrix(-1.836970e-16 1 -1 -1.836970e-16 1201.3429 -837.508)" class="st3" width="12.7" height="40.6"/>
<rect id="544" x="1012.9" y="148.4" transform="matrix(-1.836970e-16 1 -1 -1.836970e-16 1188.1366 -850.7144)" class="st3" width="13" height="40.6"/>
<rect id="545" x="1053.9" y="161.2" transform="matrix(-1.836970e-16 1 -1 -1.836970e-16 1242.1692 -878.3343)" class="st3" width="12.7" height="41.4"/>
<rect id="546" x="1053.7" y="148" transform="matrix(-1.836970e-16 1 -1 -1.836970e-16 1228.9628 -891.5406)" class="st3" width="13" height="41.4"/>
<rect id="547" x="1077.7" y="165.5" transform="matrix(-1.836970e-16 1 -1 -1.836970e-16 1266.1877 -915.4844)" class="st3" width="26.3" height="19.8"/>
<rect id="548" x="1077.7" y="126.4" transform="matrix(-1.836970e-16 1 -1 -1.836970e-16 1227.0908 -954.5812)" class="st3" width="26.3" height="19.8"/>
<rect id="549" x="1053.9" y="122.4" transform="matrix(-1.836970e-16 1 -1 -1.836970e-16 1203.3582 -917.7975)" class="st3" width="13.3" height="40.7"/>
<rect id="550" x="1053.9" y="109.3" transform="matrix(-1.836970e-16 1 -1 -1.836970e-16 1190.2297 -930.926)" class="st3" width="13.3" height="40.7"/>
<rect id="551" x="1013.3" y="122.4" transform="matrix(-1.836970e-16 1 -1 -1.836970e-16 1162.755 -877.1943)" class="st3" width="13.3" height="40.7"/>
<rect id="552" x="1013.3" y="109.3" transform="matrix(-1.836970e-16 1 -1 -1.836970e-16 1149.6266 -890.3228)" class="st3" width="13.3" height="40.7"/>
<rect id="553" x="972.7" y="122.4" transform="matrix(-1.836970e-16 1 -1 -1.836970e-16 1122.1517 -836.5912)" class="st3" width="13.3" height="40.7"/>
<rect id="554" x="972.7" y="109.3" transform="matrix(-1.836970e-16 1 -1 -1.836970e-16 1109.0233 -849.7196)" class="st3" width="13.3" height="40.7"/>
<rect id="555" x="932.1" y="122.4" transform="matrix(-1.836970e-16 1 -1 -1.836970e-16 1081.5486 -795.988)" class="st3" width="13.3" height="40.7"/>
<rect id="556" x="932.1" y="109.3" transform="matrix(-1.836970e-16 1 -1 -1.836970e-16 1068.4202 -809.1165)" class="st3" width="13.3" height="40.7"/>
<rect id="557" x="886.3" y="117.2" transform="matrix(-1.836970e-16 1 -1 -1.836970e-16 1035.7416 -750.1816)" class="st3" width="13.3" height="51.1"/>
<rect id="558" x="886.3" y="104.1" transform="matrix(-1.836970e-16 1 -1 -1.836970e-16 1022.6132 -763.3101)" class="st3" width="13.3" height="51.1"/>
<rect id="559" x="835.3" y="117.2" transform="matrix(-1.836970e-16 1 -1 -1.836970e-16 984.7648 -699.2049)" class="st3" width="13.3" height="51.1"/>
<rect id="560" x="835.3" y="104.1" transform="matrix(-1.836970e-16 1 -1 -1.836970e-16 971.6364 -712.3333)" class="st3" width="13.3" height="51.1"/>
<rect id="561" x="793" y="126" transform="matrix(-1.836970e-16 1 -1 -1.836970e-16 942.4467 -670.0152)" class="st3" width="26.4" height="20.4"/>
</svg>
