<?xml version="1.0" standalone="no"?>
<!DOCTYPE svg PUBLIC "-//W3C//DTD SVG 1.1//EN" "http://www.w3.org/Graphics/SVG/1.1/DTD/svg11.dtd" >
<svg xmlns="http://www.w3.org/2000/svg" xmlns:xlink="http://www.w3.org/1999/xlink" version="1.1">
<metadata></metadata>
<defs>
<font id="pill_gothic_300mgbold" horiz-adv-x="915" >
<font-face units-per-em="2048" ascent="1638" descent="-410" />
<missing-glyph horiz-adv-x="446" />
<glyph unicode="&#xdf;" horiz-adv-x="1173" d="M76 829v175h92v225q0 127 77 205.5t206 78.5q31 0 67.5 -7t74.5 -19t73.5 -28.5t62.5 -33.5l-98 -178q-29 10 -70 28.5t-76 18.5q-33 0 -49 -11t-24.5 -30.5t-9.5 -46t-1 -57.5v-145h635v-146l-155 -240h4q98 -18 148 -71t50 -154v-172q0 -61 -22.5 -105t-61 -73t-91 -43 t-113.5 -14q-98 0 -170 33.5t-121 117.5l143 135q6 -16 19.5 -33.5t31 -33t37 -25.5t37.5 -10q43 0 58.5 20.5t15.5 67.5v88q0 29 -2 49.5t-10.5 32.5t-24.5 18.5t-45 6.5h-162v147l152 225h-342v-825h-244v829h-92z" />
<glyph unicode="&#xfb01;" horiz-adv-x="1087" d="M33 827v177h151v239q0 147 92.5 215t239.5 68q47 0 106.5 -11.5t121 -32t116.5 -46t94 -56.5l-100 -196q-84 47 -166 86t-168 39q-47 0 -66.5 -22.5t-19.5 -67.5v-215h160v-177h-162v-827h-248v827h-151zM705 0v1004h247v-1004h-247z" />
<glyph unicode="&#xfb02;" horiz-adv-x="1218" d="M33 825v179h157v221q0 152 94.5 227.5t250.5 75.5q41 0 97 -6t114.5 -17.5t113.5 -27t92 -33.5h92v-1444h-247v1270q-18 10 -54 16t-75 10t-76 6.5t-57 2.5q-96 0 -97 -84v-217h174v-179h-174v-825h-252v825h-153z" />
<glyph horiz-adv-x="0" />
<glyph unicode="&#xd;" horiz-adv-x="446" />
<glyph unicode=" "  horiz-adv-x="446" />
<glyph unicode="&#x09;" horiz-adv-x="446" />
<glyph unicode="&#xa0;" horiz-adv-x="446" />
<glyph unicode="!" horiz-adv-x="501" d="M127 1393h281l-33 -904h-217zM147 0v276h248v-276h-248z" />
<glyph unicode="&#x22;" horiz-adv-x="626" d="M90 1386h191l-17 -452h-158zM350 1386h187l-15 -452h-155z" />
<glyph unicode="#" horiz-adv-x="1093" d="M76 238v147h211l69 430h-204v148h225l39 256h166l-39 -256h143l41 256h158l-37 -256h170v-148h-191l-67 -430h182v-147h-207l-33 -238h-163l32 238h-145l-33 -238h-162l33 238h-188zM449 385h147l68 430h-146z" />
<glyph unicode="$" horiz-adv-x="1001" d="M78 262l166 141q25 -49 48 -82.5t53 -55t68 -31t93 -9.5q84 0 123 49.5t39 133.5v77l-555 303v248q0 147 81.5 240.5t235.5 116.5v245h203v-252q43 -4 88 -25.5t85 -53t72.5 -69.5t51.5 -75l-162 -151q-53 78 -105.5 116.5t-127.5 38.5q-80 0 -125 -30.5t-45 -108.5v-94 l557 -307v-244q0 -145 -81 -251.5t-229 -133.5v-240h-202v242q-53 4 -106.5 25.5t-97.5 57.5t-78 82t-50 97z" />
<glyph unicode="%" horiz-adv-x="1347" d="M104 1024v174q0 111 76 163t191 52q111 0 183.5 -52t72.5 -163v-174q0 -121 -69 -169t-187 -48q-113 0 -190 52t-77 165zM135 0l819 1393h203l-809 -1393h-213zM315 1063q0 -27 14.5 -45.5t41.5 -18.5q23 0 35 16.5t12 39.5v112q0 18 -14.5 35t-32.5 17 q-25 0 -40.5 -14.5t-15.5 -37.5v-104zM711 203v159q0 55 20.5 96.5t57 69t86 41t106.5 13.5q113 0 187.5 -56.5t74.5 -165.5v-163q0 -121 -71.5 -170.5t-190.5 -49.5q-117 0 -193.5 53.5t-76.5 172.5zM932 236q0 -29 10 -46.5t39 -17.5q23 0 35 16.5t12 38.5v113 q0 16 -14.5 31.5t-32.5 15.5q-23 0 -36 -13.5t-13 -35.5v-102z" />
<glyph unicode="&#x26;" horiz-adv-x="1243" d="M76 352q0 70 27.5 129.5t68.5 111.5t90 98t94 89l-149 170v199q0 129 89 196.5t224 67.5q154 0 237 -82t83 -233q0 -57 -12.5 -101.5t-34 -82t-51 -74.5t-66.5 -80l147 -191l154 199l168 -145l-170 -232l223 -258l-178 -168l-193 223q-74 -92 -151.5 -144t-192.5 -52 q-188 0 -297.5 87t-109.5 273zM342 362q0 -45 8 -71.5t26.5 -40.5t45 -18.5t63.5 -4.5q29 0 57.5 14.5t54.5 38t46.5 51t34.5 54.5l-174 229q-25 -20 -53.5 -51t-52 -64.5t-40 -68.5t-16.5 -68zM451 1016l79 -98q35 37 59.5 76.5t24.5 97.5q0 47 -19.5 81.5t-66.5 34.5 q-39 0 -56 -13t-17 -48z" />
<glyph unicode="'" horiz-adv-x="483" d="M119 1434h246l-27 -498h-193z" />
<glyph unicode="(" horiz-adv-x="669" d="M143 262v592q0 115 17.5 222.5t56.5 201.5t102.5 172t155.5 131l72 -108q-39 -25 -75 -77.5t-63.5 -131t-44 -181t-16.5 -229.5v-592q0 -205 49 -366.5t150 -249.5l-72 -109q-74 51 -134 120t-104 157t-69 199.5t-25 248.5z" />
<glyph unicode=")" horiz-adv-x="720" d="M117 1497l78 84q92 -53 155.5 -131t102.5 -172t56 -201.5t17 -222.5v-592q0 -137 -24.5 -248.5t-68.5 -200.5t-104.5 -158t-133.5 -120l-72 90q100 86 149.5 256t49.5 381v592q0 127 -17.5 234.5t-46.5 190.5t-65.5 139.5t-75.5 78.5z" />
<glyph unicode="*" horiz-adv-x="718" d="M76 1165l53 150l150 -74v201h159v-201l150 72l55 -148l-170 -69l119 -187l-133 -82l-99 162l-100 -162l-133 86l117 183z" />
<glyph unicode="+" horiz-adv-x="1005" d="M47 702v226h330v368h254v-368h327v-226h-327v-409h-254v409h-330z" />
<glyph unicode="," horiz-adv-x="450" d="M37 -211q35 43 56.5 105.5t21.5 150.5v158h213v-56q0 -84 -16.5 -151.5t-43 -120.5t-60.5 -93t-67 -67z" />
<glyph unicode="-" horiz-adv-x="636" d="M76 496v225h485v-225h-485z" />
<glyph unicode="." horiz-adv-x="471" d="M104 0v276h263v-276h-263z" />
<glyph unicode="/" horiz-adv-x="724" d="M33 -174l450 1567h219l-454 -1567h-215z" />
<glyph unicode="0" horiz-adv-x="1101" d="M119 387v604q0 203 112.5 312.5t317.5 109.5t319.5 -109.5t114.5 -312.5v-598q0 -100 -30.5 -177t-88 -129t-137.5 -79.5t-178 -27.5q-203 0 -316.5 102t-113.5 305zM373 387q0 -92 42 -137t134 -45q94 0 137 47t43 141v598q0 96 -41 146.5t-139 50.5q-94 0 -135 -52.5 t-41 -144.5v-604z" />
<glyph unicode="1" horiz-adv-x="831" d="M123 1167v226h504v-1393h-254v1167h-250z" />
<glyph unicode="2" horiz-adv-x="985" d="M90 1194q63 102 173 163.5t255 61.5q190 0 289.5 -94t99.5 -248q0 -74 -10 -130t-35.5 -106t-69.5 -100.5t-110 -109.5q-47 -43 -99.5 -84t-95.5 -87t-72.5 -102.5t-29.5 -132.5h533v-225h-787v129q0 106 13.5 185t46 144.5t88 127t139.5 131.5q55 45 99 77.5t74 65.5 t46 72t16 96q0 92 -46 129t-132 37q-37 0 -70.5 -17.5t-62.5 -42t-51.5 -52t-36.5 -50.5z" />
<glyph unicode="3" horiz-adv-x="1024" d="M90 264l203 90q10 -29 30.5 -55.5t48 -48t59.5 -33.5t63 -12q35 0 65.5 4t54 15.5t38 33t14.5 55.5v185q0 33 -14.5 52t-39 31.5t-55.5 18.5t-63 10h-152v217h143q33 0 64 4.5t54.5 15.5t37.5 32.5t14 54.5v145q0 68 -48 88.5t-115 20.5q-66 0 -120.5 -42t-74.5 -99 l-184 108q18 63 58 111.5t93 81t114.5 49t125.5 16.5q86 0 159.5 -19.5t129 -60.5t86 -104.5t30.5 -149.5v-145q0 -76 -53 -128t-121 -87q35 -18 68 -41t59.5 -51.5t42 -60t15.5 -68.5v-185q0 -86 -32 -148.5t-87.5 -103.5t-130 -61t-160.5 -20q-76 0 -142.5 17t-122 52 t-95 88t-60.5 127z" />
<glyph unicode="4" horiz-adv-x="1030" d="M59 375v168l373 850h377v-793h182v-225h-182v-375h-254v375h-496zM340 600h215v569h-10z" />
<glyph unicode="5" horiz-adv-x="1001" d="M96 301l242 74q6 -14 15 -43t29.5 -56.5t54.5 -49t87 -21.5q74 0 103.5 27.5t29.5 101.5v180q0 72 -43 103.5t-118 31.5h-357l62 744h641v-226h-414l-20 -293h106q180 0 285.5 -92t105.5 -268v-180q0 -88 -30.5 -154.5t-86 -111.5t-130 -66.5t-162.5 -21.5 q-68 0 -134.5 19t-121 59t-93 100.5t-51.5 142.5z" />
<glyph unicode="6" horiz-adv-x="1030" d="M119 338v747q0 82 31.5 142.5t86 100.5t127 59.5t154.5 19.5q55 0 98 -7t80 -24.5t73 -45t75 -70.5l-142 -173q-31 39 -81 69t-103 30q-63 0 -108 -17.5t-45 -83.5v-258q53 55 105.5 77t109.5 22q172 0 259 -77t87 -263v-248q0 -88 -31 -153.5t-85 -109.5t-129 -65.5 t-163 -21.5t-160.5 21.5t-126 65.5t-83 109.5t-29.5 153.5zM365 338q0 -72 40.5 -99.5t112.5 -27.5t115 26.5t43 100.5v213q0 72 -32 101.5t-103 29.5q-72 0 -124 -44t-52 -114v-186z" />
<glyph unicode="7" horiz-adv-x="858" d="M10 1167v226h809l-393 -1393h-264l336 1167h-488z" />
<glyph unicode="8" horiz-adv-x="1040" d="M119 313v158q0 37 15.5 76t41 72.5t59 60.5t68.5 43q-76 37 -121 99.5t-45 148.5v133q0 72 32 127t85 92t121.5 56.5t142.5 19.5q86 0 155.5 -19.5t121 -60.5t79 -102.5t27.5 -147.5v-106q0 -33 -15.5 -70t-39 -69.5t-52 -59.5t-57.5 -41q35 -14 69 -42t59.5 -61.5 t41 -71.5t15.5 -75v-168q0 -82 -33 -142.5t-88.5 -101.5t-128 -61t-154.5 -20q-92 0 -167 17t-126 56t-78.5 103.5t-27.5 156.5zM365 322q0 -72 40.5 -94.5t112.5 -22.5q66 0 111 19.5t45 88.5v93q0 84 -30 141t-114 57h-20q-88 -4 -116.5 -56t-28.5 -140v-86zM387 963 q0 -61 34 -98.5t95 -35.5h12q66 2 96.5 33t30.5 101v106q0 59 -38.5 83t-98.5 24q-61 0 -96 -24t-35 -83v-106z" />
<glyph unicode="9" horiz-adv-x="1032" d="M104 825v234q0 86 30 151.5t83 109.5t127 65.5t162 21.5t162.5 -21.5t129 -64.5t85 -108.5t30.5 -153.5v-721q0 -88 -30.5 -153.5t-85 -109.5t-129 -65.5t-162.5 -21.5q-106 0 -204.5 39t-170.5 116l139 189q47 -45 108.5 -86t125.5 -41q72 0 115 30.5t43 102.5v205 q-39 -35 -100.5 -52.5t-112.5 -17.5q-180 0 -262.5 86t-82.5 266zM352 825q0 -72 41 -99.5t113 -27.5t114 40t42 114v207q0 72 -42 100.5t-114 28.5t-113 -29t-41 -100v-234z" />
<glyph unicode=":" horiz-adv-x="544" d="M158 0v295h254v-295h-254zM158 713v291h254v-291h-254z" />
<glyph unicode=";" horiz-adv-x="604" d="M139 -211q35 43 56.5 105.5t21.5 150.5v158h213v-56q0 -84 -16.5 -151.5t-43 -120.5t-60.5 -93t-66 -67zM227 729v275h203v-275h-203z" />
<glyph unicode="&#x3c;" horiz-adv-x="1056" d="M76 498l805 596l86 -138l-572 -446l586 -393l-104 -148z" />
<glyph unicode="=" horiz-adv-x="1044" d="M76 391v191h893v-191h-893zM76 815v189h893v-189h-893z" />
<glyph unicode="&#x3e;" horiz-adv-x="1056" d="M76 911l86 164l819 -538l-807 -596l-82 168l578 409z" />
<glyph unicode="?" horiz-adv-x="813" d="M39 1225q63 82 164.5 135t212.5 53q160 0 240.5 -57.5t80.5 -210.5v-101q0 -53 -14 -98t-49 -86q-37 -41 -69 -78t-55.5 -73.5t-35.5 -77.5t-12 -90v-72h-238v178q0 35 6 60.5t19.5 51t35 53.5t54.5 62q12 16 30.5 36t36 41.5t30.5 44t13 42.5v64q0 53 -20 69.5t-74 16.5 q-63 0 -122.5 -36t-100.5 -77zM256 0v276h274v-276h-274z" />
<glyph unicode="@" horiz-adv-x="1390" d="M76 537v8t2 28.5t6 79t10 160.5q10 160 60.5 277.5t131.5 196.5t189.5 118t233.5 39q156 0 269.5 -37t187 -103.5t109.5 -159.5t36 -206q0 -293 -73 -439.5t-243 -146.5q-98 0 -156.5 42t-54.5 114q-41 -78 -92 -129t-123 -51t-114.5 16t-66 43t-32 62.5t-12.5 74.5 q0 104 20.5 192.5t26.5 168.5q10 80 50 131t92.5 80.5t110.5 41t108 11.5q137 0 195.5 -50t58.5 -145q0 -41 -5.5 -85t-15.5 -87q-12 -49 -23.5 -95t-11.5 -89q0 -47 13.5 -69.5t31.5 -22.5q37 0 62.5 18.5t42 64.5t23.5 128t7 207q0 102 -33.5 172.5t-91 114.5t-134 63.5 t-162.5 19.5q-113 0 -191 -40t-129 -107.5t-77.5 -156.5t-37.5 -187q-8 -104 -11 -156.5t-5 -75t-2 -24.5v-4q0 -104 39 -179t102.5 -124.5t144.5 -73t163 -23.5q74 0 137 26t147 81l74 -146q-53 -37 -99 -59t-88 -34.5t-84 -16.5t-87 -4q-145 0 -261 43t-197 116.5 t-124 174t-47 213.5zM559 565q4 -45 17 -59t38 -14q72 0 105 49t47 121.5t17 156.5t16 154q-4 -10 -8.5 -22.5t-4.5 -22.5q-4 39 -18 48t-43 9q-37 0 -61.5 -16.5t-41 -45t-25.5 -64.5t-17 -77q-8 -49 -11.5 -99t-9.5 -118z" />
<glyph unicode="A" horiz-adv-x="1124" d="M39 0l373 1397h311l362 -1397h-258l-79 330h-367l-82 -330h-260zM434 535h260l-129 604z" />
<glyph unicode="B" horiz-adv-x="1046" d="M131 0v1393h455q154 0 243 -86t89 -240v-90q0 -88 -33 -156.5t-111 -95.5q39 -14 73 -43t58.5 -66.5t37.5 -82t13 -89.5v-96q0 -78 -23.5 -141.5t-67.5 -109.5t-105.5 -71.5t-136.5 -25.5h-492zM385 225h176q72 0 106.5 25.5t34.5 97.5v109q0 72 -48 111.5t-119 39.5 h-150v-383zM385 813h139q72 0 105 33t33 104v90q0 72 -33 99.5t-105 27.5h-139v-354z" />
<glyph unicode="C" horiz-adv-x="1017" d="M90 406v581q0 98 34 177t95.5 134.5t145.5 85t184 29.5q74 0 132 -10t107.5 -35t91.5 -63.5t78 -94.5l-161 -157q-29 47 -91.5 90t-156.5 45q-96 0 -150.5 -52.5t-54.5 -148.5v-581q0 -201 207 -201q47 0 82 9t62.5 25.5t52 40t55.5 52.5l149 -178q-86 -90 -182 -132 t-219 -42q-209 0 -335 107.5t-126 318.5z" />
<glyph unicode="D" horiz-adv-x="1085" d="M133 -2v1395h402q215 0 337.5 -104.5t122.5 -319.5v-545q0 -225 -126 -325.5t-351 -100.5h-385zM381 223h137q102 0 166 48t64 153v545q0 104 -54.5 151t-158.5 47h-154v-944z" />
<glyph unicode="E" horiz-adv-x="929" d="M133 0v1393h686v-226h-440v-354h371v-215h-371v-373h475v-225h-721z" />
<glyph unicode="F" horiz-adv-x="864" d="M133 0v1393h684v-226h-438v-350h369v-215h-369v-602h-246z" />
<glyph unicode="G" horiz-adv-x="1116" d="M90 406v581q0 98 37 177t101.5 134.5t151.5 85t185 29.5q145 0 246.5 -51t175.5 -150l-158 -174q-51 59 -119.5 104.5t-144.5 45.5q-96 0 -161.5 -53.5t-65.5 -147.5v-581q0 -102 62.5 -151.5t164.5 -49.5q59 0 103.5 10t93.5 49v301h-221v205h471v-614 q-98 -86 -209 -131t-238 -45q-102 0 -189 27.5t-150.5 81.5t-99.5 134t-36 183z" />
<glyph unicode="H" horiz-adv-x="1261" d="M195 0v1393h245v-605h439v605h249v-1393h-249v563h-439v-563h-245z" />
<glyph unicode="I" horiz-adv-x="665" d="M205 0v1393h254v-1393h-254z" />
<glyph unicode="J" horiz-adv-x="903" d="M33 268l219 82q10 -37 20.5 -64.5t25.5 -46t37.5 -26.5t55.5 -8q57 0 91 18.5t34 75.5v1094h254v-1094q0 -78 -29.5 -138.5t-82 -101.5t-122 -61.5t-147.5 -20.5q-147 0 -237.5 72t-118.5 219z" />
<glyph unicode="K" horiz-adv-x="1142" d="M133 0v1393h254v-525l401 525h304l-498 -637l536 -756h-317l-381 551l-45 -74v-477h-254z" />
<glyph unicode="L" d="M133 0v1393h246v-1168h516v-225h-762z" />
<glyph unicode="M" horiz-adv-x="1429" d="M133 0v1393h320l260 -707l266 707h317v-1393h-225v1108l-285 -850h-131l-297 848v-1106h-225z" />
<glyph unicode="N" horiz-adv-x="1251" d="M133 0v1393h365l395 -1129v1129h225v-1393h-401l-359 1108v-1108h-225z" />
<glyph unicode="O" horiz-adv-x="1169" d="M90 406v583q0 98 38 177t102.5 133.5t151.5 84t187 29.5h29q100 0 187 -28.5t151.5 -83t102.5 -133t38 -179.5v-583q0 -104 -36.5 -183.5t-101.5 -133.5t-152 -81.5t-189 -27.5h-27q-104 0 -192 26.5t-152.5 80.5t-100.5 134t-36 185zM344 406q0 -104 62.5 -152.5 t164.5 -48.5h27q104 0 164.5 48t60.5 153v581q0 96 -64.5 148.5t-160.5 52.5h-29q-96 0 -160.5 -51.5t-64.5 -147.5v-583z" />
<glyph unicode="P" horiz-adv-x="989" d="M131 0v1393h410q174 0 274 -85t100 -261v-211q0 -80 -28.5 -141.5t-78.5 -101.5t-117.5 -60.5t-145.5 -20.5h-160v-512h-254zM385 737h156q57 0 89 20.5t32 80.5v206q0 66 -28 94.5t-93 28.5h-156v-430z" />
<glyph unicode="Q" horiz-adv-x="1144" d="M90 406v583q0 98 38 177t102.5 133.5t151.5 84t187 29.5h29q100 0 187 -28.5t151.5 -83t102.5 -133t38 -179.5v-583q0 -104 -39 -185.5t-104 -136.5l10 -12q35 -51 90.5 -65.5t116.5 -14.5v-154q-63 0 -114.5 1t-93.5 12.5t-75.5 35t-64.5 70.5l-33 45q-41 -12 -83 -17 t-89 -5h-27q-104 0 -192 26.5t-152.5 80.5t-100.5 134t-36 185zM344 406q0 -104 62.5 -152.5t164.5 -48.5h27h16.5t16.5 2l-144 207l150 102l158 -225q29 45 28 115v581q0 96 -64.5 148.5t-160.5 52.5h-29q-96 0 -160.5 -51.5t-64.5 -147.5v-583z" />
<glyph unicode="R" horiz-adv-x="1060" d="M131 0v1393h467q184 0 279.5 -86t95.5 -271v-133q0 -121 -58.5 -194.5t-166.5 -116.5l272 -592h-258l-260 565h-117v-565h-254zM385 791h213q55 0 88 27.5t33 86.5v133q0 66 -28.5 97.5t-94.5 31.5h-211v-376z" />
<glyph unicode="S" horiz-adv-x="1030" d="M78 240l192 151q43 -88 101.5 -135t158.5 -47q90 0 139.5 31.5t49.5 124.5q0 49 -34 86.5t-83 70.5t-105.5 60.5t-101.5 54.5q-43 29 -90 62.5t-87 81.5t-66.5 111.5t-26.5 149.5q0 94 32.5 164t90 116t138.5 68.5t175 22.5q47 0 98.5 -12t101.5 -36t96 -58.5t83 -77.5 l-145 -189q-20 25 -51 50.5t-66 47t-72 36t-71 14.5q-78 0 -117 -31t-39 -108q0 -47 43 -89t101.5 -78t116.5 -64t87 -48q55 -37 100 -69.5t77 -75.5t50.5 -104.5t18.5 -158.5q0 -92 -34 -162.5t-92.5 -118.5t-136 -72.5t-167.5 -24.5q-152 0 -272.5 57t-192.5 199z" />
<glyph unicode="T" horiz-adv-x="972" d="M18 1167v226h936v-226h-342v-1167h-254v1167h-340z" />
<glyph unicode="U" horiz-adv-x="1236" d="M133 420v973h254v-973q0 -111 60.5 -163t168.5 -52q109 0 171.5 52t62.5 163v973h254v-973q0 -109 -36 -191t-99.5 -137t-152.5 -83.5t-198 -28.5t-197.5 27.5t-153 82.5t-99.5 138t-35 192z" />
<glyph unicode="V" horiz-adv-x="1128" d="M33 1393h254l272 -1031l279 1031h258l-389 -1393h-295z" />
<glyph unicode="W" horiz-adv-x="1546" d="M33 1393h254l172 -936l192 936h250l199 -938l141 938h258l-252 -1393h-274l-197 899l-192 -899h-277z" />
<glyph unicode="X" horiz-adv-x="1191" d="M66 0l397 692l-377 701h281l239 -465l248 465h283l-392 -701l390 -692h-283l-248 457l-256 -457h-282z" />
<glyph unicode="Y" horiz-adv-x="1138" d="M33 1393h274l252 -584l258 584h275l-406 -844v-549h-254v551z" />
<glyph unicode="Z" horiz-adv-x="1036" d="M76 0v117l559 1050h-551v226h877v-111l-560 -1057h551v-225h-876z" />
<glyph unicode="[" horiz-adv-x="544" d="M133 -322v1715h336v-176h-119v-1367h111v-172h-328z" />
<glyph unicode="\" horiz-adv-x="794" d="M47 1393h221l480 -1393h-220z" />
<glyph unicode="]" horiz-adv-x="540" d="M78 -143h110v1345h-110v191h330v-1715h-330v179z" />
<glyph unicode="^" horiz-adv-x="806" d="M76 795l338 624l317 -620l-156 -70l-167 299l-168 -299z" />
<glyph unicode="_" horiz-adv-x="1024" d="M76 -74h872v-190h-872v190z" />
<glyph unicode="`" horiz-adv-x="536" d="M102 1399l156 129l176 -334l-123 -102z" />
<glyph unicode="a" d="M76 268v260l489 103v53q0 72 -27.5 98.5t-99.5 26.5q-27 0 -62.5 -10.5t-71.5 -25.5t-67.5 -32.5t-52.5 -33.5l-88 176q35 27 80 52.5t94 44.5t99.5 31.5t95.5 12.5q178 0 262 -81t84 -259v-684h-190l-23 139q-43 -63 -105.5 -109t-134.5 -46q-147 0 -214.5 68.5 t-67.5 215.5zM330 279q0 -53 22.5 -67.5t73.5 -14.5q53 0 93 34.5t40 90.5v139l-229 -53v-129z" />
<glyph unicode="b" horiz-adv-x="991" d="M119 0v1475h254v-555q45 47 100 75.5t125 28.5q176 0 246.5 -86t70.5 -262v-350q0 -174 -75.5 -260t-249.5 -86q-80 0 -134.5 23.5t-105.5 86.5l-18 -90h-213zM373 354q0 -78 30.5 -113.5t108.5 -35.5q66 0 108 27.5t42 93.5v336q0 76 -39 103.5t-117 27.5 q-68 0 -100.5 -44t-32.5 -110v-285z" />
<glyph unicode="c" horiz-adv-x="845" d="M76 330v344q0 80 27.5 144.5t76.5 110.5t118 70.5t151 24.5q115 0 196.5 -36t153.5 -136l-160 -158q-39 47 -86 76t-104 29q-125 0 -125 -125v-344q0 -68 35.5 -96.5t103.5 -28.5q55 0 100 19.5t82 66.5l150 -158q-76 -80 -155 -116.5t-189 -36.5q-172 0 -273.5 89 t-101.5 261z" />
<glyph unicode="d" horiz-adv-x="974" d="M78 332v344q0 174 85 262t263 88q33 0 56.5 -3t44 -12.5t39 -25.5t42.5 -41v531h258v-1475h-202l-35 84q-45 -43 -95.5 -71.5t-107.5 -28.5q-348 0 -348 348zM332 334q0 -76 28.5 -100.5t104.5 -24.5q68 0 107.5 43t39.5 113v276q0 72 -35.5 116t-107.5 44 q-68 0 -102.5 -30t-34.5 -95v-342z" />
<glyph unicode="e" horiz-adv-x="911" d="M76 346v330q0 174 105.5 261t283.5 87q80 0 147.5 -24.5t115.5 -69.5t74.5 -110.5t26.5 -145.5v-185l-505 -90v-53q0 -76 52 -108.5t128 -32.5q66 0 114 28.5t101 81.5l131 -161q-80 -86 -163 -130t-198 -44q-199 0 -306 83.5t-107 282.5zM324 565l256 45v60q0 59 -27 93 t-86 34q-66 0 -104.5 -30t-38.5 -91v-111z" />
<glyph unicode="f" horiz-adv-x="612" d="M10 834v170h158v215q0 139 87 212.5t228 73.5q47 0 96.5 -15t94.5 -32l-53 -190q-27 6 -61 16t-58 10q-59 0 -72.5 -32.5t-13.5 -90.5v-167h207v-170h-207v-834h-248v834h-158z" />
<glyph unicode="g" horiz-adv-x="935" d="M55 -168q0 66 31 115t88 84q-49 37 -68.5 81t-19.5 105q0 59 23.5 96t76.5 72q-27 29 -46 51.5t-32.5 47t-20.5 53t-7 67.5v123q0 78 28.5 138.5t78 101.5t118 62.5t148.5 21.5q55 0 94 -12.5t90 -39.5l215 105l57 -172l-133 -58q23 -37 35 -71.5t12 -75.5v-131 q0 -86 -28.5 -145.5t-80.5 -96.5t-124 -53t-158 -16q-37 0 -66.5 6t-62.5 16q-20 0 -27.5 -20.5t-7.5 -36.5q0 -35 22.5 -60.5t51.5 -31.5l535 -140v-213q0 -78 -24 -131t-67 -85.5t-105.5 -46t-139.5 -13.5h-156q-152 0 -241 77t-89 226zM293 -172q0 -53 47 -76.5 t104 -23.5h72q59 0 87 18q26 17 26 70v8v86l-297 57q-31 -18 -35 -61t-4 -78zM315 582q0 -66 36 -88.5t102 -22.5t102.5 21.5t36.5 89.5v145q0 66 -37 88.5t-102 22.5q-61 0 -99.5 -25t-38.5 -86v-145z" />
<glyph unicode="h" horiz-adv-x="1011" d="M117 0v1475h254v-576q49 59 107 92t136 33q88 0 144.5 -21.5t89.5 -64.5t46 -108.5t13 -153.5v-676h-254v676q0 66 -24.5 94.5t-89.5 28.5q-37 0 -68 -17.5t-53.5 -46t-34.5 -63.5t-12 -72v-600h-254z" />
<glyph unicode="i" horiz-adv-x="532" d="M145 0v1004h254v-1004h-254zM145 1135v258h254v-258h-254z" />
<glyph unicode="j" horiz-adv-x="532" d="M-123 -270q98 57 151.5 94t78 73.5t28.5 85t4 126.5v895h248v-914q0 -145 -29.5 -233t-85 -142.5t-134.5 -87.5t-177 -65zM133 1133v260h268v-260h-268z" />
<glyph unicode="k" horiz-adv-x="905" d="M117 0v1454h254v-801h43l180 351h278l-241 -451l274 -553h-291l-206 442h-37v-442h-254z" />
<glyph unicode="l" horiz-adv-x="516" d="M133 0v1454h254v-1454h-254z" />
<glyph unicode="m" horiz-adv-x="1454" d="M119 0v1004h217l16 -109q41 59 99.5 94t130.5 35q92 0 148 -26.5t93 -110.5q37 59 93.5 98t132.5 39q86 0 143 -14.5t92 -49t50.5 -92t15.5 -141.5v-727h-254v680q0 35 -2 58.5t-12.5 36.5t-31 18.5t-55.5 5.5q-82 0 -106.5 -55.5t-24.5 -137.5v-606h-254v680 q0 37 -2 60.5t-12 39t-29.5 21.5t-56.5 6t-62.5 -21.5t-43 -55.5t-24.5 -74t-7 -74v-582h-254z" />
<glyph unicode="n" horiz-adv-x="1013" d="M119 0v1004h227l21 -105q43 66 97 96.5t136 30.5q172 0 239.5 -87t67.5 -261v-678h-254v635q0 70 -23.5 119t-92.5 49q-37 0 -67 -17.5t-51.5 -46t-33.5 -64.5t-12 -73v-602h-254z" />
<glyph unicode="o" horiz-adv-x="940" d="M76 332v342q0 86 30.5 150.5t84 109.5t126 67.5t156.5 22.5q80 0 151.5 -22.5t126 -67.5t85 -109.5t30.5 -150.5v-342q0 -86 -29.5 -151.5t-82 -109.5t-123 -67.5t-154.5 -23.5q-86 0 -159.5 22.5t-128 67.5t-84 110.5t-29.5 151.5zM330 334q0 -82 31.5 -105.5 t115.5 -23.5q66 0 100.5 28.5t34.5 98.5v344q0 78 -31.5 100.5t-107.5 22.5q-70 0 -106.5 -30t-36.5 -95v-340z" />
<glyph unicode="p" horiz-adv-x="987" d="M117 -453v1457h192l33 -138q37 74 105.5 116t154.5 42q92 0 152.5 -19.5t96.5 -61.5t49 -108.5t13 -158.5v-334q0 -172 -72.5 -267t-244.5 -95q-70 0 -133.5 30.5t-91.5 93.5v-557h-254zM371 371q0 -68 37.5 -118t103.5 -50q147 0 147 139v324q0 72 -37.5 103.5 t-115.5 31.5q-66 0 -100.5 -43t-34.5 -109v-278z" />
<glyph unicode="q" horiz-adv-x="940" d="M76 340v362q0 322 334 322q35 0 70.5 -7t67.5 -23.5t58.5 -41t38.5 -59.5l31 111h188v-1457h-254v568q-41 -53 -89 -89t-111 -36q-166 0 -250 92t-84 258zM330 377q0 -84 28.5 -124t114.5 -40q70 0 104.5 41t34.5 113v282q0 66 -35.5 110t-101.5 44q-70 0 -107.5 -20.5 t-37.5 -88.5v-317z" />
<glyph unicode="r" horiz-adv-x="647" d="M125 0v1004h184l29 -107q41 70 89 95.5t105 25.5q47 0 68 -7t43 -20l-43 -227q-57 29 -104 29q-55 0 -89 -39t-34 -119v-635h-248z" />
<glyph unicode="s" horiz-adv-x="835" d="M61 156l146 163q16 -25 40.5 -48t53.5 -42.5t60.5 -31t60.5 -11.5q55 0 84 15.5t29 72.5q0 25 -21.5 45.5t-53.5 38t-67 30.5t-61 24q-66 27 -111 54.5t-73.5 62t-41 79.5t-12.5 107q0 74 26.5 131t73 97t109 60.5t135.5 20.5q90 0 174 -45t148 -113l-142 -161 q-33 39 -74.5 70.5t-90.5 31.5q-47 0 -77 -22.5t-30 -69.5q0 -20 18.5 -35.5t46 -29t58 -25t55.5 -21.5q63 -27 110.5 -54.5t78 -61t46 -76.5t15.5 -103q0 -80 -26.5 -141.5t-73.5 -103t-112.5 -64.5t-143.5 -23q-109 0 -200 46.5t-157 132.5z" />
<glyph unicode="t" horiz-adv-x="731" d="M25 829v175h157v294h252v-294h195v-175h-195v-555q0 -23 15 -43t38 -20q61 0 99.5 13.5t77.5 29.5l49 -180q-63 -33 -132 -60.5t-130 -27.5q-147 0 -209 54t-62 202v587h-155z" />
<glyph unicode="u" horiz-adv-x="948" d="M117 330v674h254v-674q0 -66 21.5 -95.5t88.5 -29.5q63 0 86 28.5t23 96.5v674h254v-674q0 -174 -96.5 -262t-266.5 -88q-174 0 -269 88t-95 262z" />
<glyph unicode="v" horiz-adv-x="952" d="M33 1004h260l186 -693l183 693h258l-326 -1004h-232z" />
<glyph unicode="w" horiz-adv-x="1230" d="M33 1004h256l90 -744l113 744h256l114 -736l80 736h256l-203 -1004h-262l-112 662l-109 -662h-272z" />
<glyph unicode="x" horiz-adv-x="911" d="M35 0l280 520l-260 484h285l119 -308l116 308h289l-266 -484l279 -520h-289l-129 338l-131 -338h-293z" />
<glyph unicode="y" horiz-adv-x="874" d="M31 1004h258l151 -762l146 762h258l-326 -1164q-41 -147 -154.5 -223t-277.5 -80l-27 191q33 2 69 13t67.5 28.5t55 41t34.5 52.5l32 117z" />
<glyph unicode="z" horiz-adv-x="817" d="M68 0v150l381 655h-373v199h645v-125l-379 -670h406v-209h-680z" />
<glyph unicode="{" horiz-adv-x="616" d="M119 600l71 96l-63 361q0 82 20.5 150.5t61.5 130t103.5 118.5t144.5 115l67 -125q-55 -37 -91 -85t-57.5 -98.5t-29.5 -102.5t-8 -99l41 -367l-53 -86l59 -73l-47 -429q4 -115 48 -217t155 -176l-76 -137q-100 70 -164.5 137.5t-103.5 133t-54.5 133t-15.5 141.5l59 405 z" />
<glyph unicode="|" horiz-adv-x="454" d="M133 -301v1694h189v-1694h-189z" />
<glyph unicode="}" horiz-adv-x="604" d="M119 -287q104 72 145 172.5t47 220.5l-45 426l58 76l-52 88l39 365q0 47 -7 98t-25.5 102.5t-53.5 98.5t-92 86l68 129q80 -59 140 -115.5t100 -118t60.5 -130t20.5 -154.5l-61 -361l67 -96l-63 -74l57 -405q0 -74 -13 -139.5t-49 -132t-100.5 -134t-166.5 -143.5z" />
<glyph unicode="~" horiz-adv-x="821" d="M104 1270q47 88 88 130t107 42q35 0 66.5 -12.5t59.5 -25.5t50.5 -25.5t36.5 -12.5q39 0 54.5 29.5t27.5 54.5l106 -72q-8 -37 -22 -70.5t-34.5 -59t-47.5 -42t-62 -16.5q-39 0 -70.5 12t-59 27.5t-55 28t-62.5 12.5q-18 0 -43 -22.5t-43 -63.5z" />
<glyph unicode="&#xa1;" horiz-adv-x="518" d="M147 -418l27 944h219l31 -944h-277zM164 758v246h237v-246h-237z" />
<glyph unicode="&#xa2;" horiz-adv-x="878" d="M76 336v326q0 70 23.5 133t64.5 110t99.5 76t127.5 29h35l35 286l209 -28l-35 -260q55 -27 94 -64t74 -80l-168 -159q-31 33 -69 67.5t-91 34.5q-70 0 -109.5 -38t-39.5 -107v-326q0 -78 38.5 -112t110.5 -34q47 0 99.5 19.5t91.5 52.5l122 -166q-51 -59 -119.5 -92 t-152.5 -41h-12l-37 -239l-199 36l35 226q-117 35 -172 128t-55 222z" />
<glyph unicode="&#xa3;" horiz-adv-x="970" d="M76 592v184h200l-16 217q0 121 43 200t119 126t178 66.5t221 21.5v-225q-166 0 -236.5 -58.5t-70.5 -162.5l14 -185h234v-184h-217q0 -18 2 -43t3 -46.5t2 -35.5t1 -10q0 -111 -34 -171.5t-64 -60.5h440v-225h-817v170q92 10 139 56t66.5 96.5t20.5 85t1 20.5l-12 164 h-217z" />
<glyph unicode="&#xa5;" horiz-adv-x="1191" d="M33 1393h274l285 -516l295 516h272l-399 -693h307v-139h-350v-129h348v-131h-348v-301h-248v301h-326v131h326v129h-328v139h289z" />
<glyph unicode="&#xa6;" horiz-adv-x="356" d="M76 -209v686h205v-686h-205zM76 750v684h205v-684h-205z" />
<glyph unicode="&#xa7;" horiz-adv-x="1011" d="M86 618q0 86 24.5 134.5t69.5 93.5q-27 59 -33 110.5t-6 96.5q0 100 36 168.5t91.5 110.5t125 60.5t136.5 18.5q63 0 119 -16.5t101 -43t76.5 -57t47.5 -61.5l-124 -146q-37 45 -69 72t-59.5 41t-52 18.5t-47.5 4.5q-37 0 -62.5 -15.5t-41 -40t-22.5 -55.5t-7 -63 q0 -68 21.5 -109t53.5 -68.5t70.5 -45t75.5 -35.5q78 -39 139.5 -80t104.5 -89.5t65.5 -107.5t22.5 -137q0 -82 -32.5 -149.5t-92.5 -114.5q16 -23 27.5 -56.5t18.5 -66.5t10.5 -60.5t3.5 -38.5q0 -92 -43 -156.5t-105.5 -103.5t-130.5 -56t-117 -17q-66 0 -123 17t-103 45 t-81 64.5t-55 73.5l137 154q23 -35 53.5 -62.5t64.5 -47t65.5 -30t56.5 -10.5q45 0 73.5 16.5t45 41t22.5 53.5t6 53q0 53 -20.5 93t-53 71t-74.5 56.5t-87 48.5q-80 41 -139.5 80.5t-100.5 89t-61.5 111t-20.5 142.5zM299 616q0 -47 47 -94t113 -76q33 -14 66.5 -34.5 t63 -40t53.5 -38t36 -30.5q12 16 14 35t2 31q0 43 -8 72.5t-27.5 54t-52.5 46t-84 48.5q-66 35 -111.5 59.5t-88.5 57.5q-14 -29 -18.5 -43.5t-4.5 -47.5z" />
<glyph unicode="&#xa8;" horiz-adv-x="763" d="M102 1214v220h220v-220h-220zM444 1214v220h218v-220h-218z" />
<glyph unicode="&#xa9;" horiz-adv-x="1396" d="M76 719q0 154 40 287t117.5 230t194.5 153.5t270 56.5q152 0 267.5 -57.5t194.5 -155.5t120 -230.5t41 -283.5q0 -154 -40 -286t-119 -230.5t-195.5 -153.5t-268.5 -55q-150 0 -266.5 56t-195 154.5t-119.5 230.5t-41 284zM240 717q0 -117 27.5 -221.5t85 -183.5 t144.5 -124t203 -45q117 0 203 46.5t142.5 125t85 182t28.5 220.5t-27.5 222t-84 183t-143.5 124t-204 46t-202.5 -47t-143 -126t-86 -183t-28.5 -219zM387 629v149q0 143 87 220t235 77q96 0 155.5 -40t116.5 -115l-131 -113q-35 37 -62.5 56.5t-78.5 19.5 q-102 0 -103 -105v-149q0 -59 28 -83t87 -24q43 0 81 21.5t72 54.5l105 -133q-47 -55 -122 -95t-146 -40q-150 0 -237 73.5t-87 225.5z" />
<glyph unicode="&#xaa;" horiz-adv-x="657" d="M76 954v129l311 56v41q0 45 -15.5 61t-58.5 16q-33 0 -70.5 -15t-60.5 -30l-49 131q47 29 86 47.5t98 18.5q125 0 193 -49t68 -176v-430h-119l-27 108q-23 -47 -62.5 -79.5t-84.5 -32.5q-100 0 -154.5 52t-54.5 152zM266 946q0 -20 15.5 -30.5t33.5 -10.5q25 0 45.5 10.5 t20.5 34.5v70l-115 -19v-55z" />
<glyph unicode="&#xab;" horiz-adv-x="849" d="M76 358l286 387l87 -104l-156 -281l153 -264l-84 -114zM403 358l285 387l86 -104l-153 -281l151 -264l-84 -114z" />
<glyph unicode="&#xac;" horiz-adv-x="831" d="M76 498v190h680v-369h-193v179h-487z" />
<glyph unicode="&#xad;" horiz-adv-x="636" d="M76 496v225h485v-225h-485z" />
<glyph unicode="&#xae;" horiz-adv-x="1396" d="M76 719q0 152 40 285t118.5 231t195.5 154.5t268 56.5q150 0 265.5 -57.5t195.5 -156.5t121 -231.5t41 -281.5q0 -152 -41 -284t-120 -230.5t-194.5 -154.5t-267.5 -56q-150 0 -265.5 57.5t-195 155.5t-120.5 230t-41 282zM240 717q0 -117 28.5 -221.5t85 -182 t143.5 -124t203 -46.5q115 0 201 46.5t143.5 125t86 183t28.5 219.5q0 117 -27.5 221t-85 183t-143.5 125t-203 46q-115 0 -200.5 -47t-144 -126t-87 -183t-28.5 -219zM440 338v756h310q104 0 161.5 -49.5t57.5 -153.5v-92q0 -70 -32 -102.5t-91 -63.5l158 -295h-197 l-148 270h-36v-270h-183zM623 739l153 15q6 10 8 26.5t2 28.5l-6 92q-10 16 -21 28.5t-28 12.5h-108v-203z" />
<glyph unicode="&#xaf;" horiz-adv-x="813" d="M102 1309v125h609v-125h-609z" />
<glyph unicode="&#xb0;" horiz-adv-x="706" d="M76 1098v55q0 55 19.5 103.5t53 83t83 54t106.5 19.5q61 0 115.5 -16.5t93.5 -50t61.5 -83t22.5 -110.5v-55q0 -59 -21.5 -106.5t-59.5 -81t-88 -51t-110 -17.5q-121 0 -198.5 67.5t-77.5 188.5zM279 1092q0 -43 17 -67t60 -24q41 0 57.5 25t16.5 66v73q0 43 -16.5 67.5 t-61.5 24.5q-43 0 -58 -25.5t-15 -66.5v-73z" />
<glyph unicode="&#xb1;" horiz-adv-x="1001" d="M76 0v188h850v-188h-850zM106 621v206h271v310h231v-310h285v-206h-285v-326h-231v326h-271z" />
<glyph unicode="&#xb2;" horiz-adv-x="821" d="M147 1296q20 29 53 50.5t70 36t76 22.5t70 8q119 0 181 -48t62 -157q0 -59 -35.5 -113.5t-86.5 -84.5q-20 -12 -48 -22.5t-52.5 -24t-42 -31t-15.5 -39.5h280v-166h-503v51q0 121 42 207t156 133q16 6 35 12.5t35 14.5t27.5 20.5t11.5 32.5q0 23 -19.5 35t-46.5 12 q-43 0 -84 -23.5t-73 -52.5z" />
<glyph unicode="&#xb3;" horiz-adv-x="661" d="M70 776l123 113q23 -37 62.5 -59.5t86.5 -22.5q37 0 61.5 10t24.5 51v23q0 76 -80 76h-135v145h129q29 0 54.5 15.5t25.5 46.5v30q0 27 -22.5 39t-47.5 12q-43 0 -81 -7t-62 -42l-115 92q18 33 48 54.5t67 35t77 19.5t76 6q115 0 183.5 -44t68.5 -159v-18 q0 -55 -35.5 -96t-84.5 -58q49 -20 88 -58t39 -91v-31q0 -61 -19.5 -101t-55.5 -64.5t-86 -34t-112 -9.5q-90 0 -160.5 28t-117.5 99z" />
<glyph unicode="&#xb4;" horiz-adv-x="540" d="M102 1176l183 321l153 -104l-215 -312z" />
<glyph unicode="&#xb6;" horiz-adv-x="1005" d="M76 1014v96q0 129 73.5 205t206.5 78h516v-1393h-170v1255h-100v-1255h-184v752h-62q-135 0 -207.5 63.5t-72.5 198.5z" />
<glyph unicode="&#xb7;" horiz-adv-x="483" d="M104 408v276h263v-276h-263z" />
<glyph unicode="&#xb8;" horiz-adv-x="530" d="M102 -201l33 201h180l-22 -121q18 -10 40.5 -24.5t44 -38t36 -57t14.5 -81.5q0 -53 -18.5 -91t-52 -67.5t-81 -52t-106.5 -47.5l-66 136q39 20 75 43.5t36 76.5q0 31 -6 51.5t-19.5 34t-35 21.5t-52.5 16z" />
<glyph unicode="&#xb9;" horiz-adv-x="534" d="M47 1178v215h383v-688h-209v473h-174z" />
<glyph unicode="&#xba;" horiz-adv-x="706" d="M76 1001v205q0 47 24.5 84t64.5 63.5t89 41t98 14.5q59 0 109.5 -12.5t88.5 -38t59.5 -66.5t21.5 -98v-193q0 -57 -21.5 -101t-59.5 -71.5t-89 -42t-109 -14.5q-121 0 -198.5 54.5t-77.5 174.5zM283 1024q0 -47 12 -66.5t59 -19.5t59.5 21.5t12.5 70.5v152q0 27 -21.5 41 t-50.5 14q-33 0 -52 -15.5t-19 -43.5v-154z" />
<glyph unicode="&#xbb;" horiz-adv-x="839" d="M57 641l86 104l287 -387l-287 -376l-84 114l152 264zM385 641l86 104l285 -387l-285 -376l-84 114l152 264z" />
<glyph unicode="&#xbc;" horiz-adv-x="1423" d="M47 1178v215h383v-688h-209v473h-174zM141 0l819 1393h203l-809 -1393h-213zM682 160v99l270 475h254v-420h137v-154h-137v-160h-186v160h-338zM895 314h125v246h-23z" />
<glyph unicode="&#xbd;" horiz-adv-x="1327" d="M47 1178v215h383v-688h-209v473h-174zM106 0l819 1393h203l-809 -1393h-213zM763 565q20 29 53 50.5t70 36t76 22.5t70 8q119 0 181 -48t62 -157q0 -59 -35.5 -113.5t-86.5 -84.5q-20 -12 -48 -22.5t-52.5 -24t-42 -31t-15.5 -39.5h280v-166h-503v51q0 121 42 207 t156 133q16 6 35 12.5t35 14.5t27.5 20.5t11.5 32.5q0 23 -19.5 35t-46.5 12q-43 0 -84 -23.5t-73 -52.5z" />
<glyph unicode="&#xbe;" horiz-adv-x="1574" d="M58 776l123 113q23 -37 62.5 -59.5t86.5 -22.5q37 0 61.5 10t24.5 51v23q0 76 -80 76h-135v145h129q29 0 54.5 15.5t25.5 46.5v30q0 27 -22.5 39t-47.5 12q-43 0 -81 -7t-62 -42l-115 92q18 33 48 54.5t67 35t77 19.5t76 6q115 0 183.5 -44t68.5 -159v-18 q0 -55 -35.5 -96t-84.5 -58q49 -20 88 -58t39 -91v-31q0 -61 -19.5 -101t-55.5 -64.5t-86 -34t-112 -9.5q-90 0 -160.5 28t-117.5 99zM276 0l819 1393h203l-809 -1393h-213zM780 160v99l270 475h254v-420h137v-154h-137v-160h-186v160h-338zM993 314h125v246h-23z" />
<glyph unicode="&#xbf;" horiz-adv-x="817" d="M70 -61q0 47 18 102t53 96q66 76 116 150.5t50 177.5v70h236v-125q0 -45 -14.5 -93.5t-38 -93.5t-51 -87t-56.5 -75q-29 -37 -47.5 -61.5t-18.5 -73.5v-65q0 -57 18.5 -71.5t76.5 -14.5q31 0 63.5 14t62 34.5t55 45.5t44.5 43l137 -154q-72 -100 -174.5 -153.5 t-206.5 -53.5q-158 0 -240.5 65t-82.5 218v105zM281 727v277h274v-277h-274z" />
<glyph unicode="&#xc0;" horiz-adv-x="1124" d="M39 0l373 1397h311l362 -1397h-258l-79 330h-367l-82 -330h-260zM346 1825l156 129l176 -334l-123 -102zM434 535h260l-129 604z" />
<glyph unicode="&#xc1;" horiz-adv-x="1124" d="M39 0l373 1397h311l362 -1397h-258l-79 330h-367l-82 -330h-260zM434 535h260l-129 604zM436 1606l183 321l153 -104l-215 -312z" />
<glyph unicode="&#xc2;" horiz-adv-x="1124" d="M39 0l373 1397h311l362 -1397h-258l-79 330h-367l-82 -330h-260zM319 1638l234 203l237 -209l-84 -123l-153 113l-150 -113zM434 535h260l-129 604z" />
<glyph unicode="&#xc3;" horiz-adv-x="1124" d="M39 0l373 1397h311l362 -1397h-258l-79 330h-367l-82 -330h-260zM258 1618q47 88 88 130t107 42q35 0 66.5 -12.5t59.5 -25.5t50.5 -25.5t36.5 -12.5q39 0 54.5 29.5t27.5 54.5l106 -72q-8 -37 -22 -70.5t-34.5 -59t-47.5 -42t-62 -16.5q-39 0 -70.5 12t-59 27.5t-55 28 t-62.5 12.5q-18 0 -43 -22.5t-43 -63.5zM434 535h260l-129 604z" />
<glyph unicode="&#xc4;" horiz-adv-x="1124" d="M39 0l373 1397h311l362 -1397h-258l-79 330h-367l-82 -330h-260zM276 1560v220h220v-220h-220zM434 535h260l-129 604zM618 1560v220h218v-220h-218z" />
<glyph unicode="&#xc5;" horiz-adv-x="1124" d="M39 0l373 1397h311l362 -1397h-258l-79 330h-367l-82 -330h-260zM409 1691q0 86 49.5 122t108.5 36q80 0 118 -45t38 -113q0 -82 -47.5 -120.5t-108.5 -38.5q-78 0 -118 47t-40 112zM434 535h260l-129 604zM508 1691q0 -31 6 -46t15 -21t19.5 -7t18.5 -1q27 0 47.5 11 t20.5 64q0 31 -7.5 47.5t-17.5 23.5t-21.5 8t-21.5 1q-20 0 -39.5 -13.5t-19.5 -66.5z" />
<glyph unicode="&#xc6;" horiz-adv-x="1632" d="M33 0l653 1393h850v-226h-438v-342h366v-204h-364v-396h471v-225h-725v326h-371l-160 -326h-282zM557 530h289v662z" />
<glyph unicode="&#xc7;" horiz-adv-x="1095" d="M90 406v581q0 98 34 177t95.5 134.5t145.5 85t184 29.5q74 0 132 -10t107.5 -35t91.5 -63.5t78 -94.5l-161 -157q-29 47 -91.5 90t-156.5 45q-96 0 -150.5 -52.5t-54.5 -148.5v-581q0 -201 207 -201q47 0 82 9t62.5 25.5t52 40t55.5 52.5l149 -178q-86 -90 -182 -132 t-219 -42q-209 0 -335 107.5t-126 318.5zM483 -201l33 201h180l-22 -121q18 -10 40.5 -24.5t44 -38t36 -57t14.5 -81.5q0 -53 -18.5 -91t-52 -67.5t-81 -52t-106.5 -47.5l-66 136q39 20 75 43.5t36 76.5q0 31 -6 51.5t-19.5 34t-35 21.5t-52.5 16z" />
<glyph unicode="&#xc8;" horiz-adv-x="929" d="M133 0v1393h686v-226h-440v-354h371v-215h-371v-373h475v-225h-721zM264 1809l156 129l176 -334l-123 -102z" />
<glyph unicode="&#xc9;" horiz-adv-x="929" d="M133 0v1393h686v-226h-440v-354h371v-215h-371v-373h475v-225h-721zM352 1606l183 321l153 -104l-215 -312z" />
<glyph unicode="&#xca;" horiz-adv-x="929" d="M133 0v1393h686v-226h-440v-354h371v-215h-371v-373h475v-225h-721zM235 1638l234 203l237 -209l-84 -123l-153 113l-150 -113z" />
<glyph unicode="&#xcb;" horiz-adv-x="929" d="M133 0v1393h686v-226h-440v-354h371v-215h-371v-373h475v-225h-721zM192 1560v220h220v-220h-220zM534 1560v220h218v-220h-218z" />
<glyph unicode="&#xcc;" horiz-adv-x="665" d="M116 1829l156 129l176 -334l-123 -102zM232 0v1393h254v-1393h-254z" />
<glyph unicode="&#xcd;" horiz-adv-x="665" d="M182 1606l183 321l153 -104l-215 -312zM211 0v1393h254v-1393h-254z" />
<glyph unicode="&#xce;" horiz-adv-x="665" d="M65 1640l234 203l237 -209l-84 -123l-153 113l-150 -113zM205 0v1393h254v-1393h-254z" />
<glyph unicode="&#xcf;" horiz-adv-x="665" d="M57 1556v220h220v-220h-220zM242 0v1393h254v-1393h-254zM399 1556v220h218v-220h-218z" />
<glyph unicode="&#xd0;" horiz-adv-x="1179" d="M37 600v186h194v594h392q123 0 214 -30.5t150.5 -87t88 -135t28.5 -175.5v-528q0 -111 -38 -191.5t-104.5 -132t-154.5 -76t-186 -24.5h-390v600h-194zM485 225h136q127 0 178 55.5t51 143.5v534q0 113 -52.5 155t-174.5 42h-138v-369h240v-186h-240v-375z" />
<glyph unicode="&#xd1;" horiz-adv-x="1251" d="M133 0v1393h365l395 -1129v1129h225v-1393h-401l-359 1108v-1108h-225zM307 1598q47 88 88 130t107 42q35 0 66.5 -12.5t59.5 -25.5t50.5 -25.5t36.5 -12.5q39 0 54.5 29.5t27.5 54.5l106 -72q-8 -37 -22 -70.5t-34.5 -59t-47.5 -42t-62 -16.5q-39 0 -70.5 12t-59 27.5 t-55 28t-62.5 12.5q-18 0 -43 -22.5t-43 -63.5z" />
<glyph unicode="&#xd2;" horiz-adv-x="1169" d="M90 406v583q0 98 38 177t102.5 133.5t151.5 84t187 29.5h29q100 0 187 -28.5t151.5 -83t102.5 -133t38 -179.5v-583q0 -104 -36.5 -183.5t-101.5 -133.5t-152 -81.5t-189 -27.5h-27q-104 0 -192 26.5t-152.5 80.5t-100.5 134t-36 185zM344 406q0 -104 62.5 -152.5 t164.5 -48.5h27q104 0 164.5 48t60.5 153v581q0 96 -64.5 148.5t-160.5 52.5h-29q-96 0 -160.5 -51.5t-64.5 -147.5v-583zM352 1829l156 129l176 -334l-123 -102z" />
<glyph unicode="&#xd3;" horiz-adv-x="1169" d="M90 406v583q0 98 38 177t102.5 133.5t151.5 84t187 29.5h29q100 0 187 -28.5t151.5 -83t102.5 -133t38 -179.5v-583q0 -104 -36.5 -183.5t-101.5 -133.5t-152 -81.5t-189 -27.5h-27q-104 0 -192 26.5t-152.5 80.5t-100.5 134t-36 185zM344 406q0 -104 62.5 -152.5 t164.5 -48.5h27q104 0 164.5 48t60.5 153v581q0 96 -64.5 148.5t-160.5 52.5h-29q-96 0 -160.5 -51.5t-64.5 -147.5v-583zM440 1606l183 321l153 -104l-215 -312z" />
<glyph unicode="&#xd4;" horiz-adv-x="1169" d="M90 406v583q0 98 38 177t102.5 133.5t151.5 84t187 29.5h29q100 0 187 -28.5t151.5 -83t102.5 -133t38 -179.5v-583q0 -104 -36.5 -183.5t-101.5 -133.5t-152 -81.5t-189 -27.5h-27q-104 0 -192 26.5t-152.5 80.5t-100.5 134t-36 185zM325 1659l234 203l237 -209 l-84 -123l-153 113l-150 -113zM344 406q0 -104 62.5 -152.5t164.5 -48.5h27q104 0 164.5 48t60.5 153v581q0 96 -64.5 148.5t-160.5 52.5h-29q-96 0 -160.5 -51.5t-64.5 -147.5v-583z" />
<glyph unicode="&#xd5;" horiz-adv-x="1169" d="M90 406v583q0 98 38 177t102.5 133.5t151.5 84t187 29.5h29q100 0 187 -28.5t151.5 -83t102.5 -133t38 -179.5v-583q0 -104 -36.5 -183.5t-101.5 -133.5t-152 -81.5t-189 -27.5h-27q-104 0 -192 26.5t-152.5 80.5t-100.5 134t-36 185zM262 1618q47 88 88 130t107 42 q35 0 66.5 -12.5t59.5 -25.5t50.5 -25.5t36.5 -12.5q39 0 54.5 29.5t27.5 54.5l106 -72q-8 -37 -22 -70.5t-34.5 -59t-47.5 -42t-62 -16.5q-39 0 -70.5 12t-59 27.5t-55 28t-62.5 12.5q-18 0 -43 -22.5t-43 -63.5zM344 406q0 -104 62.5 -152.5t164.5 -48.5h27 q104 0 164.5 48t60.5 153v581q0 96 -64.5 148.5t-160.5 52.5h-29q-96 0 -160.5 -51.5t-64.5 -147.5v-583z" />
<glyph unicode="&#xd6;" horiz-adv-x="1169" d="M90 406v583q0 98 38 177t102.5 133.5t151.5 84t187 29.5h29q100 0 187 -28.5t151.5 -83t102.5 -133t38 -179.5v-583q0 -104 -36.5 -183.5t-101.5 -133.5t-152 -81.5t-189 -27.5h-27q-104 0 -192 26.5t-152.5 80.5t-100.5 134t-36 185zM280 1560v220h220v-220h-220z M344 406q0 -104 62.5 -152.5t164.5 -48.5h27q104 0 164.5 48t60.5 153v581q0 96 -64.5 148.5t-160.5 52.5h-29q-96 0 -160.5 -51.5t-64.5 -147.5v-583zM622 1560v220h218v-220h-218z" />
<glyph unicode="&#xd7;" horiz-adv-x="1050" d="M76 0l344 508l-332 496h207l231 -340l230 340h209l-332 -496l342 -508h-219l-230 350l-231 -350h-219z" />
<glyph unicode="&#xd8;" horiz-adv-x="1095" d="M90 406v583q0 98 38 177t102.5 133.5t151.5 84t187 29.5h29q51 0 100.5 -8t92.5 -23l75 181h174l-104 -263q66 -53 103.5 -131.5t37.5 -179.5v-583q0 -104 -36.5 -183.5t-101.5 -133.5t-152 -81.5t-189 -27.5h-27q-92 0 -165 20l-58 -145h-182l86 213q-78 53 -120 138 t-42 200zM344 406q0 -43 10 -84l351 845q-47 20 -107 21h-29q-96 0 -160.5 -51.5t-64.5 -147.5v-583zM492 213q33 -8 79 -8h27q104 0 164.5 48t60.5 153v581q0 10 1 20.5t-1 22.5z" />
<glyph unicode="&#xd9;" horiz-adv-x="1236" d="M133 420v973h254v-973q0 -111 60.5 -163t168.5 -52q109 0 171.5 52t62.5 163v973h254v-973q0 -109 -36 -191t-99.5 -137t-152.5 -83.5t-198 -28.5t-197.5 27.5t-153 82.5t-99.5 138t-35 192zM378 1768l156 129l176 -334l-123 -102z" />
<glyph unicode="&#xda;" horiz-adv-x="1236" d="M133 420v973h254v-973q0 -111 60.5 -163t168.5 -52q109 0 171.5 52t62.5 163v973h254v-973q0 -109 -36 -191t-99.5 -137t-152.5 -83.5t-198 -28.5t-197.5 27.5t-153 82.5t-99.5 138t-35 192zM467 1545l183 321l153 -104l-215 -312z" />
<glyph unicode="&#xdb;" horiz-adv-x="1236" d="M133 420v973h254v-973q0 -111 60.5 -163t168.5 -52q109 0 171.5 52t62.5 163v973h254v-973q0 -109 -36 -191t-99.5 -137t-152.5 -83.5t-198 -28.5t-197.5 27.5t-153 82.5t-99.5 138t-35 192zM354 1644l234 203l237 -209l-84 -123l-153 113l-150 -113z" />
<glyph unicode="&#xdc;" horiz-adv-x="1236" d="M133 420v973h254v-973q0 -111 60.5 -163t168.5 -52q109 0 171.5 52t62.5 163v973h254v-973q0 -109 -36 -191t-99.5 -137t-152.5 -83.5t-198 -28.5t-197.5 27.5t-153 82.5t-99.5 138t-35 192zM309 1562v220h220v-220h-220zM651 1562v220h218v-220h-218z" />
<glyph unicode="&#xdd;" horiz-adv-x="1138" d="M33 1393h274l252 -584l258 584h275l-406 -844v-549h-254v551zM434 1547l183 321l153 -104l-215 -312z" />
<glyph unicode="&#xde;" horiz-adv-x="925" d="M76 0v1393h254v-265h162q180 0 269 -93t89 -273v-90q0 -178 -92 -261t-266 -83h-162v-328h-254zM330 549h149q117 0 117 123v90q0 59 -28.5 102t-90.5 43h-147v-358z" />
<glyph unicode="&#xe0;" d="M76 268v260l489 103v53q0 72 -27.5 98.5t-99.5 26.5q-27 0 -62.5 -10.5t-71.5 -25.5t-67.5 -32.5t-52.5 -33.5l-88 176q35 27 80 52.5t94 44.5t99.5 31.5t95.5 12.5q178 0 262 -81t84 -259v-684h-190l-23 139q-43 -63 -105.5 -109t-134.5 -46q-147 0 -214.5 68.5 t-67.5 215.5zM217 1422l156 129l176 -334l-123 -102zM330 279q0 -53 22.5 -67.5t73.5 -14.5q53 0 93 34.5t40 90.5v139l-229 -53v-129z" />
<glyph unicode="&#xe1;" d="M76 268v260l489 103v53q0 72 -27.5 98.5t-99.5 26.5q-27 0 -62.5 -10.5t-71.5 -25.5t-67.5 -32.5t-52.5 -33.5l-88 176q35 27 80 52.5t94 44.5t99.5 31.5t95.5 12.5q178 0 262 -81t84 -259v-684h-190l-23 139q-43 -63 -105.5 -109t-134.5 -46q-147 0 -214.5 68.5 t-67.5 215.5zM305 1196l183 321l153 -104l-215 -312zM330 279q0 -53 22.5 -67.5t73.5 -14.5q53 0 93 34.5t40 90.5v139l-229 -53v-129z" />
<glyph unicode="&#xe2;" d="M76 268v260l489 103v53q0 72 -27.5 98.5t-99.5 26.5q-27 0 -62.5 -10.5t-71.5 -25.5t-67.5 -32.5t-52.5 -33.5l-88 176q35 27 80 52.5t94 44.5t99.5 31.5t95.5 12.5q178 0 262 -81t84 -259v-684h-190l-23 139q-43 -63 -105.5 -109t-134.5 -46q-147 0 -214.5 68.5 t-67.5 215.5zM192 1274l234 203l237 -209l-84 -123l-153 113l-150 -113zM330 279q0 -53 22.5 -67.5t73.5 -14.5q53 0 93 34.5t40 90.5v139l-229 -53v-129z" />
<glyph unicode="&#xe3;" d="M76 268v260l489 103v53q0 72 -27.5 98.5t-99.5 26.5q-27 0 -62.5 -10.5t-71.5 -25.5t-67.5 -32.5t-52.5 -33.5l-88 176q35 27 80 52.5t94 44.5t99.5 31.5t95.5 12.5q178 0 262 -81t84 -259v-684h-190l-23 139q-43 -63 -105.5 -109t-134.5 -46q-147 0 -214.5 68.5 t-67.5 215.5zM131 1270q47 88 88 130t107 42q35 0 66.5 -12.5t59.5 -25.5t50.5 -25.5t36.5 -12.5q39 0 54.5 29.5t27.5 54.5l106 -72q-8 -37 -22 -70.5t-34.5 -59t-47.5 -42t-62 -16.5q-39 0 -70.5 12t-59 27.5t-55 28t-62.5 12.5q-18 0 -43 -22.5t-43 -63.5zM330 279 q0 -53 22.5 -67.5t73.5 -14.5q53 0 93 34.5t40 90.5v139l-229 -53v-129z" />
<glyph unicode="&#xe4;" d="M76 268v260l489 103v53q0 72 -27.5 98.5t-99.5 26.5q-27 0 -62.5 -10.5t-71.5 -25.5t-67.5 -32.5t-52.5 -33.5l-88 176q35 27 80 52.5t94 44.5t99.5 31.5t95.5 12.5q178 0 262 -81t84 -259v-684h-190l-23 139q-43 -63 -105.5 -109t-134.5 -46q-147 0 -214.5 68.5 t-67.5 215.5zM149 1196v220h220v-220h-220zM330 279q0 -53 22.5 -67.5t73.5 -14.5q53 0 93 34.5t40 90.5v139l-229 -53v-129zM491 1196v220h218v-220h-218z" />
<glyph unicode="&#xe5;" d="M76 268v260l489 103v53q0 72 -27.5 98.5t-99.5 26.5q-27 0 -62.5 -10.5t-71.5 -25.5t-67.5 -32.5t-52.5 -33.5l-88 176q35 27 80 52.5t94 44.5t99.5 31.5t95.5 12.5q178 0 262 -81t84 -259v-684h-190l-23 139q-43 -63 -105.5 -109t-134.5 -46q-147 0 -214.5 68.5 t-67.5 215.5zM280 1300q0 86 49.5 122t108.5 36q80 0 118 -45t38 -113q0 -82 -47.5 -120.5t-108.5 -38.5q-78 0 -118 47t-40 112zM330 279q0 -53 22.5 -67.5t73.5 -14.5q53 0 93 34.5t40 90.5v139l-229 -53v-129zM379 1300q0 -31 6 -46t15 -21t19.5 -7t18.5 -1q27 0 47.5 11 t20.5 64q0 31 -7.5 47.5t-17.5 23.5t-21.5 8t-21.5 1q-20 0 -39.5 -13.5t-19.5 -66.5z" />
<glyph unicode="&#xe6;" horiz-adv-x="1409" d="M76 270v240l483 80v100q0 72 -26.5 100.5t-100.5 28.5q-27 0 -62.5 -10t-70.5 -25.5t-66.5 -33t-52.5 -33.5l-88 176q35 27 80 52.5t96 45t102.5 31.5t96.5 12q86 0 143.5 -23.5t91.5 -78.5q45 43 105.5 67.5t140.5 24.5t147.5 -24.5t116 -69.5t75 -109.5t26.5 -144.5 v-152l-504 -78v-96q0 -74 51 -113.5t127 -39.5q66 0 114 33.5t101 88.5l131 -165q-80 -86 -163 -128t-197 -42q-141 0 -232.5 41t-134.5 137q-27 -55 -58.5 -90t-65 -54.5t-68.5 -25.5t-68 -6q-147 0 -208.5 68.5t-61.5 215.5zM324 283q0 -51 22.5 -65.5t75.5 -14.5t96 33.5 t43 91.5v92l-237 -39v-98zM809 612l254 33v27q0 59 -27 92t-86 33q-66 0 -103.5 -30t-37.5 -91v-64z" />
<glyph unicode="&#xe7;" horiz-adv-x="950" d="M76 330v344q0 80 27.5 144.5t76.5 110.5t118 70.5t151 24.5q115 0 196.5 -36t153.5 -136l-160 -158q-39 47 -86 76t-104 29q-125 0 -125 -125v-344q0 -68 35.5 -96.5t103.5 -28.5q55 0 100 19.5t82 66.5l150 -158q-76 -80 -155 -116.5t-189 -36.5q-172 0 -273.5 89 t-101.5 261zM372 -172l33 201h180l-22 -121q18 -10 40.5 -24.5t44 -38t36 -57t14.5 -81.5q0 -53 -18.5 -91t-52 -67.5t-81 -52t-106.5 -47.5l-66 136q39 20 75 43.5t36 76.5q0 31 -6 51.5t-19.5 34t-35 21.5t-52.5 16z" />
<glyph unicode="&#xe8;" horiz-adv-x="911" d="M76 346v330q0 174 105.5 261t283.5 87q80 0 147.5 -24.5t115.5 -69.5t74.5 -110.5t26.5 -145.5v-185l-505 -90v-53q0 -76 52 -108.5t128 -32.5q66 0 114 28.5t101 81.5l131 -161q-80 -86 -163 -130t-198 -44q-199 0 -306 83.5t-107 282.5zM239 1399l156 129l176 -334 l-123 -102zM324 565l256 45v60q0 59 -27 93t-86 34q-66 0 -104.5 -30t-38.5 -91v-111z" />
<glyph unicode="&#xe9;" horiz-adv-x="911" d="M76 346v330q0 174 105.5 261t283.5 87q80 0 147.5 -24.5t115.5 -69.5t74.5 -110.5t26.5 -145.5v-185l-505 -90v-53q0 -76 52 -108.5t128 -32.5q66 0 114 28.5t101 81.5l131 -161q-80 -86 -163 -130t-198 -44q-199 0 -306 83.5t-107 282.5zM324 565l256 45v60q0 59 -27 93 t-86 34q-66 0 -104.5 -30t-38.5 -91v-111zM329 1196l183 321l153 -104l-215 -312z" />
<glyph unicode="&#xea;" horiz-adv-x="911" d="M76 346v330q0 174 105.5 261t283.5 87q80 0 147.5 -24.5t115.5 -69.5t74.5 -110.5t26.5 -145.5v-185l-505 -90v-53q0 -76 52 -108.5t128 -32.5q66 0 114 28.5t101 81.5l131 -161q-80 -86 -163 -130t-198 -44q-199 0 -306 83.5t-107 282.5zM213 1272l234 203l237 -209 l-84 -123l-153 113l-150 -113zM324 565l256 45v60q0 59 -27 93t-86 34q-66 0 -104.5 -30t-38.5 -91v-111z" />
<glyph unicode="&#xeb;" horiz-adv-x="911" d="M76 346v330q0 174 105.5 261t283.5 87q80 0 147.5 -24.5t115.5 -69.5t74.5 -110.5t26.5 -145.5v-185l-505 -90v-53q0 -76 52 -108.5t128 -32.5q66 0 114 28.5t101 81.5l131 -161q-80 -86 -163 -130t-198 -44q-199 0 -306 83.5t-107 282.5zM168 1179v220h220v-220h-220z M324 565l256 45v60q0 59 -27 93t-86 34q-66 0 -104.5 -30t-38.5 -91v-111zM510 1179v220h218v-220h-218z" />
<glyph unicode="&#xec;" horiz-adv-x="532" d="M49 1419l156 129l176 -334l-123 -102zM153 0v1004h246v-1004h-246z" />
<glyph unicode="&#xed;" horiz-adv-x="532" d="M135 1196l183 321l153 -104l-215 -312zM156 0v1004h246v-1004h-246z" />
<glyph unicode="&#xee;" horiz-adv-x="532" d="M14 1290l234 203l237 -209l-84 -123l-153 113l-150 -113zM125 0v1004h246v-1004h-246z" />
<glyph unicode="&#xef;" horiz-adv-x="532" d="M4 1196v220h220v-220h-220zM182 0v1004h246v-1004h-246zM346 1196v220h218v-220h-218z" />
<glyph unicode="&#xf0;" horiz-adv-x="933" d="M76 338v276q0 147 75.5 233.5t225.5 90.5q47 0 97 -14.5t95 -34.5q-51 139 -151 252l-236 -127l-63 149l168 92q-41 29 -80 47.5t-86 32.5l90 211q94 -29 164.5 -65.5t146.5 -100.5l228 125l63 -153l-170 -95q100 -131 157.5 -263t57.5 -294v-362q0 -88 -30.5 -154.5 t-85 -110.5t-128 -65.5t-159.5 -21.5q-174 0 -276.5 88t-102.5 264zM330 338q0 -66 29.5 -96.5t95.5 -30.5t103.5 29.5t45.5 95.5v213q0 164 -155 164q-66 0 -92.5 -31t-26.5 -92v-252z" />
<glyph unicode="&#xf1;" horiz-adv-x="1013" d="M119 0v1004h227l21 -105q43 66 97 96.5t136 30.5q172 0 239.5 -87t67.5 -261v-678h-254v635q0 70 -23.5 119t-92.5 49q-37 0 -67 -17.5t-51.5 -46t-33.5 -64.5t-12 -73v-602h-254zM188 1270q47 88 88 130t107 42q35 0 66.5 -12.5t59.5 -25.5t50.5 -25.5t36.5 -12.5 q39 0 54.5 29.5t27.5 54.5l106 -72q-8 -37 -22 -70.5t-34.5 -59t-47.5 -42t-62 -16.5q-39 0 -70.5 12t-59 27.5t-55 28t-62.5 12.5q-18 0 -43 -22.5t-43 -63.5z" />
<glyph unicode="&#xf2;" horiz-adv-x="940" d="M76 332v342q0 86 30.5 150.5t84 109.5t126 67.5t156.5 22.5q80 0 151.5 -22.5t126 -67.5t85 -109.5t30.5 -150.5v-342q0 -86 -29.5 -151.5t-82 -109.5t-123 -67.5t-154.5 -23.5q-86 0 -159.5 22.5t-128 67.5t-84 110.5t-29.5 151.5zM241 1399l156 129l176 -334l-123 -102 zM330 334q0 -82 31.5 -105.5t115.5 -23.5q66 0 100.5 28.5t34.5 98.5v344q0 78 -31.5 100.5t-107.5 22.5q-70 0 -106.5 -30t-36.5 -95v-340z" />
<glyph unicode="&#xf3;" horiz-adv-x="940" d="M76 332v342q0 86 30.5 150.5t84 109.5t126 67.5t156.5 22.5q80 0 151.5 -22.5t126 -67.5t85 -109.5t30.5 -150.5v-342q0 -86 -29.5 -151.5t-82 -109.5t-123 -67.5t-154.5 -23.5q-86 0 -159.5 22.5t-128 67.5t-84 110.5t-29.5 151.5zM329 1196l183 321l153 -104l-215 -312 zM330 334q0 -82 31.5 -105.5t115.5 -23.5q66 0 100.5 28.5t34.5 98.5v344q0 78 -31.5 100.5t-107.5 22.5q-70 0 -106.5 -30t-36.5 -95v-340z" />
<glyph unicode="&#xf4;" horiz-adv-x="940" d="M76 332v342q0 86 30.5 150.5t84 109.5t126 67.5t156.5 22.5q80 0 151.5 -22.5t126 -67.5t85 -109.5t30.5 -150.5v-342q0 -86 -29.5 -151.5t-82 -109.5t-123 -67.5t-154.5 -23.5q-86 0 -159.5 22.5t-128 67.5t-84 110.5t-29.5 151.5zM215 1272l234 203l237 -209l-84 -123 l-153 113l-150 -113zM330 334q0 -82 31.5 -105.5t115.5 -23.5q66 0 100.5 28.5t34.5 98.5v344q0 78 -31.5 100.5t-107.5 22.5q-70 0 -106.5 -30t-36.5 -95v-340z" />
<glyph unicode="&#xf5;" horiz-adv-x="940" d="M76 332v342q0 86 30.5 150.5t84 109.5t126 67.5t156.5 22.5q80 0 151.5 -22.5t126 -67.5t85 -109.5t30.5 -150.5v-342q0 -86 -29.5 -151.5t-82 -109.5t-123 -67.5t-154.5 -23.5q-86 0 -159.5 22.5t-128 67.5t-84 110.5t-29.5 151.5zM151 1231q47 88 88 130t107 42 q35 0 66.5 -12.5t59.5 -25.5t50.5 -25.5t36.5 -12.5q39 0 54.5 29.5t27.5 54.5l106 -72q-8 -37 -22 -70.5t-34.5 -59t-47.5 -42t-62 -16.5q-39 0 -70.5 12t-59 27.5t-55 28t-62.5 12.5q-18 0 -43 -22.5t-43 -63.5zM330 334q0 -82 31.5 -105.5t115.5 -23.5q66 0 100.5 28.5 t34.5 98.5v344q0 78 -31.5 100.5t-107.5 22.5q-70 0 -106.5 -30t-36.5 -95v-340z" />
<glyph unicode="&#xf6;" horiz-adv-x="940" d="M76 332v342q0 86 30.5 150.5t84 109.5t126 67.5t156.5 22.5q80 0 151.5 -22.5t126 -67.5t85 -109.5t30.5 -150.5v-342q0 -86 -29.5 -151.5t-82 -109.5t-123 -67.5t-154.5 -23.5q-86 0 -159.5 22.5t-128 67.5t-84 110.5t-29.5 151.5zM170 1175v220h220v-220h-220zM330 334 q0 -82 31.5 -105.5t115.5 -23.5q66 0 100.5 28.5t34.5 98.5v344q0 78 -31.5 100.5t-107.5 22.5q-70 0 -106.5 -30t-36.5 -95v-340zM512 1175v220h218v-220h-218z" />
<glyph unicode="&#xf7;" horiz-adv-x="1200" d="M76 465v188h1048v-188h-1048zM475 94v266h268v-266h-268zM475 750v266h268v-266h-268z" />
<glyph unicode="&#xf8;" horiz-adv-x="907" d="M76 332v342q0 86 30.5 150.5t84 109.5t126 67.5t156.5 22.5q70 0 133 -18l51 122h125l-67 -167q70 -47 110.5 -118t40.5 -169v-342q0 -86 -29.5 -151.5t-82 -109.5t-123 -67.5t-154.5 -23.5q-39 0 -72.5 4t-66.5 12l-59 -152h-136l78 201q-66 43 -105.5 114.5 t-39.5 172.5zM328 301l196 496q-10 2 -23.5 2h-27.5q-70 0 -106.5 -30t-36.5 -95v-340q0 -10 -1 -17.5t-1 -15.5zM422 209q10 -2 24.5 -3t30.5 -1q66 0 100.5 28.5t34.5 98.5v344v16z" />
<glyph unicode="&#xf9;" horiz-adv-x="948" d="M117 330v674h254v-674q0 -66 21.5 -95.5t88.5 -29.5q63 0 86 28.5t23 96.5v674h254v-674q0 -174 -96.5 -262t-266.5 -88q-174 0 -269 88t-95 262zM245 1399l156 129l176 -334l-123 -102z" />
<glyph unicode="&#xfa;" horiz-adv-x="948" d="M117 330v674h254v-674q0 -66 21.5 -95.5t88.5 -29.5q63 0 86 28.5t23 96.5v674h254v-674q0 -174 -96.5 -262t-266.5 -88q-174 0 -269 88t-95 262zM335 1176l183 321l153 -104l-215 -312z" />
<glyph unicode="&#xfb;" horiz-adv-x="948" d="M117 330v674h254v-674q0 -66 21.5 -95.5t88.5 -29.5q63 0 86 28.5t23 96.5v674h254v-674q0 -174 -96.5 -262t-266.5 -88q-174 0 -269 88t-95 262zM219 1290l234 203l237 -209l-84 -123l-153 113l-150 -113z" />
<glyph unicode="&#xfc;" horiz-adv-x="948" d="M117 330v674h254v-674q0 -66 21.5 -95.5t88.5 -29.5q63 0 86 28.5t23 96.5v674h254v-674q0 -174 -96.5 -262t-266.5 -88q-174 0 -269 88t-95 262zM176 1214v220h220v-220h-220zM518 1214v220h218v-220h-218z" />
<glyph unicode="&#xfd;" horiz-adv-x="874" d="M31 1004h258l151 -762l146 762h258l-326 -1164q-41 -147 -154.5 -223t-277.5 -80l-27 191q33 2 69 13t67.5 28.5t55 41t34.5 52.5l32 117zM311 1176l183 321l153 -104l-215 -312z" />
<glyph unicode="&#xfe;" horiz-adv-x="980" d="M119 -494v2028h246v-586q43 35 95 55.5t111 20.5q174 0 254 -80t80 -254v-364q0 -174 -82 -262.5t-256 -88.5q-59 0 -112.5 17.5t-89.5 60.5v-547h-246zM377 442q0 -57 1 -102t14.5 -76t44 -47t87.5 -16q66 0 98.5 20.5t32.5 87.5v328q0 82 -25.5 122t-105.5 40 q-70 0 -108.5 -35t-38.5 -100v-222z" />
<glyph unicode="&#xff;" horiz-adv-x="874" d="M31 1004h258l151 -762l146 762h258l-326 -1164q-41 -147 -154.5 -223t-277.5 -80l-27 191q33 2 69 13t67.5 28.5t55 41t34.5 52.5l32 117zM149 1214v220h220v-220h-220zM491 1214v220h218v-220h-218z" />
<glyph unicode="&#x152;" horiz-adv-x="1591" d="M90 428v541q0 102 38 182t103.5 133t152.5 81t185 28h910v-226h-437v-346h369v-215h-369v-381h474v-225h-945q-104 0 -193 25.5t-152.5 78t-99.5 133t-36 191.5zM344 428q0 -111 62.5 -157t164.5 -46h220v942h-222q-102 0 -163.5 -60t-61.5 -171v-508z" />
<glyph unicode="&#x153;" horiz-adv-x="1456" d="M76 346v338q0 168 92 255t262 87q37 0 76 -10t77 -26.5t70.5 -40t55.5 -50.5q49 72 126.5 102.5t168.5 30.5q74 0 138 -26.5t112.5 -73.5t76 -110.5t27.5 -137.5v-182l-506 -86v-49q0 -74 54 -114t128 -40q59 0 122 39t106 86l118 -166q-72 -76 -166 -123t-194 -47 q-98 0 -177 29.5t-143 105.5q-41 -66 -115.5 -103.5t-150.5 -37.5q-172 0 -265 89t-93 261zM324 346q0 -68 36.5 -97.5t104.5 -29.5q61 0 97 40t42 106v301q-6 59 -43 102t-96 43q-68 0 -104.5 -30.5t-36.5 -96.5v-338zM852 596l254 45l2 57q0 51 -31 82t-84 31 q-66 -2 -104.5 -42t-36.5 -101v-72z" />
<glyph unicode="&#x178;" horiz-adv-x="1138" d="M33 1393h274l252 -584l258 584h275l-406 -844v-549h-254v551zM276 1521v220h220v-220h-220zM618 1521v220h218v-220h-218z" />
<glyph unicode="&#x2c6;" horiz-adv-x="675" d="M102 1290l234 203l237 -209l-84 -123l-153 113l-150 -113z" />
<glyph unicode="&#x2dc;" horiz-adv-x="800" d="M102 1270q47 88 88 130t107 42q35 0 66.5 -12.5t59.5 -25.5t50.5 -25.5t36.5 -12.5q39 0 54.5 29.5t27.5 54.5l106 -72q-8 -37 -22 -70.5t-34.5 -59t-47.5 -42t-62 -16.5q-39 0 -70.5 12t-59 27.5t-55 28t-62.5 12.5q-18 0 -43 -22.5t-43 -63.5z" />
<glyph unicode="&#x2000;" horiz-adv-x="979" />
<glyph unicode="&#x2001;" horiz-adv-x="1958" />
<glyph unicode="&#x2002;" horiz-adv-x="979" />
<glyph unicode="&#x2003;" horiz-adv-x="1958" />
<glyph unicode="&#x2004;" horiz-adv-x="652" />
<glyph unicode="&#x2005;" horiz-adv-x="489" />
<glyph unicode="&#x2006;" horiz-adv-x="326" />
<glyph unicode="&#x2007;" horiz-adv-x="326" />
<glyph unicode="&#x2008;" horiz-adv-x="244" />
<glyph unicode="&#x2009;" horiz-adv-x="391" />
<glyph unicode="&#x200a;" horiz-adv-x="108" />
<glyph unicode="&#x2010;" horiz-adv-x="636" d="M76 496v225h485v-225h-485z" />
<glyph unicode="&#x2011;" horiz-adv-x="636" d="M76 496v225h485v-225h-485z" />
<glyph unicode="&#x2012;" horiz-adv-x="636" d="M76 496v225h485v-225h-485z" />
<glyph unicode="&#x2013;" horiz-adv-x="1042" d="M0 516v189h1034v-189h-1034z" />
<glyph unicode="&#x2014;" horiz-adv-x="1394" d="M2 516v189h1389v-189h-1389z" />
<glyph unicode="&#x2018;" horiz-adv-x="331" d="M61 924v55q0 154 43 266.5t111 167.5l117 -72q-23 -43 -40.5 -111.5t-17.5 -148.5v-157h-213z" />
<glyph unicode="&#x2019;" horiz-adv-x="352" d="M21 960q35 43 56.5 105.5t21.5 150.5v158h213v-56q0 -84 -16.5 -151.5t-43 -120.5t-60.5 -93t-67 -67z" />
<glyph unicode="&#x201a;" horiz-adv-x="481" d="M129 -211q35 43 56.5 105.5t21.5 150.5v158h213v-56q0 -84 -16.5 -151.5t-43 -120.5t-60.5 -93t-67 -67z" />
<glyph unicode="&#x201c;" horiz-adv-x="712" d="M61 924v55q0 154 43 266.5t111 167.5l117 -72q-23 -43 -40.5 -111.5t-17.5 -148.5v-157h-213zM421 924v55q0 154 43 266.5t111 167.5l117 -72q-23 -43 -40.5 -111.5t-17.5 -148.5v-157h-213z" />
<glyph unicode="&#x201d;" horiz-adv-x="706" d="M21 975q35 43 56.5 105.5t21.5 150.5v158h213v-56q0 -84 -16.5 -151.5t-43 -120.5t-60.5 -93t-67 -67zM373 979q35 43 56.5 105.5t21.5 150.5v158h213v-56q0 -84 -16.5 -151.5t-43 -120.5t-60.5 -93t-67 -67z" />
<glyph unicode="&#x201e;" horiz-adv-x="796" d="M129 -209q35 43 56.5 105.5t21.5 150.5v158h213v-56q0 -84 -16.5 -151.5t-43 -120.5t-60.5 -93t-67 -67zM461 -207q35 43 56.5 105.5t21.5 150.5v158h213v-56q0 -84 -16.5 -151.5t-43 -120.5t-60.5 -93t-67 -67z" />
<glyph unicode="&#x2022;" horiz-adv-x="669" d="M119 338v430h432v-430h-432z" />
<glyph unicode="&#x2026;" horiz-adv-x="1445" d="M119 0v276h276v-276h-276zM584 0v276h276v-276h-276zM1049 0v276h278v-276h-278z" />
<glyph unicode="&#x202f;" horiz-adv-x="391" />
<glyph unicode="&#x2039;" horiz-adv-x="524" d="M55 358l287 387l107 -104l-156 -281l153 -264l-104 -114z" />
<glyph unicode="&#x203a;" horiz-adv-x="524" d="M76 641l106 104l287 -387l-287 -376l-104 114l151 264z" />
<glyph unicode="&#x205f;" horiz-adv-x="489" />
<glyph unicode="&#x20ac;" horiz-adv-x="1222" d="M47 524v146h234v116h-234v144h234v143q0 86 30.5 150.5t86 106.5t130 62.5t162.5 20.5q117 0 211 -37t180 -123l-116 -184q-53 47 -128 83t-147 36q-94 0 -126 -43t-32 -135v-80h388v-144h-388v-116h388v-146h-385v-139q0 -82 46 -130t126 -48q72 0 137 36t121 91 l135 -176q-86 -86 -180.5 -132t-212.5 -46q-205 0 -315.5 107.5t-110.5 313.5v123h-234z" />
<glyph unicode="&#x2122;" horiz-adv-x="980" d="M57 1329v105h363v-105h-117v-332h-131v332h-115zM453 1004v430h137l76 -138l67 138h131v-430h-135v170l-41 -82h-63l-37 82v-170h-135z" />
<glyph unicode="&#x25fc;" horiz-adv-x="1003" d="M0 0v1004h1004v-1004h-1004z" />
<glyph unicode="&#xfb03;" horiz-adv-x="1622" d="M-4 827v177h156v180q0 164 91 241.5t255 81.5q98 0 183 -33.5t157 -84.5q61 66 126.5 95t155.5 29q43 0 95.5 -10t106.5 -26.5t107.5 -36t96.5 -35.5l-60 -213q-94 47 -191 67.5t-173 20.5q-98 0 -98 -109v-167h157v-177h-162v-827h-245v827h-154v177h154v112v68 q-59 39 -129 68.5t-127 29.5q-51 0 -76 -13.5t-25 -70.5v-194h158v-177h-158v-827h-245v827h-156zM1255 0v1004h250v-1004h-250z" />
<glyph unicode="&#xfb04;" horiz-adv-x="1632" d="M-4 827v177h156v180q0 164 91 241.5t255 81.5q98 0 178 -29.5t151 -78.5q53 63 110.5 85.5t139.5 22.5q74 0 165 -31.5t173 -72.5h92v-1403h-247v1249q-41 23 -92.5 35t-90.5 12q-47 0 -70.5 -36.5t-23.5 -83.5v-172h174v-179h-176v-825h-242v825h-155v179h157v145 q0 16 1 45t6 45q-66 23 -128.5 33t-121.5 10q-51 0 -76 -13.5t-25 -70.5v-194h158v-177h-158v-827h-245v827h-156z" />
</font>
</defs>
</svg>
